<?xml version="1.0" standalone="no"?>
<!DOCTYPE svg PUBLIC "-//W3C//DTD SVG 20010904//EN"
 "http://www.w3.org/TR/2001/REC-SVG-20010904/DTD/svg10.dtd">
<svg version="1.0" xmlns="http://www.w3.org/2000/svg"
 width="200.000000pt" height="200.000000pt" viewBox="0 0 200.000000 200.000000"
 preserveAspectRatio="xMidYMid meet">

<g transform="translate(0.000000,200.000000) scale(0.100000,-0.100000)"
fill="#000000" stroke="none">
<path d="M780 1710 c-11 -11 -20 -29 -20 -40 0 -27 43 -70 70 -70 29 0 60 35
60 68 0 57 -69 83 -110 42z"/>
<path d="M1256 1664 c-37 -38 -36 -86 4 -126 27 -26 36 -30 67 -25 20 4 45 15
55 25 10 10 21 35 25 55 5 31 1 40 -25 67 -40 40 -88 41 -126 4z"/>
<path d="M484 1463 c-31 -33 -32 -34 -10 -45 11 -6 26 -18 32 -27 10 -13 16
-11 44 19 21 23 28 36 19 39 -7 2 -22 14 -33 26 l-21 22 -31 -34z"/>
<path d="M877 1465 c-208 -57 -361 -238 -383 -450 l-6 -62 -75 -49 c-112 -73
-139 -134 -81 -177 22 -16 47 -21 131 -25 l103 -4 24 -35 c100 -146 316 -234
499 -203 236 40 430 262 431 494 0 27 7 35 58 63 87 48 142 105 142 148 0 51
-38 68 -170 73 l-105 4 -63 69 c-106 114 -233 170 -383 168 -41 0 -96 -7 -122
-14z m3 -204 c20 -39 12 -60 -25 -67 -53 -10 -78 20 -59 70 9 24 71 21 84 -3z
m529 -29 c17 -27 31 -51 31 -53 0 -3 -31 -3 -70 -1 -97 6 -115 -1 -145 -53
-29 -49 -54 -62 -86 -45 -26 14 -53 10 -143 -23 -72 -27 -96 -26 -96 3 0 29
33 49 115 69 43 11 83 25 88 30 17 17 -3 29 -52 33 -57 4 -77 30 -43 58 20 16
35 18 105 14 45 -3 109 -1 142 4 116 18 119 17 154 -36z m241 -35 c99 -34 -9
-131 -274 -246 -415 -181 -1024 -284 -1044 -177 -5 22 48 79 105 113 57 33 75
19 23 -18 -50 -37 -60 -57 -34 -76 57 -44 518 56 871 188 220 82 307 132 301
172 -3 19 -10 22 -65 25 -42 2 -63 7 -67 17 -4 12 8 15 72 14 42 0 93 -5 112
-12z m-90 -55 c0 -4 -13 -16 -30 -25 -16 -10 -30 -14 -30 -8 0 5 -3 16 -6 25
-5 13 1 16 30 16 20 0 36 -4 36 -8z m-810 -27 c10 -12 10 -18 -1 -31 -10 -12
-163 -96 -223 -123 -8 -3 0 98 11 126 13 34 188 58 213 28z m-240 -286 c0 -14
-7 -19 -30 -19 -36 0 -38 12 -7 33 26 17 37 13 37 -14z m960 4 c0 -3 -14 -37
-31 -75 -31 -66 -41 -74 -73 -62 -23 9 -20 28 9 62 14 17 25 35 25 40 0 17 30
42 51 42 10 0 19 -3 19 -7z m-279 -139 c16 -19 3 -44 -32 -61 -283 -138 -291
-139 -376 -94 -32 18 -69 41 -82 51 -20 17 -21 22 -10 36 10 13 22 14 54 8 22
-4 69 -8 105 -8 58 -1 72 3 117 32 63 41 93 50 159 51 36 1 56 -4 65 -15z"/>
<path d="M1675 1386 l-31 -31 31 -30 30 -30 33 32 c30 30 31 32 12 38 -11 3
-20 10 -20 14 0 4 -6 14 -12 23 -12 14 -16 12 -43 -16z"/>
<path d="M274 1196 c-10 -19 -31 -40 -50 -50 -43 -20 -43 -32 -1 -52 19 -9 42
-31 52 -50 10 -19 22 -34 26 -34 4 0 17 15 29 34 11 19 37 44 57 56 l37 22
-38 23 c-21 13 -46 37 -57 54 -24 40 -35 39 -55 -3z"/>
<path d="M1692 773 c-7 -3 -19 -18 -27 -34 -29 -55 6 -109 71 -109 54 0 86 58
60 108 -20 39 -61 53 -104 35z"/>
<path d="M535 445 c-29 -28 -31 -42 -9 -73 16 -24 53 -29 85 -12 28 15 26 74
-3 94 -31 22 -45 20 -73 -9z"/>
<path d="M1325 370 c-11 -4 -32 -6 -46 -3 -25 5 -25 3 -25 -45 l1 -49 52 1
c49 0 52 2 46 21 -3 11 -5 35 -4 53 1 17 0 32 -1 31 -2 0 -12 -4 -23 -9z"/>
</g>
</svg>
