<?xml version="1.0" standalone="no"?>
<!DOCTYPE svg PUBLIC "-//W3C//DTD SVG 20010904//EN"
 "http://www.w3.org/TR/2001/REC-SVG-20010904/DTD/svg10.dtd">
<svg version="1.0" xmlns="http://www.w3.org/2000/svg"
 width="1024.000000pt" height="724.000000pt" viewBox="0 0 1024.000000 724.000000"
 preserveAspectRatio="xMidYMid meet">

<g transform="translate(0.000000,724.000000) scale(0.100000,-0.100000)"
fill="#000000" stroke="none">
<path d="M310 5286 c823 -351 1272 -797 1357 -1350 19 -125 12 -330 -16 -461
-10 -49 -17 -92 -15 -94 1 -1 81 2 178 9 224 15 756 15 956 0 1068 -77 1755
-405 2130 -1015 53 -86 148 -284 186 -387 16 -43 31 -78 34 -78 3 0 18 35 34
78 38 103 133 301 186 387 375 610 1062 938 2130 1015 200 15 732 15 956 0 97
-7 177 -10 178 -9 2 2 -5 45 -15 94 -11 50 -22 151 -25 225 -29 658 426 1185
1366 1586 l125 54 -1646 0 -1646 0 -12 -66 c-17 -93 -57 -217 -98 -300 -74
-154 -194 -262 -349 -315 -169 -57 -431 -99 -624 -99 -189 0 -204 21 -215 290
-7 170 -24 312 -42 344 -6 11 -23 -39 -54 -162 l-46 -177 -64 5 c-35 3 -98 5
-139 5 -41 0 -104 -2 -139 -5 l-64 -5 -46 177 c-31 123 -48 173 -54 162 -18
-32 -35 -174 -42 -344 -11 -269 -26 -290 -215 -290 -193 0 -455 42 -624 99
-155 53 -275 161 -349 315 -41 83 -81 207 -98 300 l-12 66 -1646 0 -1646 0
125 -54z"/>
</g>
</svg>
