<?xml version="1.0" standalone="no"?>
<!DOCTYPE svg PUBLIC "-//W3C//DTD SVG 20010904//EN"
 "http://www.w3.org/TR/2001/REC-SVG-20010904/DTD/svg10.dtd">
<svg version="1.0" xmlns="http://www.w3.org/2000/svg"
 width="1600.000000pt" height="1600.000000pt" viewBox="0 0 1600.000000 1600.000000"
 preserveAspectRatio="xMidYMid meet">

<g transform="translate(0.000000,1600.000000) scale(0.100000,-0.100000)"
fill="#000000" stroke="none">
<path d="M8280 15994 c-261 -25 -435 -56 -636 -115 -253 -74 -490 -177 -708
-309 -831 -502 -1363 -1337 -1467 -2300 -14 -137 -14 -465 1 -605 62 -581 288
-1131 655 -1590 174 -219 461 -480 704 -639 411 -270 895 -440 1381 -485 57
-5 -937 -8 -2465 -8 -1408 0 -2542 2 -2520 4 855 75 1604 588 1980 1358 83
168 130 296 174 465 56 220 66 309 66 600 0 233 -3 281 -24 395 -119 667 -493
1240 -1055 1617 -131 87 -367 207 -519 263 -298 109 -660 160 -969 137 -351
-27 -602 -94 -915 -247 -739 -361 -1254 -1093 -1342 -1907 -14 -125 -14 -401
0 -526 48 -448 237 -898 526 -1257 105 -131 313 -331 441 -425 383 -281 758
-421 1277 -476 39 -4 59 -9 45 -11 -305 -37 -550 -159 -758 -376 -169 -178
-274 -387 -317 -634 -22 -128 -23 -5101 0 -5239 71 -440 388 -811 813 -954
177 -59 190 -60 1048 -60 498 0 784 -4 784 -10 0 -5 -59 -107 -132 -227 -72
-120 -396 -659 -721 -1198 -324 -539 -591 -983 -594 -988 -2 -4 268 -7 601 -7
l606 0 906 1133 c498 622 910 1132 914 1132 4 0 416 -510 914 -1133 l906
-1132 606 0 c333 0 603 3 601 8 -2 4 -326 543 -720 1198 -394 654 -719 1198
-723 1207 -5 15 74 17 1123 19 l1128 3 97 27 c139 39 262 96 375 171 264 175
437 429 520 764 16 63 17 255 21 2598 2 1823 0 2558 -8 2629 -31 270 -145 508
-340 707 -177 181 -366 286 -620 345 -65 15 -154 18 -675 24 -330 3 -579 7
-553 8 158 7 447 61 638 119 1174 355 2019 1376 2150 2598 14 130 14 482 0
610 -62 561 -261 1067 -591 1506 -527 700 -1308 1134 -2174 1208 -110 10 -371
12 -455 5z m370 -1215 c769 -70 1407 -612 1596 -1356 61 -240 71 -564 24 -798
-131 -661 -592 -1182 -1225 -1385 -572 -183 -1202 -74 -1671 288 -392 303
-636 738 -695 1237 -17 142 -7 412 21 550 44 225 143 470 260 649 370 565
1017 877 1690 815z m-5420 -1221 c234 -32 489 -164 666 -344 223 -226 344
-525 344 -848 0 -589 -401 -1078 -977 -1193 -127 -25 -357 -23 -483 4 -501
109 -861 487 -945 992 -21 123 -16 332 9 448 79 364 309 664 636 828 233 117
468 152 750 113z"/>
<path d="M13023 9027 l-1503 -902 0 -1822 0 -1822 1509 -905 c830 -499 1512
-906 1515 -906 3 0 6 1634 6 3630 0 2898 -3 3630 -12 3630 -7 -1 -689 -407
-1515 -903z"/>
</g>
</svg>
