<?xml version="1.0" standalone="no"?>
<!DOCTYPE svg PUBLIC "-//W3C//DTD SVG 20010904//EN"
 "http://www.w3.org/TR/2001/REC-SVG-20010904/DTD/svg10.dtd">
<svg version="1.0" xmlns="http://www.w3.org/2000/svg"
 width="200.000000pt" height="200.000000pt" viewBox="0 0 200.000000 200.000000"
 preserveAspectRatio="xMidYMid meet">

<g transform="translate(0.000000,200.000000) scale(0.100000,-0.100000)"
fill="#000000" stroke="none">
<path d="M559 1854 c-8 -10 -16 -52 -19 -102 l-5 -85 -43 -15 c-54 -18 -126
-90 -144 -144 l-15 -43 -85 -5 c-94 -6 -118 -18 -118 -59 0 -50 17 -60 110
-63 l85 -3 3 -37 3 -38 -78 0 c-92 0 -123 -15 -123 -60 0 -49 21 -60 116 -60
l84 0 0 -40 0 -40 -83 0 c-92 0 -117 -13 -117 -62 0 -44 28 -58 118 -58 l82 0
0 -40 0 -40 -84 0 c-95 0 -116 -11 -116 -60 0 -45 31 -60 123 -60 l78 0 -3
-37 -3 -38 -85 -3 c-93 -3 -110 -13 -110 -63 0 -41 24 -53 118 -59 84 -5 85
-5 96 -35 28 -79 82 -133 161 -161 30 -11 30 -12 35 -96 6 -94 18 -118 59
-118 49 0 56 13 61 107 l5 88 38 3 37 3 0 -78 c0 -91 15 -123 59 -123 48 0 61
26 61 118 l0 82 40 0 40 0 0 -83 c0 -92 13 -117 62 -117 44 0 58 28 58 118 l0
82 40 0 40 0 0 -84 c0 -95 11 -116 60 -116 45 0 60 31 60 123 l0 78 38 -3 37
-3 3 -85 c3 -93 13 -110 63 -110 41 0 53 24 59 118 5 84 5 85 35 96 79 28 133
82 161 161 11 30 12 30 96 35 94 6 118 18 118 59 0 50 -17 60 -110 63 l-85 3
-3 38 -3 37 78 0 c92 0 123 15 123 60 0 49 -21 60 -116 60 l-84 0 0 40 0 40
83 0 c92 0 117 13 117 62 0 44 -28 58 -118 58 l-82 0 0 40 0 40 83 0 c93 0
117 13 117 63 0 42 -33 57 -123 57 l-78 0 3 38 3 37 88 5 c94 5 107 12 107 61
0 41 -24 53 -118 59 -84 5 -85 5 -96 35 -28 79 -82 133 -161 161 -30 11 -30
12 -35 96 -6 94 -18 118 -59 118 -50 0 -60 -17 -63 -110 l-3 -85 -37 -3 -38
-3 0 78 c0 92 -15 123 -60 123 -49 0 -60 -21 -60 -116 l0 -84 -40 0 -40 0 0
83 c0 92 -13 117 -62 117 -44 0 -58 -28 -58 -118 l0 -82 -40 0 -40 0 0 84 c0
95 -11 116 -60 116 -45 0 -60 -31 -60 -123 l0 -78 -37 3 -38 3 -3 85 c-2 65
-6 88 -19 98 -24 17 -68 15 -84 -4z m937 -310 c15 -11 37 -33 48 -48 21 -27
21 -38 21 -496 0 -458 0 -469 -21 -496 -11 -15 -33 -37 -48 -48 -27 -21 -38
-21 -496 -21 -458 0 -469 0 -496 21 -15 11 -37 33 -48 48 -20 27 -21 41 -24
469 -2 243 0 456 3 474 7 40 49 91 90 109 24 11 122 13 487 11 444 -2 457 -3
484 -23z"/>
<path d="M526 1474 l-26 -27 0 -447 0 -447 26 -27 27 -26 447 0 447 0 27 26
26 27 0 447 0 447 -26 27 -27 26 -447 0 -447 0 -27 -26z m522 -126 c7 -7 12
-25 12 -40 0 -22 6 -29 28 -34 15 -3 46 -17 70 -31 44 -25 54 -53 32 -94 -14
-24 -42 -24 -108 1 -63 24 -110 25 -140 4 -46 -32 -23 -56 93 -103 44 -17 95
-40 113 -51 61 -37 80 -131 41 -200 -21 -37 -81 -80 -113 -80 -11 0 -16 -9
-16 -28 0 -37 -17 -52 -56 -52 -35 0 -50 13 -56 48 -2 18 -15 27 -56 41 -86
30 -124 80 -89 123 22 27 42 27 108 -3 35 -16 71 -29 80 -29 29 0 77 21 83 37
14 34 -6 51 -101 89 -117 47 -167 90 -178 151 -13 80 44 160 127 178 22 5 28
12 28 34 0 35 17 51 55 51 17 0 36 -5 43 -12z"/>
</g>
</svg>
