<svg width="667" height="667" viewBox="0 0 667 667" fill="none" xmlns="http://www.w3.org/2000/svg">
<path d="M481.857 17.8375L465.068 34.6092L549.215 118.672L633.293 202.666L650.15 185.826L666.938 169.055L582.792 84.9923L498.713 0.99791L481.857 17.8375Z" fill="black"/>
<path d="M406.206 9.21402C396.962 17.7697 364.473 50.1588 364.473 50.7699C364.473 51.5847 616.437 303.16 617.184 303.16C618 303.16 658.918 261.808 662.044 257.87L664.287 255.018L605.221 195.4C555.468 145.221 434.889 25.2388 417.421 8.60291L412.187 3.64609L406.206 9.21402Z" fill="black"/>
<path d="M341.907 73.2452C335.79 79.0169 325.118 89.4738 318.117 96.5355L305.339 109.301L355.637 159.548L405.934 209.796L307.922 307.71L209.842 405.692L159.476 355.377L109.179 305.129L87.7001 326.79C75.9413 338.741 65.406 349.605 64.3865 350.963L62.5513 353.408L65.8138 357.346C70.0959 362.371 303.572 595.681 309.553 600.841L314.175 604.78L316.554 603.014C317.846 601.996 328.721 591.539 340.751 579.724L362.502 558.199L312.204 507.952L261.839 457.637L359.919 359.655L457.931 261.74L508.229 312.055L558.526 362.303L580.073 340.574C591.9 328.623 602.435 317.759 603.454 316.401L605.222 314.025L601.959 310.154C597.201 304.586 430.471 137.548 389.146 97.0108C369.978 78.2021 354.005 62.7884 353.598 62.7884C353.258 62.7884 347.956 67.4736 341.907 73.2452Z" fill="black"/>
<path d="M27.8185 386.815C15.7879 398.902 5.52447 409.63 4.98071 410.649C4.02914 412.414 4.09711 412.618 9.0589 417.778C26.6631 436.18 141.056 550.934 193.053 602.403L255.109 663.718L257.08 662.36C258.168 661.613 269.179 650.953 281.618 638.73L304.184 616.527L178.032 490.908C108.635 421.785 51.3361 365.155 50.7243 365.087C50.0447 364.883 41.6164 372.895 27.8185 386.815Z" fill="black"/>
<path d="M17.5552 481.878L0.69873 498.242L84.9132 582.372L169.06 666.434L185.848 649.663L202.705 632.823L132.56 562.681C93.9532 524.112 56.0261 486.427 48.3455 479.026L34.4117 465.513L17.5552 481.878Z" fill="black"/>
</svg>
