<svg width="871" height="939" viewBox="0 0 871 939" fill="none" xmlns="http://www.w3.org/2000/svg">
<path d="M727.857 351.035L704.126 351.023L704.186 469.965L704.246 588.81L728.072 588.822L751.803 588.834L751.743 469.892L751.684 351.047L727.857 351.035Z" fill="black"/>
<path d="M680.462 291.444C667.876 290.958 622 290.887 621.568 291.319C620.991 291.895 621.266 647.951 621.794 648.48C622.371 649.057 680.545 648.75 685.54 648.176L689.143 647.745L689.533 563.823C689.834 493.16 689.413 323.058 688.824 298.942L688.628 291.737L680.462 291.444Z" fill="black"/>
<path d="M589.718 291.255C581.312 291.01 566.372 290.859 556.428 290.902L538.366 290.893L538.402 361.989L538.437 433.085L399.896 433.015L261.259 432.946L261.223 361.754L261.188 290.658L230.684 290.787C213.919 290.922 198.787 291.155 197.106 291.394L194.08 291.825L193.602 296.917C193.077 303.498 193.194 633.566 193.774 641.444L194.258 647.497L197.188 647.931C198.822 648.124 213.906 648.42 230.767 648.572L261.367 648.732L261.332 577.636L261.296 506.444L399.933 506.513L538.474 506.582L538.462 577.726L538.497 648.822L569.097 648.694C585.91 648.606 601.042 648.373 602.723 648.134L605.653 647.703L606.083 642.659C606.656 635.358 606.874 399.348 606.317 341.463C606.063 314.609 605.668 292.416 605.379 292.127C605.139 291.887 598.077 291.451 589.718 291.255Z" fill="black"/>
<path d="M145.897 290.888C128.844 290.928 114 291.257 112.896 291.592C110.974 292.168 110.878 292.36 110.738 299.518C110.174 324.977 109.919 487.009 110.292 560.17L110.816 647.407L113.17 647.841C114.467 648.082 129.791 648.329 147.229 648.482L178.886 648.738L178.509 470.71C178.316 372.761 177.843 292.201 177.458 291.721C177.122 291.096 165.496 290.802 145.897 290.888Z" fill="black"/>
<path d="M71.4207 350.85L47.93 350.502L47.9896 469.54L48.0492 588.481L71.7799 588.493L95.6066 588.505L95.605 489.307C95.5777 434.736 95.4068 381.27 95.2093 370.606L94.9113 351.198L71.4207 350.85Z" fill="black"/>
</svg>
