<?xml version="1.0" standalone="no"?>
<!DOCTYPE svg PUBLIC "-//W3C//DTD SVG 20010904//EN"
 "http://www.w3.org/TR/2001/REC-SVG-20010904/DTD/svg10.dtd">
<svg version="1.0" xmlns="http://www.w3.org/2000/svg"
 width="512.000000pt" height="512.000000pt" viewBox="0 0 512.000000 512.000000"
 preserveAspectRatio="xMidYMid meet">

<g transform="translate(0.000000,512.000000) scale(0.100000,-0.100000)"
fill="#000000" stroke="none">
<path d="M3426 4120 c-62 -67 -135 -206 -157 -300 -17 -71 -17 -240 0 -310 21
-87 93 -229 150 -297 28 -35 56 -63 61 -63 5 0 21 16 36 35 l26 35 -47 52
c-55 61 -107 160 -129 245 -19 71 -21 199 -5 275 16 77 81 205 135 266 l46 53
-23 27 c-13 15 -26 31 -30 35 -3 4 -31 -20 -63 -53z"/>
<path d="M4477 4146 l-28 -36 46 -53 c90 -103 145 -250 145 -392 0 -149 -53
-291 -147 -395 -47 -53 -48 -64 -4 -104 25 -23 33 -18 98 68 113 149 166 336
144 505 -20 155 -75 279 -170 383 l-56 61 -28 -37z"/>
<path d="M3550 3993 c-129 -146 -156 -383 -66 -561 26 -51 101 -152 114 -152
4 0 20 16 36 36 l28 36 -29 31 c-142 153 -140 414 5 570 l26 27 -29 30 c-16
17 -32 30 -36 30 -4 0 -26 -21 -49 -47z"/>
<path d="M4356 4011 l-28 -30 35 -43 c68 -85 98 -165 99 -270 0 -111 -37 -211
-105 -285 l-29 -31 28 -36 c16 -20 32 -36 36 -36 14 0 90 106 117 164 88 185
57 410 -77 559 -19 20 -37 37 -41 37 -4 0 -20 -13 -35 -29z"/>
<path d="M3692 3870 c-79 -108 -93 -243 -37 -354 15 -30 38 -64 50 -76 l21
-20 32 33 33 34 -21 26 c-67 85 -67 231 1 303 19 20 19 21 -14 59 l-33 38 -32
-43z"/>
<path d="M4230 3875 l-34 -35 22 -23 c70 -74 69 -230 -1 -305 l-21 -23 36 -36
36 -36 31 43 c50 70 74 145 68 221 -4 70 -37 152 -79 202 l-24 27 -34 -35z"/>
<path d="M3946 3707 c-29 -29 -28 -10 -61 -802 -14 -324 -27 -634 -31 -687
l-6 -98 -1874 0 c-2053 0 -1926 4 -1958 -59 -24 -45 -24 -867 0 -912 25 -50
64 -59 239 -59 l155 0 0 -75 0 -75 305 0 305 0 0 75 0 75 1540 0 1540 0 0 -75
0 -75 310 0 310 0 0 75 0 75 150 0 c170 0 209 10 234 59 24 45 24 867 0 912
-29 58 -40 59 -523 59 l-439 0 -6 83 c-3 45 -17 352 -31 682 -34 809 -33 793
-61 822 -30 30 -69 29 -98 0z m-491 -1977 c105 -51 105 -199 0 -250 -51 -25
-69 -25 -122 -1 -108 50 -107 203 2 252 51 24 69 24 120 -1z m381 -1 c43 -20
84 -81 84 -124 0 -43 -41 -104 -84 -124 -53 -26 -69 -26 -124 0 -33 16 -49 32
-63 63 -23 52 -23 71 1 124 15 33 29 47 62 62 55 25 72 25 124 -1z m380 0 c43
-20 84 -81 84 -124 0 -43 -41 -104 -84 -124 -23 -12 -51 -21 -61 -21 -43 0
-104 41 -124 84 -26 52 -26 69 -2 122 14 30 30 46 62 62 55 27 72 27 125 1z
m382 1 c33 -15 47 -29 62 -62 11 -24 20 -52 20 -63 0 -11 -9 -39 -20 -63 -15
-33 -29 -47 -62 -62 -55 -25 -72 -25 -124 1 -43 20 -84 81 -84 124 0 42 41
103 83 124 52 26 70 26 125 1z"/>
</g>
</svg>
