<svg width="309" height="359" viewBox="0 0 309 359" fill="none" xmlns="http://www.w3.org/2000/svg">
<path d="M296.796 170.207C284.722 164.539 266.333 162.363 212.689 160.563L191.594 159.884L166.212 112.685C133.046 51.2944 126.484 42.3312 113.826 41.683L108.501 41.3625L109.219 45.4833C109.73 47.7953 114.645 73.9285 120.277 103.781L130.616 157.756L120.473 158.021C101.891 158.256 68.0552 162.051 54.2061 165.416C50.8946 166.308 47.7819 166.599 47.2779 166.095C46.8746 165.691 40.7124 155.926 33.74 144.35C21.3126 124.116 14.1502 115.552 11.7482 117.954C11.1477 118.555 12.2891 128.704 14.4408 140.464C16.5924 152.223 18.7456 164.385 19.259 167.5L20.0828 173.128L15.3666 174.417C11.0514 175.506 10.7511 175.807 10.7627 179.021C10.7743 182.235 11.0767 182.538 15.3998 183.658L20.1255 184.981L19.3422 190.603C18.8512 193.715 16.7856 205.861 14.7185 217.606C12.6515 229.35 11.5831 239.491 12.1879 240.096C14.4057 242.314 23.9057 230.596 35.2878 211.553C41.4785 201.33 46.8715 192.711 47.2718 192.31C47.6721 191.91 54.3044 192.738 62.0442 194.272C79.0306 197.447 96.4153 199.619 116.005 200.593L130.673 201.45L123.284 241.5C119.246 263.684 114.517 289.381 112.843 298.716C111.068 307.951 110.194 316.083 110.899 316.789C111.504 317.394 114.618 317.505 117.73 316.814C128.871 314.744 133.868 307.53 165.596 248.383C178.866 223.621 190.241 202.568 191.04 201.366C191.839 200.163 205.596 199.108 227.49 198.383C273.188 197.041 290.355 194.592 300.677 187.899C303.883 185.701 304.581 184.398 304.566 180.179C304.546 174.554 303.839 173.648 296.796 170.207Z" fill="black"/>
</svg>
