<?xml version="1.0"?>
<svg xmlns="http://www.w3.org/2000/svg" id="Layer_2" data-name="Layer 2" viewBox="0 0 128 128" width="512" height="512"><title>FINTECH</title><path d="M38.941,120.375H53.566a1.75,1.75,0,0,0,0-3.5H38.941a1.75,1.75,0,0,0,0,3.5Z"/><path d="M73.886,7.625H69.761a1.75,1.75,0,0,0,0,3.5h4.125a1.75,1.75,0,0,0,0-3.5Z"/><path d="M118.746,33.5H85V5.75A5.756,5.756,0,0,0,79.254,0h-66A5.756,5.756,0,0,0,7.5,5.75v116.5a5.756,5.756,0,0,0,5.75,5.75h66A5.756,5.756,0,0,0,85,122.25v-31l8.983-8.982h24.759a1.75,1.75,0,0,0,1.75-1.75V35.25A1.75,1.75,0,0,0,118.746,33.5ZM47.762,82.271H72.521L81.5,91.253v18H11V18.75H81.5V33.5H47.762a1.75,1.75,0,0,0-1.75,1.75V80.521A1.75,1.75,0,0,0,47.762,82.271ZM11,5.75a2.253,2.253,0,0,1,2.25-2.25h66A2.253,2.253,0,0,1,81.5,5.75v9.5H11Zm70.5,116.5a2.253,2.253,0,0,1-2.25,2.25h-66A2.253,2.253,0,0,1,11,122.25v-9.5H81.5ZM117,78.771H93.262a1.75,1.75,0,0,0-1.237.513l-8.771,8.771-8.771-8.771a1.75,1.75,0,0,0-1.237-.513H49.512V37H117Z"/><path d="M63.315,52.492h6.991a1.75,1.75,0,0,0,0-3.5H66.534V46.385a1.75,1.75,0,0,0-3.5,0v2.622a5.805,5.805,0,0,0-5.522,5.789v3.04a1.75,1.75,0,0,0,1.75,1.75h9.294v1.289a2.306,2.306,0,0,1-2.3,2.3H59.262a1.75,1.75,0,0,0,0,3.5h3.772v2.708a1.75,1.75,0,0,0,3.5,0V66.663a5.805,5.805,0,0,0,5.522-5.789V57.835a1.75,1.75,0,0,0-1.75-1.75H61.012v-1.29A2.306,2.306,0,0,1,63.315,52.492Z"/><path d="M81.5,46.385a1.75,1.75,0,0,0,1.75,1.75h26.383a1.75,1.75,0,0,0,0-3.5H83.254A1.75,1.75,0,0,0,81.5,46.385Z"/><path d="M109.637,56.085H83.254a1.75,1.75,0,0,0,0,3.5h26.383a1.75,1.75,0,1,0,0-3.5Z"/><path d="M96.445,67.534H83.254a1.75,1.75,0,0,0,0,3.5H96.445a1.75,1.75,0,0,0,0-3.5Z"/></svg>
