<svg width="363" height="363" viewBox="0 0 363 363" fill="none" xmlns="http://www.w3.org/2000/svg">
<path d="M138.547 108.32C142.869 108.32 146.789 108.622 150.307 109.225C153.825 109.828 157.644 110.783 161.765 112.089L157.242 167.874H134.928V134.705H134.777C110.956 134.705 93.8686 151.742 83.5158 185.815V249.591H115.78V271H30.445V249.591H54.5681V133.498H30.445V112.089H76.7312L82.0081 149.329C88.3404 135.559 95.9291 125.307 104.774 118.572C113.619 111.737 124.877 108.32 138.547 108.32ZM349.429 119.326C343.297 121.236 336.563 122.543 329.225 123.246C321.989 123.95 313.244 124.302 302.992 124.302C321.788 132.745 331.185 146.113 331.185 164.406C331.185 174.859 328.723 184.207 323.798 192.449C318.873 200.591 311.787 206.973 302.539 211.597C293.393 216.12 282.588 218.382 270.124 218.382C265.199 218.382 260.977 218.181 257.459 217.778C253.941 217.276 250.524 216.522 247.207 215.517C244.895 217.125 243.036 219.236 241.629 221.849C240.221 224.463 239.518 227.176 239.518 229.991C239.518 233.911 241.025 237.027 244.041 239.338C247.157 241.55 252.534 242.655 260.173 242.655H288.367C299.122 242.655 308.821 244.565 317.465 248.385C326.21 252.204 333.045 257.431 337.97 264.065C342.895 270.698 345.358 278.086 345.358 286.228C345.358 302.008 338.623 314.12 325.155 322.563C311.787 331.107 292.689 335.378 267.862 335.378C250.574 335.378 236.904 333.619 226.853 330.102C216.902 326.584 209.766 321.307 205.444 314.271C201.222 307.235 199.112 298.138 199.112 286.982H225.195C225.195 293.213 226.351 298.189 228.662 301.908C231.075 305.627 235.347 308.391 241.478 310.2C247.71 312.11 256.504 313.065 267.862 313.065C284.648 313.065 296.86 311.004 304.499 306.883C312.239 302.762 316.109 296.53 316.109 288.188C316.109 281.252 312.993 275.875 306.761 272.055C300.63 268.336 292.488 266.477 282.336 266.477H254.444C245.297 266.477 237.608 265.12 231.376 262.406C225.144 259.692 220.521 256.074 217.505 251.551C214.49 246.927 212.982 241.851 212.982 236.323C212.982 231.096 214.49 226.021 217.505 221.095C220.521 216.17 224.843 211.848 230.472 208.129C221.224 203.204 214.39 197.173 209.967 190.037C205.645 182.901 203.484 174.206 203.484 163.954C203.484 153.199 206.198 143.6 211.625 135.157C217.154 126.714 224.793 120.13 234.542 115.406C244.393 110.682 255.6 108.32 268.164 108.32C280.628 108.32 291.081 107.767 299.524 106.662C308.068 105.455 315.254 103.897 321.084 101.988C326.914 99.9774 333.548 97.2133 340.985 93.6954L349.429 119.326ZM268.315 128.825C256.756 128.825 247.961 132.041 241.93 138.474C236 144.806 233.035 153.299 233.035 163.954C233.035 174.709 236.05 183.303 242.081 189.735C248.212 196.068 257.158 199.234 268.918 199.234C279.472 199.234 287.563 196.168 293.192 190.037C298.921 183.805 301.785 175.01 301.785 163.652C301.785 152.194 298.971 143.55 293.342 137.72C287.714 131.79 279.371 128.825 268.315 128.825Z" fill="#34926E"/>
</svg>
