<svg height="512" viewBox="0 0 512 512" width="512" xmlns="http://www.w3.org/2000/svg"><g id="Outline"><path d="m448 336h-416v-224a16.019 16.019 0 0 1 16-16h16v224h16v-272a16.019 16.019 0 0 1 16-16h288a15.963 15.963 0 0 1 10.663 4.074l10.674-11.918a31.934 31.934 0 0 0 -21.337-8.156h-288a32.036 32.036 0 0 0 -32 32v32h-16a32.036 32.036 0 0 0 -32 32v272a32.036 32.036 0 0 0 32 32h133.247l-19.2 64h-18.047v16h192v-16h-18.047l-19.2-64h133.247a32.036 32.036 0 0 0 32-32v-240h-16zm-146.752 144h-122.5l19.2-64h84.1zm146.752-96a16.019 16.019 0 0 1 -16 16h-384a16.019 16.019 0 0 1 -16-16v-32h416z"/><path d="m400 192h16v128h-16z"/><path d="m96 48h16v16h-16z"/><path d="m128 48h16v16h-16z"/><path d="m160 48h16v16h-16z"/><path d="m96 80h240v16h-240z"/><path d="m454.059 16a41.666 41.666 0 0 0 -29.659 12.284l-198.057 198.059a7.99 7.99 0 0 0 -2.108 3.713l-9.6 38.4-6.4 25.6a8 8 0 0 0 9.7 9.7l25.6-6.4 38.4-9.6a7.99 7.99 0 0 0 3.713-2.108l198.068-198.048a41.942 41.942 0 0 0 -29.657-71.6zm-174.059 252.686-12.686-12.686 172.686-172.686 12.686 12.686zm-24-24-12.686-12.686 172.686-172.686 12.686 12.686zm-11.946 36.054-12.794-12.794 5.074-20.3 28.018 28.018zm228.346-204.456-8.4 8.4-36.687-36.684 8.4-8.4a25.94 25.94 0 1 1 36.687 36.684z"/><path d="m192 120a8 8 0 0 0 -8-8h-80a8 8 0 0 0 -8 8v64a8 8 0 0 0 8 8h80a8 8 0 0 0 8-8zm-16 56h-64v-48h64z"/><path d="m192 216a8 8 0 0 0 -8-8h-80a8 8 0 0 0 -8 8v64a8 8 0 0 0 8 8h80a8 8 0 0 0 8-8zm-16 56h-64v-48h64z"/><path d="m256 112h48v16h-48z"/><path d="m208 144h64v16h-64z"/><path d="m208 176h32v16h-32z"/><path d="m208 112h32v16h-32z"/><path d="m96 304h96v16h-96z"/><path d="m264 304h120v16h-120z"/><path d="m320 272h64v16h-64z"/><path d="m352 240h32v16h-32z"/></g></svg>