<svg viewBox="0 0 494 52" xmlns="http://www.w3.org/2000/svg">
<path d="M136.3 2.00017C131.2 4.30017 128 9.00017 128 14.3002C128 22.3002 131.9 25.5002 147.8 30.5002C156.8 33.3002 160 35.7002 160 39.3002C160 45.7002 149.6 47.7002 142.2 42.8002C140.1 41.3002 137 38.1002 135.4 35.5002C132.9 31.6002 132.2 31.0002 130 31.5002C128.6 31.9002 127.4 32.3002 127.2 32.5002C126.9 32.8002 128.2 41.0002 129.6 48.3002C130.2 51.4002 133.5 52.1002 135.4 49.4002C136.4 48.1002 137 48.1002 141 49.9002C146.9 52.6002 155.8 52.7002 160.8 50.1002C166.9 46.9002 169.3 43.7002 169.7 37.8002C170.4 28.4002 166.9 25.0002 151.2 20.0002C145.8 18.2002 140.7 16.1002 139.8 15.3002C134.6 10.7002 141.1 4.90017 149 7.00017C153.4 8.20017 158.2 11.9002 160.6 15.9002C161.8 18.0002 162.8 18.6002 164.6 18.2002C166 18.0002 167.3 17.4002 167.5 17.0002C167.8 16.5002 167.2 12.7002 166.3 8.60017C164.7 1.40017 164.4 1.00017 161.9 1.00017C160.4 1.00017 159 1.40017 158.8 2.00017C158.6 2.60017 156.9 2.40017 154.5 1.50017C148.9 -0.499832 141.3 -0.299832 136.3 2.00017Z" />
<path d="M177.4 8.4C175.2 14.9 174.9 16.3 176.1 17.1C178.7 18.7 180.5 17.9 182.9 14C184.3 11.8 186.9 9.3 188.9 8.4C194.3 5.8 195 7.5 195 24.6C195 42.8 194.6 44.9 190.9 45.7C188.7 46.1 188 46.8 188 48.6C188 51 188 51 200 51C212 51 212 51 212 48.6C212 46.8 211.3 46.1 209 45.6L206 45L206.2 26.3L206.5 7.5L209 7.8C211.7 8.1 217.6 13.3 218.6 16.2C219.2 18.1 221.6 18.5 223.9 17.1C225.1 16.3 224.8 14.9 222.6 8.4L219.8 0.499999H200H180.2L177.4 8.4Z" />
<path d="M459.4 1.90026C454 4.30026 451 8.70026 451 13.9003C451 22.4003 453.9 25.0003 469.1 29.9003C479.4 33.3003 483 35.7003 483 39.4003C483 45.7003 472.5 47.6003 465.1 42.7003C462.9 41.2003 459.8 38.1003 458.3 35.7003C456.8 33.4003 455.5 31.3003 455.3 31.1003C455.2 30.9003 453.9 31.1003 452.4 31.4003C449.9 32.1003 449.8 32.3003 450.5 36.8003C452.1 48.2003 453.1 51.0003 455.2 51.0003C456.4 51.0003 457.8 50.2003 458.5 49.3003C459.7 47.7003 459.9 47.7003 462.6 49.5003C464.4 50.7003 467.9 51.5003 472.5 51.7003C478.4 52.1003 480.2 51.8003 484 49.8003C492.4 45.5003 495.4 36.5003 491 29.3003C488.7 25.4003 484.3 23.1003 472.9 19.6003C468.2 18.1003 463.5 16.1003 462.6 15.2003C458.1 10.1003 463.9 4.80026 471.8 6.90026C476.4 8.20026 481.2 11.8003 483.6 16.0003C485.1 18.5003 485.6 18.7003 488.2 17.8003C491.5 16.6003 491.4 17.3003 489.2 8.50026C487.7 2.60026 487 1.40026 485.1 1.20026C483.8 1.00026 482.4 1.30026 482.1 1.90026C481.6 2.60026 480.2 2.50026 477.5 1.50026C471.9 -0.499735 464.3 -0.299735 459.4 1.90026Z" />
<path d="M21 3.5C21 5.2 21.5 6 22.8 6C26.6 6 27 7.9 27 24.4C26.9 41.7 26.6 43.1 21.6 45C15.9 47.1 11 43.6 11 37.2C11 32.3 9.40001 30 6.00001 30C0.200011 30 -1.89999 37.9 2.20001 44C6.50001 50.3 9.20001 51.5 18.9 51.5C26.9 51.5 28 51.3 31.3 48.7C37.4 44 38 42 38 24.6C38 8.4 38.6 6 42.8 6C43.9 6 44.5 5.2 44.5 3.5V0.999999H32.8H21V3.5Z" />
<path d="M51 3.5C51 5.2 51.5 6 52.8 6C56.6 6 57 7.8 57 26C57 44.2 56.6 46 52.8 46C51.5 46 51 46.8 51 48.5V51H62.8C74.5 51 74.7 51 74.6 48.7C74.5 47.2 73.6 46.2 71.5 45.5C68.5 44.5 68.5 44.4 68.5 37.5V30.5L77 30C90.4 29.2 96 24.8 96 15.2C96 11.2 95.4 9.5 93.3 6.9C88.9 1.7 85.9 0.999999 67.5 0.999999H51V3.5ZM81 9.5C87.4 15.3 81.2 24.7 71.6 23.8L68.5 23.5L68.2 16.6C67.8 6.9 68 6.6 74.2 7.3C77 7.7 80.1 8.7 81 9.5Z" />
<path d="M230 3.3C230 4.9 230.9 5.9 233 6.7L236 7.8V26V44.2L233 45.3C230.9 46.1 230 47.1 230 48.7V51H251.9H273.7L276.4 43.4C277.9 39.3 279.3 35.3 279.6 34.6C279.9 33.7 279 32.8 277.1 32.2C274.5 31.3 274 31.4 273.4 33.2C273.1 34.3 271.3 36.9 269.4 39C265.4 43.4 259.9 45.3 252.5 44.8L247.5 44.5L247.2 36.2L246.9 28H250.8C255.1 28 257 29.4 257 32.7C257 34.6 257.5 35 260 35H263V25V15H260C257.5 15 257 15.4 257 17.5C257 20.3 254.5 22 250.1 22H247V14.4V6.7L254.4 7.3C263.2 7.9 267 9.7 270 14.5C271.8 17.4 272.6 17.9 274.4 17.4C275.5 17 276.7 16.6 277 16.3C277.2 16.1 276.3 12.7 274.9 8.7L272.3 1.5L251.1 1.2L230 0.999999V3.3Z" />
<path d="M281 3.5C281 5.2 281.7 6.3 283.3 6.9C284.5 7.4 286.1 8.8 286.8 10.1C287.9 12.5 300.7 45.9 301.7 49.2C302.1 50.7 303.4 51 308 51H313.7L318 39.8C330 8.3 330.2 7.9 332.6 6.9C334.3 6.3 335 5.3 335 3.5C335 0.999999 335 0.999999 325.5 0.999999C316.1 0.999999 316 0.999999 316 3.4C316 5.1 316.7 6 318.5 6.4C322.4 7.4 322.6 6.6 310.8 38C310 40 309.7 40.2 309 39C306.7 34.8 298.9 9.8 299.4 8.4C299.7 7.5 300.9 6.6 302 6.3C303.3 6 304 4.9 304 3.4C304 0.999999 303.9 0.999999 292.5 0.999999H281V3.5Z" />
<path d="M339 3.3C339 4.9 339.9 5.9 342 6.7L345 7.8V26V44.2L342 45.3C339.9 46.1 339 47.1 339 48.7V51L361.1 50.8L383.2 50.5L386.1 42.1C387.7 37.5 389 33.6 389 33.4C389 33.3 387.7 32.7 386.1 32.2C383.4 31.2 383.1 31.4 382.2 33.8C380.8 37.8 375.1 42.9 370.7 44.1C368.6 44.6 364.6 45 361.7 44.8L356.5 44.5L356.2 36.2L355.9 28H359.8C364.1 28 366 29.4 366 32.7C366 34.6 366.5 35 369 35H372V25V15H369C366.5 15 366 15.4 366 17.5C366 20.3 363.5 22 359 22H355.9L356.2 14.7L356.5 7.5L364.2 7.7C372.9 7.9 375.7 9.2 379.1 14.6C380.8 17.4 381.6 17.9 383.4 17.4C384.5 17 385.7 16.6 386 16.3C386.2 16.1 385.3 12.6 383.9 8.7L381.4 1.5L360.2 1.2L339 0.999999V3.3Z" />
<path d="M393 3.5C393 5.3 393.5 6 394.9 6C399.1 6 400 9.4 400 25.5C400 43.5 399.7 44.9 395.9 45.7C393.7 46.1 393 46.8 393 48.6C393 51 393.1 51 403 51C412.7 51 413 50.9 413 48.7C413 47.1 412.1 46.1 410 45.3L407 44.2V29.1C407 20.8 407.3 14 407.8 14C408.2 14 412.4 22.3 417 32.5L425.5 51H430.7H436V29.4V7.8L439 6.7C441.1 5.9 442 4.9 442 3.3C442 1.1 441.7 0.999999 432 0.999999C422.1 0.999999 422 0.999999 422 3.4C422 5.2 422.7 5.9 425 6.3L428 6.9V19.2C428 26.3 427.6 30.9 427.1 30C426.7 29.2 423.4 22.3 420 14.7L413.6 0.999999H403.3H393V3.5Z" />
</svg>
