<svg viewBox="0 0 1168 466" xmlns="http://www.w3.org/2000/svg">
<path d="M66 120.6V241.1L33 350.1C14.9 410 0 459.3 0 459.5C0 459.8 13 460 28.9 460C55.6 460 57.9 459.9 58.4 458.2C59.6 454.1 81.4 381.6 84.1 372.7L87.1 363H91.3H95.5L119.8 411.5L144 460H179H214L212.1 456.3C205.3 442.8 168 364.8 168 364C168 363.3 185.8 363 220.5 363C264.9 363 273 363.2 273 364.4C273 365.2 266.5 387 258.7 412.9L244.3 460H276H307.7L322.2 411.7L336.7 363.5L414.4 363.2C477.3 363 492 363.2 492 364.3C492 365 485.9 386.4 478.5 412C471.1 437.5 465 458.7 465 459.2C465 459.6 479.3 460 496.8 460H528.5L542.1 411.7L555.7 363.5L570.3 363.2L585 362.9V403.2C585 425.4 585.3 447.2 585.7 451.8L586.3 460L612.9 459.8L639.5 459.5L670.3 411.2L701.2 363H721.1C739.4 363 741 363.1 741 364.8C741 365.7 736.5 387.2 731 412.5C725.5 437.8 721 458.8 721 459.2C721 459.7 735.1 460 752.3 460H783.7L794 411.5L804.4 363H822.5H840.7L841.3 376.2C842 392.3 844.5 403 850.5 415.5C869.5 455.2 915.2 470.4 995 463.5C1021.8 461.1 1070.1 453.2 1073.3 450.6C1074.1 450 1079.4 430.7 1085.5 406.2L1096.2 363H1132.1H1168V181.5V0.00023721H1038.5H909V116.5C909 184.5 908.6 233 908.1 233C907.6 233 902.8 237.3 897.5 242.5C892.1 247.7 887.6 252 887.4 252C887.2 252 887 195.3 887 126V0.00023721H757.5H628L627.8 105.7L627.5 211.5H617H606.5L606.2 105.7L606 0.00023721H476.5H347V106V212H336H325V106V0.00023721H195.5H66V120.6ZM316 116.7V224.5L296.5 288.7C285.8 324 277 353.2 277 353.5C277 353.8 251.2 354 219.7 354H162.5L158.2 344.8L154 335.6L178.2 311C191.6 297.5 219.1 269.7 239.5 249.2L276.5 212H237H197.5L153 259.5C128.5 285.7 107.2 308.4 105.7 310.1C104.1 311.8 102.7 313 102.6 312.8C102.4 312.7 109.2 290 117.5 262.5L132.7 212.5L103.9 212.2L75 212V110.5V9.00024H195.5H316V116.7ZM596.8 110.2L596.5 211.5L566.5 212L536.5 212.5L516 283.2L495.5 354H464L432.5 353.9L440.9 350C452 344.7 460.2 338.7 468.6 329.7C483.2 314 492 289.2 492 263.3C492 236.4 481.1 221.7 456.2 214.7C449 212.8 445.4 212.6 402.5 212.1L356.5 211.5L356.2 110.2L356 9.00024H476.5H597L596.8 110.2ZM878 136.8V264.6L872.5 273C857.9 295.2 847.3 322 842.9 347.2L841.8 354H824.4C810.5 354 807 353.7 807 352.7C807 351.9 813.5 320.6 821.5 283C829.5 245.4 836 214.1 836 213.3C836 212.2 827 212 785.3 212L734.5 212.1L689.4 282.8L644.2 353.5L640.6 353.8L637 354.1V181.6V9.00024H757.5H878V136.8ZM1159 181.5V354H1129C1108.9 354 1099 353.7 1099 353C1099 352.4 1101 343.9 1103.5 334C1106 324.1 1108 315.8 1108 315.5C1108 315.2 1080.7 315.1 1047.3 315.2L986.6 315.5L982.5 332C980.2 341.1 978 349.7 977.7 351.2L977 354H947.5H918V350.1C918 339.2 924.8 315.3 932 300.9C950 265.3 975.9 246.9 1008.5 246.8C1032.1 246.7 1044 255.3 1045.7 273.6L1046.3 280H1082.1H1117.8L1118.9 274.8C1128 232.8 1104.3 205.9 1052.7 199.5C1029.2 196.6 997.6 198 974.3 203.1C959.2 206.4 947.7 210.4 933 217.8C925.6 221.5 919.2 224.6 918.8 224.8C918.3 225 918 176.5 918 117.1V9.00024H1038.5H1159V181.5ZM415.3 252C427.9 254 432.6 258.5 432.4 268.3C432.2 280 424.5 299.7 417.2 307.3C407.7 317.1 397 320.1 370.5 320.3C358.3 320.4 351.6 320.1 351.7 319.5C351.9 318.2 368.9 253.9 369.5 252.2C370 250.7 406.3 250.5 415.3 252ZM584.4 310.2L585 354H572C564.9 354 559 353.7 559 353.2C558.9 352.3 583.3 266 583.5 266.3C583.6 266.4 584 286.2 584.4 310.2ZM759.5 280.2C758.3 285.9 754.2 304.8 750.4 322.2L743.5 354H725.8C716 354 708 353.7 708 353.4C708 353.1 717.5 337.9 729.2 319.7C759 273 761 270 761.4 270C761.6 270 760.7 274.6 759.5 280.2ZM1029 364.2C1028.9 365.8 1017.3 412 1016.9 412.5C1016 413.3 994.5 416 984.3 416.6C955.2 418.4 934.1 409.8 923.6 391.7C920.5 386.5 917 373.4 917 367.3V363H973C1017.1 363 1029 363.3 1029 364.2Z" />
</svg>
