<?xml version="1.0" standalone="no"?>
<!DOCTYPE svg PUBLIC "-//W3C//DTD SVG 20010904//EN"
 "http://www.w3.org/TR/2001/REC-SVG-20010904/DTD/svg10.dtd">
<svg version="1.0" xmlns="http://www.w3.org/2000/svg"
 width="979.000000pt" height="359.000000pt" viewBox="0 0 979.000000 359.000000"
 preserveAspectRatio="xMidYMid meet">

<g transform="translate(0.000000,359.000000) scale(0.100000,-0.100000)"
fill="#000000" stroke="none">
<path d="M595 3546 c-128 -30 -217 -77 -303 -160 -175 -168 -261 -428 -262
-788 0 -264 49 -492 141 -651 59 -101 167 -205 260 -251 100 -48 174 -67 295
-73 319 -17 563 132 685 417 120 284 127 766 14 1065 -80 213 -224 357 -425
426 -83 28 -312 36 -405 15z m310 -181 c173 -45 288 -182 352 -421 26 -95 27
-110 27 -349 1 -225 -2 -259 -21 -337 -66 -260 -177 -393 -370 -443 -118 -31
-275 -11 -375 48 -100 58 -195 200 -232 344 -59 227 -61 533 -5 751 53 213
188 368 354 408 71 17 201 17 270 -1z"/>
<path d="M2933 3507 l-83 -41 -2 -181 -3 -180 -112 -3 -113 -3 0 -84 0 -84
113 -3 112 -3 5 -560 5 -560 24 -39 c17 -27 41 -46 80 -65 52 -24 66 -26 196
-26 77 0 157 4 178 8 l37 8 0 80 0 80 -102 -7 c-119 -7 -180 5 -203 40 -13 20
-15 92 -13 532 l3 509 155 5 155 5 0 80 0 80 -157 3 -158 3 0 224 c0 208 -1
225 -17 224 -10 0 -55 -19 -100 -42z"/>
<path d="M3712 3507 l-82 -41 2 -896 3 -895 90 0 90 0 5 521 c6 595 -6 528
105 611 95 72 190 113 278 120 114 9 177 -20 220 -100 22 -42 22 -47 27 -597
l5 -555 75 -3 c41 -2 85 0 97 3 l23 5 0 528 c0 575 -4 616 -57 713 -56 104
-172 170 -309 177 -149 8 -264 -35 -394 -148 -32 -27 -60 -50 -64 -50 -3 0 -6
146 -6 325 0 254 -3 325 -12 324 -7 0 -50 -19 -96 -42z"/>
<path d="M2266 3073 c-100 -30 -177 -94 -254 -211 l-37 -55 -3 131 -3 132 -99
0 -100 0 2 -697 3 -698 95 0 95 0 5 405 5 405 37 84 c93 208 201 305 367 327
l51 7 0 93 0 94 -57 -1 c-32 0 -80 -7 -107 -16z"/>
<path d="M5344 3069 c-84 -10 -157 -36 -231 -85 -184 -123 -286 -410 -261
-734 16 -195 78 -356 179 -465 73 -77 144 -119 243 -145 270 -69 514 41 631
284 53 110 72 180 86 323 19 190 -20 412 -98 553 -44 78 -139 175 -209 212
-93 50 -217 70 -340 57z m229 -199 c155 -78 240 -301 224 -584 -11 -182 -56
-313 -140 -398 -69 -71 -125 -93 -237 -93 -84 0 -101 3 -145 27 -103 54 -180
170 -211 319 -12 56 -15 115 -12 239 4 146 8 175 31 247 31 94 96 188 152 223
66 41 105 50 200 47 72 -2 99 -7 138 -27z"/>
<path d="M367 1160 c-174 -44 -267 -204 -267 -460 0 -276 110 -438 311 -456
153 -15 280 68 325 211 10 30 15 57 12 60 -3 3 -22 8 -41 12 -35 5 -36 4 -47
-35 -12 -45 -60 -114 -101 -144 -32 -24 -121 -34 -177 -19 -95 26 -154 110
-179 258 -29 168 2 339 76 425 39 45 100 77 147 78 51 0 128 -28 156 -57 15
-16 39 -54 54 -87 25 -55 28 -58 56 -52 17 3 34 6 39 6 30 0 -31 138 -82 187
-67 63 -192 95 -282 73z"/>
<path d="M3930 720 l0 -452 178 4 c171 3 179 4 239 32 155 71 231 225 220 446
-6 123 -25 190 -70 257 -42 60 -100 105 -174 134 -49 19 -83 23 -225 27 l-168
4 0 -452z m387 334 c103 -53 150 -142 160 -306 7 -111 -15 -212 -62 -285 -27
-41 -47 -58 -100 -84 -62 -30 -73 -32 -178 -33 l-112 -1 -3 359 c-2 273 1 362
10 374 10 12 33 14 120 10 94 -4 114 -8 165 -34z"/>
<path d="M918 1139 l-38 -19 0 -425 0 -425 45 0 45 0 0 445 c0 245 -3 445 -7
445 -5 -1 -25 -10 -45 -21z"/>
<path d="M3470 1142 c-19 -9 -38 -21 -42 -27 -4 -5 -8 -198 -8 -427 l0 -418
45 0 45 0 0 445 c0 245 -1 445 -2 444 -2 0 -19 -8 -38 -17z"/>
<path d="M1142 1128 c-34 -34 6 -90 48 -68 35 19 20 80 -20 80 -9 0 -21 -5
-28 -12z"/>
<path d="M2012 1128 c-34 -34 6 -90 48 -68 35 19 20 80 -20 80 -9 0 -21 -5
-28 -12z"/>
<path d="M4690 1120 c-13 -25 -5 -56 16 -64 24 -9 54 12 54 37 0 46 -50 64
-70 27z"/>
<path d="M8123 1125 l-32 -14 -3 -88 -3 -88 -52 -3 -53 -3 0 -35 c0 -34 1 -34
44 -34 24 0 48 -6 54 -13 7 -8 12 -108 14 -280 3 -231 5 -268 19 -283 23 -22
103 -36 167 -28 51 6 52 7 52 40 l0 34 -64 0 c-42 0 -67 5 -75 14 -8 9 -11 87
-9 262 l3 249 73 3 72 3 0 34 0 34 -72 3 -73 3 -3 103 c-3 110 -4 111 -59 87z"/>
<path d="M8492 1128 c-34 -34 6 -90 48 -68 35 19 20 80 -20 80 -9 0 -21 -5
-28 -12z"/>
<path d="M6040 943 c-8 -3 -32 -14 -53 -24 -36 -18 -40 -18 -70 -2 -40 21
-168 29 -223 14 -90 -24 -165 -125 -164 -220 1 -57 20 -103 75 -177 7 -10 0
-22 -27 -44 -20 -17 -39 -43 -43 -59 -8 -36 16 -87 45 -96 30 -10 24 -31 -15
-54 -68 -40 -81 -128 -30 -190 39 -45 96 -63 218 -69 225 -10 352 66 334 200
-13 97 -86 137 -281 150 -72 6 -141 12 -153 14 -43 8 -42 87 0 103 12 5 47 4
79 -2 201 -36 358 144 278 320 -10 24 -15 45 -11 47 4 3 27 8 49 12 41 6 42 8
42 45 0 40 -10 46 -50 32z m-151 -100 c82 -60 80 -213 -3 -264 -45 -28 -146
-26 -197 3 -107 60 -98 223 16 275 42 19 149 11 184 -14z m35 -564 c48 -13 86
-50 86 -84 0 -40 -47 -81 -108 -94 -104 -22 -256 -9 -294 26 -20 18 -24 73 -8
104 32 59 192 83 324 48z"/>
<path d="M1572 925 c-19 -8 -51 -28 -72 -45 -42 -33 -50 -31 -50 17 0 32 -1
33 -40 33 l-40 0 0 -330 0 -330 40 0 40 0 0 244 c0 282 -3 273 102 325 95 48
167 39 193 -24 12 -27 15 -89 15 -290 l0 -255 46 0 45 0 -3 273 c-3 259 -4
274 -25 313 -40 74 -162 108 -251 69z"/>
<path d="M2350 927 c-51 -16 -114 -84 -141 -153 -20 -50 -23 -77 -24 -174 0
-98 3 -124 24 -173 48 -119 121 -169 247 -169 97 1 153 27 206 98 21 27 38 52
38 56 0 4 -13 14 -29 22 -29 15 -29 15 -66 -29 -51 -63 -84 -78 -159 -73 -107
7 -155 63 -176 208 -20 131 20 257 96 306 36 24 103 29 146 11 32 -13 89 -76
100 -109 2 -6 17 -4 41 6 l38 15 -21 40 c-28 57 -83 108 -127 120 -48 14 -147
12 -193 -2z"/>
<path d="M2955 927 c-81 -32 -157 -105 -132 -125 44 -35 55 -34 93 8 52 57
133 75 213 47 42 -15 73 -67 69 -117 -3 -34 -5 -35 -58 -46 -242 -49 -350
-128 -350 -255 0 -118 67 -182 191 -181 70 0 126 21 183 69 33 27 46 19 46
-29 0 -26 3 -28 38 -28 l38 0 -4 273 c-4 306 -5 308 -80 361 -38 27 -51 30
-130 33 -52 1 -99 -2 -117 -10z m245 -395 l0 -88 -37 -36 c-118 -115 -282 -98
-283 29 0 71 59 122 190 164 30 10 72 18 93 18 l37 1 0 -88z"/>
<path d="M5033 911 c-68 -35 -121 -92 -100 -109 44 -35 55 -34 93 8 52 57 133
75 213 47 41 -15 73 -67 69 -116 l-3 -34 -112 -28 c-214 -54 -293 -119 -293
-243 0 -115 67 -178 190 -178 71 0 120 18 186 68 36 28 44 23 44 -23 0 -32 1
-33 43 -33 l43 0 -7 68 c-5 37 -8 159 -9 272 0 233 -4 246 -81 297 -35 23 -54
27 -127 31 -81 3 -91 2 -149 -27z m277 -380 c0 -88 -1 -91 -32 -121 -71 -69
-176 -97 -238 -65 -37 19 -50 43 -50 94 0 69 60 120 190 162 30 10 72 18 93
18 l37 1 0 -89z"/>
<path d="M6432 925 c-19 -8 -51 -28 -72 -45 -42 -33 -50 -31 -50 17 0 32 -1
33 -40 33 l-40 0 0 -330 0 -330 40 0 40 0 0 243 c0 273 -2 264 78 316 57 36
128 49 171 31 56 -23 61 -50 61 -334 l0 -256 45 0 45 0 0 253 c0 142 -5 268
-10 289 -14 48 -55 97 -97 114 -42 18 -129 17 -171 -1z"/>
<path d="M6985 926 c-129 -48 -203 -249 -161 -439 34 -151 122 -230 255 -230
114 0 191 49 239 153 24 50 26 66 27 185 0 122 -2 134 -28 190 -33 70 -49 89
-102 123 -50 32 -167 41 -230 18z m171 -77 c50 -24 75 -61 99 -144 38 -129 -3
-299 -85 -353 -30 -20 -45 -23 -97 -20 -53 3 -68 9 -94 33 -54 52 -72 99 -77
206 -3 70 0 110 12 151 37 127 136 179 242 127z"/>
<path d="M7543 915 c-68 -35 -98 -90 -91 -171 7 -86 43 -116 204 -170 151 -52
179 -73 178 -135 -1 -32 -9 -48 -33 -72 -27 -28 -38 -32 -99 -35 -76 -4 -127
14 -173 62 -29 31 -33 31 -71 5 l-29 -21 28 -30 c90 -95 281 -121 384 -53 95
62 107 218 23 284 -36 28 -73 44 -190 82 -104 33 -134 58 -134 111 0 52 31 85
85 94 66 9 108 -2 163 -45 l48 -38 29 23 29 23 -27 29 c-47 49 -113 76 -197
80 -65 3 -82 0 -127 -23z"/>
<path d="M8886 933 c-26 -7 -87 -46 -108 -69 -9 -11 -30 -46 -45 -79 -25 -55
-28 -70 -28 -180 0 -141 18 -202 78 -271 52 -59 104 -77 210 -73 72 4 89 8
124 32 35 24 103 104 103 121 0 6 -61 39 -64 34 -22 -37 -65 -84 -90 -99 -46
-28 -142 -26 -187 4 -87 57 -122 241 -73 388 49 152 234 175 304 38 11 -21 23
-39 26 -39 2 0 20 7 40 15 l35 14 -21 40 c-27 54 -86 109 -129 121 -37 10
-140 12 -175 3z"/>
<path d="M9415 925 c-76 -27 -124 -112 -110 -196 13 -74 68 -115 215 -158 141
-43 183 -83 164 -159 -13 -53 -61 -82 -136 -82 -69 0 -111 15 -160 59 -20 17
-40 31 -44 31 -14 -1 -54 -37 -54 -48 0 -16 61 -63 115 -88 63 -30 206 -34
258 -8 78 40 107 87 107 178 0 59 -3 69 -32 102 -35 40 -95 70 -193 99 -116
33 -155 63 -155 120 0 107 168 129 266 34 l31 -30 27 23 c18 15 25 29 21 40
-8 21 -74 66 -122 84 -49 17 -147 17 -198 -1z"/>
<path d="M1130 600 l0 -330 40 0 40 0 0 330 0 330 -40 0 -40 0 0 -330z"/>
<path d="M2000 600 l0 -330 40 0 40 0 0 330 0 330 -40 0 -40 0 0 -330z"/>
<path d="M4690 600 l0 -330 40 0 40 0 0 330 0 330 -40 0 -40 0 0 -330z"/>
<path d="M8487 923 c-4 -3 -7 -152 -7 -330 l0 -323 45 0 45 0 0 330 0 330 -38
0 c-21 0 -42 -3 -45 -7z"/>
</g>
</svg>
