<?xml version="1.0" standalone="no"?>
<!DOCTYPE svg PUBLIC "-//W3C//DTD SVG 20010904//EN"
 "http://www.w3.org/TR/2001/REC-SVG-20010904/DTD/svg10.dtd">
<svg version="1.0" xmlns="http://www.w3.org/2000/svg"
 width="377.000000pt" height="377.000000pt" viewBox="0 0 377.000000 377.000000"
 preserveAspectRatio="xMidYMid meet">
<metadata>
Created by potrace 1.14, written by Peter Selinger 2001-2017
</metadata>
<g transform="translate(0.000000,377.000000) scale(0.100000,-0.100000)"
fill="#000000" stroke="none">
<path d="M3415 2745 c-173 -83 -312 -111 -607 -125 -228 -10 -285 -21 -403
-80 -100 -49 -161 -102 -218 -188 -69 -103 -82 -154 -81 -307 0 -148 16 -206
80 -290 33 -42 135 -127 166 -137 7 -3 -14 -30 -48 -64 -33 -32 -70 -80 -82
-105 -81 -176 11 -350 218 -414 43 -14 114 -19 325 -24 251 -6 274 -8 320 -29
87 -40 125 -91 125 -171 0 -106 -69 -172 -217 -207 -82 -20 -348 -23 -438 -6
-127 25 -185 79 -199 183 l-7 50 -152 -3 -152 -3 3 -50 c7 -131 45 -218 126
-292 115 -106 279 -147 581 -147 200 0 303 13 435 56 290 92 431 336 338 586
-31 84 -131 183 -232 232 -120 57 -199 70 -440 70 -113 0 -228 5 -255 11 -94
20 -127 98 -78 184 21 37 26 40 62 38 169 -11 344 -7 405 10 246 66 395 230
424 468 21 169 -63 330 -215 418 -51 29 -52 31 -24 31 144 2 415 40 415 59 -1
22 -88 275 -96 277 -5 1 -40 -13 -79 -31z m-552 -371 c63 -11 137 -63 168
-119 56 -100 58 -278 4 -384 -48 -95 -134 -141 -265 -141 -142 0 -233 49 -287
154 -35 68 -44 213 -18 301 21 75 96 153 170 177 51 17 161 23 228 12z"/>
<path d="M1334 2606 c-148 -34 -278 -139 -366 -296 -27 -48 -49 -78 -52 -69
-2 8 -17 87 -32 177 l-27 162 -249 0 -249 0 3 -122 3 -123 112 -3 113 -3 0
-549 0 -550 -115 0 -115 0 0 -125 0 -125 450 0 450 0 0 125 0 125 -160 0 -160
0 0 300 c0 294 0 301 25 365 60 160 162 302 258 358 46 27 137 57 174 57 l23
0 0 -160 0 -160 120 0 c116 0 120 1 124 23 3 12 14 121 26 242 11 121 23 243
26 272 l6 52 -53 16 c-74 23 -257 29 -335 11z"/>
</g>
</svg>
