<?xml version="1.0" standalone="no"?>
<!DOCTYPE svg PUBLIC "-//W3C//DTD SVG 20010904//EN"
 "http://www.w3.org/TR/2001/REC-SVG-20010904/DTD/svg10.dtd">
<svg version="1.0" xmlns="http://www.w3.org/2000/svg"
 width="377.000000pt" height="377.000000pt" viewBox="0 0 377.000000 377.000000"
 preserveAspectRatio="xMidYMid meet">
<metadata>
Created by potrace 1.14, written by Peter Selinger 2001-2017
</metadata>
<g transform="translate(0.000000,377.000000) scale(0.100000,-0.100000)"
fill="#000000" stroke="none">
<path d="M3390 2720 c-47 -21 -87 -36 -89 -34 -2 2 -9 0 -15 -5 -12 -9 -85
-28 -143 -36 -21 -4 -45 -8 -53 -10 -23 -7 -162 -15 -310 -20 -198 -5 -302
-32 -428 -112 -99 -62 -196 -189 -218 -283 -38 -167 -25 -303 41 -416 31 -54
109 -132 152 -155 33 -17 58 -39 45 -39 -20 0 -111 -101 -133 -148 -30 -62
-37 -154 -15 -219 19 -58 76 -122 132 -151 93 -47 146 -55 394 -58 251 -2 306
-10 382 -51 154 -84 135 -290 -35 -363 -87 -38 -176 -49 -367 -46 -145 3 -186
7 -241 25 -104 33 -159 104 -159 205 l0 26 -131 0 -132 0 6 -67 c7 -85 11
-101 37 -160 31 -70 66 -111 133 -154 111 -72 264 -102 512 -101 355 0 577 80
710 254 56 72 81 243 50 339 -49 155 -188 268 -382 312 -64 15 -106 18 -363
22 -96 1 -186 5 -199 8 -85 22 -122 111 -79 192 26 49 53 68 85 60 77 -19 226
-25 318 -13 185 25 346 124 423 261 53 94 67 151 66 272 0 103 -2 114 -32 177
-37 76 -102 145 -179 189 -29 17 -53 31 -53 32 0 1 39 3 88 4 83 3 190 10 222
17 8 1 36 6 62 10 82 14 83 14 37 154 -23 67 -44 122 -47 121 -4 -1 -45 -18
-92 -39z m-475 -335 c119 -51 178 -156 177 -319 0 -236 -115 -359 -333 -358
-224 1 -355 135 -350 361 3 108 27 174 88 242 42 47 78 67 148 86 66 17 217
10 270 -12z"/>
<path d="M1398 2615 c-2 -2 -24 -6 -50 -9 -167 -22 -326 -150 -416 -333 -15
-29 -29 -53 -32 -53 -3 0 -7 12 -8 28 -2 15 -13 95 -25 177 l-23 150 -232 1
-232 2 0 -107 0 -108 116 1 c64 1 118 -3 121 -8 3 -4 6 -265 6 -580 l1 -571
-95 -2 c-52 0 -106 -2 -121 -2 l-28 -1 0 -105 0 -105 70 0 c39 0 180 0 315 0
135 0 296 0 358 0 l112 0 0 105 0 105 -25 1 c-14 0 -87 1 -162 1 l-137 0 2
331 2 332 33 80 c96 240 249 387 420 402 l58 5 -1 -166 0 -166 113 0 112 0 1
28 c0 15 2 34 3 42 2 8 7 58 11 110 3 52 8 111 10 130 2 19 6 76 10 125 3 50
8 97 11 106 4 13 -9 20 -63 33 -58 15 -226 29 -235 21z"/>
</g>
</svg>
