<svg viewBox="0 0 1440 1024" fill="none" xmlns="http://www.w3.org/2000/svg">
<path d="M361.438 551.949C365.609 551.949 369.609 551.162 373.438 549.59C377.336 547.949 381.438 545.624 385.746 542.615L400.208 563.128C395.08 567.504 389.062 570.991 382.156 573.59C375.25 576.188 367.763 577.487 359.695 577.487C348.139 577.487 338.122 575.094 329.644 570.308C321.165 565.521 314.669 558.821 310.156 550.205C305.644 541.59 303.387 531.607 303.387 520.256C303.387 508.906 305.712 498.786 310.362 489.897C315.011 481.009 321.609 474.068 330.156 469.077C338.772 464.017 348.823 461.487 360.31 461.487C368.447 461.487 375.729 462.615 382.156 464.872C388.652 467.128 394.669 470.547 400.208 475.128L386.156 494.615C378.293 489.145 370.122 486.41 361.644 486.41C353.917 486.41 347.9 489.111 343.592 494.513C339.353 499.915 337.233 508.496 337.233 520.256C337.233 531.607 339.387 539.744 343.695 544.667C348.003 549.521 353.917 551.949 361.438 551.949ZM459.152 475.846C468.246 466.274 478.913 461.487 491.152 461.487C500.793 461.487 508.178 464.325 513.306 470C518.502 475.607 521.101 483.607 521.101 494V574H488.691V503.026C488.691 498.581 488.349 495.094 487.665 492.564C487.049 490.034 485.99 488.222 484.485 487.128C482.981 485.966 480.896 485.385 478.229 485.385C474.947 485.385 471.767 486.513 468.691 488.769C465.614 491.026 462.434 494.308 459.152 498.615V574H426.742V421.795L459.152 418.615V475.846ZM577.891 528.974C578.917 537.521 581.72 543.812 586.301 547.846C590.883 551.88 596.797 553.897 604.045 553.897C613.276 553.897 622.575 550.889 631.943 544.872L644.968 562.513C639.566 567.162 633.173 570.821 625.789 573.487C618.472 576.154 610.37 577.487 601.481 577.487C589.31 577.487 578.985 575.06 570.507 570.205C562.028 565.35 555.635 558.581 551.327 549.897C547.019 541.145 544.866 531.06 544.866 519.641C544.866 508.769 546.951 498.923 551.122 490.103C555.293 481.282 561.378 474.308 569.378 469.179C577.378 464.051 586.917 461.487 597.994 461.487C608.319 461.487 617.31 463.709 624.968 468.154C632.695 472.598 638.643 479.026 642.814 487.436C646.985 495.846 649.071 505.829 649.071 517.385C649.071 521.829 648.866 525.692 648.455 528.974H577.891ZM597.994 483.231C592.045 483.231 587.293 485.385 583.737 489.692C580.25 494 578.165 500.598 577.481 509.487H617.481C617.276 491.983 610.78 483.231 597.994 483.231ZM716.528 554.308C722.066 554.308 726.442 553.453 729.656 551.744C732.938 549.966 734.579 547.402 734.579 544.051C734.579 541.658 733.93 539.709 732.63 538.205C731.331 536.632 728.904 535.162 725.348 533.795C721.793 532.359 716.254 530.615 708.733 528.564C697.793 525.624 689.417 521.59 683.605 516.462C677.861 511.333 674.989 504.222 674.989 495.128C674.989 488.564 676.801 482.752 680.425 477.692C684.118 472.632 689.519 468.667 696.63 465.795C703.742 462.923 712.289 461.487 722.271 461.487C739.571 461.487 754.271 465.897 766.374 474.718L753.451 493.795C748.733 490.923 743.776 488.667 738.579 487.026C733.451 485.385 728.323 484.564 723.195 484.564C717.93 484.564 713.998 485.282 711.4 486.718C708.87 488.085 707.605 490.171 707.605 492.974C707.605 494.889 708.254 496.496 709.553 497.795C710.921 499.094 713.348 500.427 716.836 501.795C720.391 503.162 725.895 504.906 733.348 507.026C741.212 509.214 747.605 511.641 752.528 514.308C757.451 516.906 761.28 520.393 764.015 524.769C766.818 529.077 768.22 534.65 768.22 541.487C768.22 549.145 765.895 555.709 761.246 561.179C756.665 566.581 750.477 570.65 742.682 573.385C734.887 576.12 726.237 577.487 716.733 577.487C706.545 577.487 697.383 576.051 689.246 573.179C681.109 570.239 674.1 566.205 668.22 561.077L684.528 542.821C689.041 546.376 693.998 549.179 699.4 551.231C704.801 553.282 710.511 554.308 716.528 554.308ZM839.575 554.308C845.113 554.308 849.489 553.453 852.703 551.744C855.985 549.966 857.626 547.402 857.626 544.051C857.626 541.658 856.976 539.709 855.677 538.205C854.378 536.632 851.951 535.162 848.395 533.795C844.84 532.359 839.301 530.615 831.78 528.564C820.84 525.624 812.464 521.59 806.652 516.462C800.908 511.333 798.036 504.222 798.036 495.128C798.036 488.564 799.848 482.752 803.472 477.692C807.164 472.632 812.566 468.667 819.677 465.795C826.788 462.923 835.335 461.487 845.318 461.487C862.617 461.487 877.318 465.897 889.421 474.718L876.498 493.795C871.78 490.923 866.823 488.667 861.626 487.026C856.498 485.385 851.37 484.564 846.241 484.564C840.976 484.564 837.045 485.282 834.447 486.718C831.917 488.085 830.652 490.171 830.652 492.974C830.652 494.889 831.301 496.496 832.6 497.795C833.968 499.094 836.395 500.427 839.882 501.795C843.438 503.162 848.942 504.906 856.395 507.026C864.258 509.214 870.652 511.641 875.575 514.308C880.498 516.906 884.327 520.393 887.062 524.769C889.865 529.077 891.267 534.65 891.267 541.487C891.267 549.145 888.942 555.709 884.293 561.179C879.711 566.581 873.523 570.65 865.729 573.385C857.934 576.12 849.284 577.487 839.78 577.487C829.592 577.487 820.429 576.051 812.293 573.179C804.156 570.239 797.147 566.205 791.267 561.077L807.575 542.821C812.088 546.376 817.045 549.179 822.447 551.231C827.848 553.282 833.558 554.308 839.575 554.308ZM978.416 478.718C985.869 478.718 992.604 480.564 998.622 484.256C1004.71 487.949 1009.49 493.35 1012.98 500.462C1016.47 507.573 1018.21 516.017 1018.21 525.795C1018.21 535.368 1016.13 544.085 1011.95 551.949C1007.85 559.812 1001.97 566.034 994.314 570.615C986.656 575.197 977.801 577.487 967.75 577.487C955.716 577.487 945.733 574.479 937.801 568.462C929.938 562.444 924.126 554.342 920.365 544.154C916.673 533.966 914.827 522.479 914.827 509.692C914.827 493.761 917.288 479.641 922.211 467.333C927.203 455.026 934.348 445.453 943.647 438.615C952.946 431.709 963.887 428.256 976.468 428.256C988.228 428.256 998.519 431.299 1007.34 437.385L995.032 457.077C992.365 455.162 989.459 453.726 986.314 452.769C983.237 451.812 980.16 451.333 977.083 451.333C971.887 451.333 967.237 452.906 963.134 456.051C959.032 459.128 955.681 463.709 953.083 469.795C950.553 475.812 949.049 483.094 948.57 491.641C952.673 487.402 957.357 484.188 962.622 482C967.887 479.812 973.152 478.718 978.416 478.718ZM968.16 554.308C973.972 554.308 978.348 551.846 981.288 546.923C984.297 541.932 985.801 535.504 985.801 527.641C985.801 518.274 984.468 511.504 981.801 507.333C979.134 503.162 975.203 501.077 970.006 501.077C966.177 501.077 962.382 502.034 958.622 503.949C954.929 505.795 951.579 508.462 948.57 511.949C948.707 521.726 949.391 529.692 950.622 535.846C951.921 542 953.972 546.615 956.775 549.692C959.579 552.769 963.374 554.308 968.16 554.308ZM1141.16 544.154H1126.9V574H1095.82L1095.62 544.154H1036.75V522.615L1076.23 428.256L1103.82 438.41L1070.18 519.846H1095.72L1099.51 485.59H1126.9V519.846H1141.16V544.154Z"/>
</svg>
