<svg viewBox="0 0 1440 1024"  xmlns="http://www.w3.org/2000/svg">
<path d="M558.099 295.41C572.252 295.41 584.697 297.701 595.432 302.282L586.509 323.41C579.261 320.675 571.466 319.308 563.124 319.308C556.697 319.308 552.081 320.47 549.278 322.795C546.543 325.12 545.175 328.983 545.175 334.385V348.949H580.663L577.073 371.41H545.175V451H512.97V371.41H490.099V348.949H512.97V333.154C512.97 325.906 514.68 319.444 518.099 313.769C521.586 308.026 526.714 303.547 533.483 300.333C540.321 297.051 548.526 295.41 558.099 295.41ZM658.786 290.179C662.479 290.179 665.761 291 668.633 292.641C671.504 294.214 673.761 296.402 675.402 299.205C677.043 301.94 677.863 305.017 677.863 308.436C677.863 311.855 677.043 314.966 675.402 317.769C673.761 320.573 671.47 322.795 668.53 324.436C665.658 326.009 662.41 326.795 658.786 326.795C655.094 326.795 651.778 326.009 648.838 324.436C645.898 322.795 643.607 320.573 641.966 317.769C640.325 314.966 639.504 311.855 639.504 308.436C639.504 305.017 640.325 301.94 641.966 299.205C643.607 296.402 645.898 294.214 648.838 292.641C651.778 291 655.094 290.179 658.786 290.179ZM678.376 428.846H706.069V451H615.094V428.846H645.966V371.41H616.12V348.949H678.376V428.846ZM791.679 416.744C791.679 420.983 792.876 424.094 795.269 426.077C797.731 427.991 801.218 428.949 805.731 428.949C810.654 428.949 815.782 427.855 821.115 425.667L828.91 447.308C819.816 452.094 809.321 454.487 797.423 454.487C784.637 454.487 775.064 450.829 768.705 443.513C762.415 436.128 759.269 425.872 759.269 412.744V320.949H727.167V298.795H791.679V416.744ZM886.008 405.974C887.034 414.521 889.837 420.812 894.419 424.846C899 428.88 904.914 430.897 912.162 430.897C921.393 430.897 930.692 427.889 940.06 421.872L953.085 439.513C947.684 444.162 941.29 447.821 933.906 450.487C926.59 453.154 918.487 454.487 909.598 454.487C897.427 454.487 887.102 452.06 878.624 447.205C870.145 442.35 863.752 435.581 859.444 426.897C855.137 418.145 852.983 408.06 852.983 396.641C852.983 385.769 855.068 375.923 859.239 367.103C863.41 358.282 869.496 351.308 877.496 346.179C885.496 341.051 895.034 338.487 906.111 338.487C916.436 338.487 925.427 340.709 933.085 345.154C940.812 349.598 946.761 356.026 950.931 364.436C955.102 372.846 957.188 382.829 957.188 394.385C957.188 398.829 956.983 402.692 956.573 405.974H886.008ZM906.111 360.231C900.162 360.231 895.41 362.385 891.855 366.692C888.367 371 886.282 377.598 885.598 386.487H925.598C925.393 368.983 918.897 360.231 906.111 360.231ZM177.368 674.949C181.539 674.949 185.539 674.162 189.368 672.59C193.266 670.949 197.368 668.624 201.676 665.615L216.137 686.128C211.009 690.504 204.992 693.991 198.086 696.59C191.18 699.188 183.693 700.487 175.625 700.487C164.069 700.487 154.052 698.094 145.573 693.308C137.095 688.521 130.599 681.821 126.086 673.205C121.573 664.59 119.317 654.607 119.317 643.256C119.317 631.906 121.642 621.786 126.291 612.897C130.941 604.009 137.539 597.068 146.086 592.077C154.702 587.017 164.753 584.487 176.24 584.487C184.377 584.487 191.659 585.615 198.086 587.872C204.582 590.128 210.599 593.547 216.137 598.128L202.086 617.615C194.223 612.145 186.052 609.41 177.573 609.41C169.847 609.41 163.83 612.111 159.522 617.513C155.283 622.915 153.163 631.496 153.163 643.256C153.163 654.607 155.317 662.744 159.625 667.667C163.932 672.521 169.847 674.949 177.368 674.949ZM289.851 584.487C300.86 584.487 310.33 586.88 318.261 591.667C326.261 596.385 332.347 603.085 336.518 611.769C340.689 620.453 342.774 630.607 342.774 642.231C342.774 654.333 340.654 664.761 336.415 673.513C332.244 682.197 326.193 688.863 318.261 693.513C310.33 698.162 300.86 700.487 289.851 700.487C278.774 700.487 269.27 698.197 261.338 693.615C253.407 689.034 247.355 682.402 243.184 673.718C239.013 664.966 236.928 654.538 236.928 642.436C236.928 630.88 239.013 620.761 243.184 612.077C247.424 603.325 253.509 596.556 261.441 591.769C269.441 586.915 278.911 584.487 289.851 584.487ZM289.851 608.385C283.218 608.385 278.295 611.12 275.082 616.59C271.936 622.06 270.364 630.675 270.364 642.436C270.364 654.402 271.936 663.12 275.082 668.59C278.227 673.991 283.15 676.692 289.851 676.692C296.552 676.692 301.475 673.957 304.62 668.487C307.765 663.017 309.338 654.265 309.338 642.231C309.338 630.538 307.731 621.991 304.518 616.59C301.372 611.12 296.483 608.385 289.851 608.385ZM446.231 584.487C454.026 584.487 459.77 587.017 463.462 592.077C467.154 597.137 469 605.239 469 616.385V697H441.206V620.077C441.206 616.179 440.829 613.479 440.077 611.974C439.325 610.402 437.889 609.615 435.77 609.615C433.923 609.615 432.077 610.162 430.231 611.256C428.453 612.282 426.539 614.094 424.488 616.692V697H401.718V620.077C401.718 616.179 401.342 613.479 400.59 611.974C399.838 610.402 398.402 609.615 396.282 609.615C394.436 609.615 392.59 610.162 390.744 611.256C388.966 612.282 387.052 614.094 385 616.692V697H356.795V588.077H380.59L382.744 598.641C386.3 593.786 389.821 590.231 393.308 587.974C396.795 585.65 400.864 584.487 405.513 584.487C409.753 584.487 413.274 585.547 416.077 587.667C418.949 589.786 421 593.034 422.231 597.41C429.684 588.795 437.684 584.487 446.231 584.487ZM549.073 584.487C562.817 584.487 572.868 589.513 579.227 599.564C585.654 609.547 588.868 623.769 588.868 642.231C588.868 653.513 587.193 663.564 583.842 672.385C580.56 681.137 575.774 688.009 569.483 693C563.193 697.991 555.705 700.487 547.022 700.487C536.423 700.487 527.808 696.692 521.175 689.103V739.051L488.765 742.436V588.077H517.483L518.919 600.282C523.158 594.88 527.876 590.915 533.073 588.385C538.269 585.786 543.603 584.487 549.073 584.487ZM539.022 608.385C535.398 608.385 532.116 609.479 529.175 611.667C526.304 613.786 523.637 616.897 521.175 621V666.949C523.5 670.368 525.893 672.863 528.355 674.436C530.885 675.94 533.825 676.692 537.175 676.692C543.124 676.692 547.637 673.991 550.714 668.59C553.859 663.188 555.432 654.538 555.432 642.641C555.432 633.889 554.782 627.017 553.483 622.026C552.252 616.966 550.44 613.444 548.047 611.462C545.654 609.41 542.646 608.385 539.022 608.385ZM694.992 584.795C701.487 584.795 707.47 585.889 712.94 588.077L706.889 633.615H686.581V613.513C680.564 614.607 675.231 617.889 670.581 623.359C665.932 628.829 662.274 635.735 659.607 644.077V675.256H681.145V697H612.838V675.256H627.197V609.615H612.838V588.077H651.915L657.863 612.59C661.761 603.222 666.718 596.248 672.735 591.667C678.821 587.085 686.239 584.795 694.992 584.795ZM762.962 651.974C763.987 660.521 766.791 666.812 771.372 670.846C775.953 674.88 781.868 676.897 789.115 676.897C798.346 676.897 807.645 673.889 817.013 667.872L830.038 685.513C824.637 690.162 818.244 693.821 810.859 696.487C803.543 699.154 795.44 700.487 786.551 700.487C774.38 700.487 764.056 698.06 755.577 693.205C747.098 688.35 740.705 681.581 736.397 672.897C732.09 664.145 729.936 654.06 729.936 642.641C729.936 631.769 732.021 621.923 736.192 613.103C740.363 604.282 746.449 597.308 754.449 592.179C762.449 587.051 771.987 584.487 783.064 584.487C793.389 584.487 802.38 586.709 810.038 591.154C817.765 595.598 823.714 602.026 827.885 610.436C832.056 618.846 834.141 628.829 834.141 640.385C834.141 644.829 833.936 648.692 833.526 651.974H762.962ZM783.064 606.231C777.115 606.231 772.363 608.385 768.808 612.692C765.321 617 763.235 623.598 762.551 632.487H802.551C802.346 614.983 795.85 606.231 783.064 606.231ZM901.598 677.308C907.137 677.308 911.513 676.453 914.726 674.744C918.008 672.966 919.649 670.402 919.649 667.051C919.649 664.658 919 662.709 917.701 661.205C916.402 659.632 913.974 658.162 910.419 656.795C906.863 655.359 901.325 653.615 893.803 651.564C882.863 648.624 874.487 644.59 868.675 639.462C862.931 634.333 860.06 627.222 860.06 618.128C860.06 611.564 861.872 605.752 865.496 600.692C869.188 595.632 874.59 591.667 881.701 588.795C888.812 585.923 897.359 584.487 907.342 584.487C924.641 584.487 939.342 588.897 951.444 597.718L938.521 616.795C933.803 613.923 928.846 611.667 923.649 610.026C918.521 608.385 913.393 607.564 908.265 607.564C903 607.564 899.068 608.282 896.47 609.718C893.94 611.085 892.675 613.171 892.675 615.974C892.675 617.889 893.325 619.496 894.624 620.795C895.991 622.094 898.419 623.427 901.906 624.795C905.461 626.162 910.966 627.906 918.419 630.026C926.282 632.214 932.675 634.641 937.598 637.308C942.521 639.906 946.35 643.393 949.085 647.769C951.889 652.077 953.29 657.65 953.29 664.487C953.29 672.145 950.966 678.709 946.316 684.179C941.735 689.581 935.547 693.65 927.752 696.385C919.957 699.12 911.308 700.487 901.803 700.487C891.615 700.487 882.453 699.051 874.316 696.179C866.179 693.239 859.171 689.205 853.29 684.077L869.598 665.821C874.111 669.376 879.068 672.179 884.47 674.231C889.872 676.282 895.581 677.308 901.598 677.308ZM1024.65 677.308C1030.18 677.308 1034.56 676.453 1037.77 674.744C1041.06 672.966 1042.7 670.402 1042.7 667.051C1042.7 664.658 1042.05 662.709 1040.75 661.205C1039.45 659.632 1037.02 658.162 1033.47 656.795C1029.91 655.359 1024.37 653.615 1016.85 651.564C1005.91 648.624 997.534 644.59 991.722 639.462C985.978 634.333 983.107 627.222 983.107 618.128C983.107 611.564 984.919 605.752 988.542 600.692C992.235 595.632 997.636 591.667 1004.75 588.795C1011.86 585.923 1020.41 584.487 1030.39 584.487C1047.69 584.487 1062.39 588.897 1074.49 597.718L1061.57 616.795C1056.85 613.923 1051.89 611.667 1046.7 610.026C1041.57 608.385 1036.44 607.564 1031.31 607.564C1026.05 607.564 1022.12 608.282 1019.52 609.718C1016.99 611.085 1015.72 613.171 1015.72 615.974C1015.72 617.889 1016.37 619.496 1017.67 620.795C1019.04 622.094 1021.47 623.427 1024.95 624.795C1028.51 626.162 1034.01 627.906 1041.47 630.026C1049.33 632.214 1055.72 634.641 1060.65 637.308C1065.57 639.906 1069.4 643.393 1072.13 647.769C1074.94 652.077 1076.34 657.65 1076.34 664.487C1076.34 672.145 1074.01 678.709 1069.36 684.179C1064.78 689.581 1058.59 693.65 1050.8 696.385C1043 699.12 1034.35 700.487 1024.85 700.487C1014.66 700.487 1005.5 699.051 997.363 696.179C989.226 693.239 982.218 689.205 976.337 684.077L992.645 665.821C997.158 669.376 1002.12 672.179 1007.52 674.231C1012.92 676.282 1018.63 677.308 1024.65 677.308ZM1151.18 584.487C1162.19 584.487 1171.66 586.88 1179.59 591.667C1187.59 596.385 1193.67 603.085 1197.85 611.769C1202.02 620.453 1204.1 630.607 1204.1 642.231C1204.1 654.333 1201.98 664.761 1197.74 673.513C1193.57 682.197 1187.52 688.863 1179.59 693.513C1171.66 698.162 1162.19 700.487 1151.18 700.487C1140.1 700.487 1130.6 698.197 1122.67 693.615C1114.73 689.034 1108.68 682.402 1104.51 673.718C1100.34 664.966 1098.26 654.538 1098.26 642.436C1098.26 630.88 1100.34 620.761 1104.51 612.077C1108.75 603.325 1114.84 596.556 1122.77 591.769C1130.77 586.915 1140.24 584.487 1151.18 584.487ZM1151.18 608.385C1144.55 608.385 1139.62 611.12 1136.41 616.59C1133.26 622.06 1131.69 630.675 1131.69 642.436C1131.69 654.402 1133.26 663.12 1136.41 668.59C1139.56 673.991 1144.48 676.692 1151.18 676.692C1157.88 676.692 1162.8 673.957 1165.95 668.487C1169.09 663.017 1170.67 654.265 1170.67 642.231C1170.67 630.538 1169.06 621.991 1165.85 616.59C1162.7 611.12 1157.81 608.385 1151.18 608.385ZM1310.23 584.795C1316.72 584.795 1322.7 585.889 1328.17 588.077L1322.12 633.615H1301.82V613.513C1295.8 614.607 1290.47 617.889 1285.82 623.359C1281.17 628.829 1277.51 635.735 1274.84 644.077V675.256H1296.38V697H1228.07V675.256H1242.43V609.615H1228.07V588.077H1267.15L1273.1 612.59C1277 603.222 1281.95 596.248 1287.97 591.667C1294.06 587.085 1301.47 584.795 1310.23 584.795Z" />
</svg>
