<svg viewBox="0 0 1440 1024" xmlns="http://www.w3.org/2000/svg">
<path d="M199.137 461.487C206.932 461.487 212.676 464.017 216.368 469.077C220.06 474.137 221.907 482.239 221.907 493.385V574H194.112V497.077C194.112 493.179 193.736 490.479 192.984 488.974C192.231 487.402 190.796 486.615 188.676 486.615C186.83 486.615 184.984 487.162 183.137 488.256C181.36 489.282 179.445 491.094 177.394 493.692V574H154.625V497.077C154.625 493.179 154.249 490.479 153.496 488.974C152.744 487.402 151.308 486.615 149.189 486.615C147.343 486.615 145.496 487.162 143.65 488.256C141.872 489.282 139.958 491.094 137.907 493.692V574H109.702V465.077H133.496L135.65 475.641C139.206 470.786 142.727 467.231 146.214 464.974C149.702 462.65 153.77 461.487 158.419 461.487C162.659 461.487 166.18 462.547 168.984 464.667C171.855 466.786 173.907 470.034 175.137 474.41C182.59 465.795 190.59 461.487 199.137 461.487ZM308.338 574C303.415 588.701 296.099 599.744 286.389 607.128C276.68 614.581 263.654 618.752 247.312 619.641L243.62 596.769C250.731 595.88 256.475 594.547 260.851 592.769C265.295 591.06 268.851 588.701 271.518 585.692C274.253 582.752 276.646 578.855 278.697 574H267.62L233.056 465.077H267.312L288.441 553.282L311.415 465.077H344.646L308.338 574ZM445.231 461.487C453.026 461.487 458.77 464.017 462.462 469.077C466.154 474.137 468 482.239 468 493.385V574H440.206V497.077C440.206 493.179 439.829 490.479 439.077 488.974C438.325 487.402 436.889 486.615 434.77 486.615C432.923 486.615 431.077 487.162 429.231 488.256C427.453 489.282 425.539 491.094 423.488 493.692V574H400.718V497.077C400.718 493.179 400.342 490.479 399.59 488.974C398.838 487.402 397.402 486.615 395.282 486.615C393.436 486.615 391.59 487.162 389.744 488.256C387.966 489.282 386.052 491.094 384 493.692V574H355.795V465.077H379.59L381.744 475.641C385.3 470.786 388.821 467.231 392.308 464.974C395.795 462.65 399.864 461.487 404.513 461.487C408.753 461.487 412.274 462.547 415.077 464.667C417.949 466.786 420 470.034 421.231 474.41C428.684 465.795 436.684 461.487 445.231 461.487ZM579.458 542.615C579.458 546.65 580.005 549.624 581.099 551.538C582.193 553.385 584.039 554.786 586.637 555.744L579.97 577.077C573.338 576.462 567.834 575.026 563.458 572.769C559.15 570.444 555.765 567.094 553.304 562.718C549.269 567.573 544.039 571.265 537.611 573.795C531.252 576.256 524.517 577.487 517.406 577.487C510.022 577.487 503.526 576.051 497.919 573.179C492.381 570.239 488.107 566.205 485.099 561.077C482.09 555.88 480.586 549.932 480.586 543.231C480.586 535.436 482.671 528.769 486.842 523.231C491.013 517.692 497.064 513.487 504.996 510.615C512.928 507.675 522.466 506.205 533.611 506.205H548.278V502.103C548.278 490.957 541.099 485.385 526.74 485.385C523.116 485.385 518.534 485.897 512.996 486.923C507.526 487.949 502.158 489.35 496.893 491.128L489.406 469.59C496.244 466.991 503.458 465.009 511.047 463.641C518.637 462.205 525.577 461.487 531.868 461.487C547.868 461.487 559.799 464.735 567.663 471.231C575.526 477.726 579.458 487.299 579.458 499.949V542.615ZM528.586 554.308C532.278 554.308 536.005 553.248 539.765 551.128C543.526 548.94 546.364 546 548.278 542.308V524.667H540.278C531.389 524.667 524.791 526.034 520.483 528.769C516.175 531.504 514.022 535.573 514.022 540.974C514.022 545.214 515.287 548.496 517.817 550.821C520.415 553.145 524.005 554.308 528.586 554.308ZM667.633 539.744C667.633 543.983 668.829 547.094 671.222 549.077C673.684 550.991 677.171 551.949 681.684 551.949C686.607 551.949 691.735 550.855 697.069 548.667L704.863 570.308C695.769 575.094 685.274 577.487 673.376 577.487C660.59 577.487 651.017 573.829 644.658 566.513C638.368 559.128 635.222 548.872 635.222 535.744V443.949H603.12V421.795H667.633V539.744ZM790.679 539.744C790.679 543.983 791.876 547.094 794.269 549.077C796.731 550.991 800.218 551.949 804.731 551.949C809.654 551.949 814.782 550.855 820.115 548.667L827.91 570.308C818.816 575.094 808.321 577.487 796.423 577.487C783.637 577.487 774.064 573.829 767.705 566.513C761.415 559.128 758.269 548.872 758.269 535.744V443.949H726.167V421.795H790.679V539.744ZM904.085 461.487C915.094 461.487 924.564 463.88 932.496 468.667C940.496 473.385 946.581 480.085 950.752 488.769C954.923 497.453 957.008 507.607 957.008 519.231C957.008 531.333 954.889 541.761 950.649 550.513C946.478 559.197 940.427 565.863 932.496 570.513C924.564 575.162 915.094 577.487 904.085 577.487C893.008 577.487 883.504 575.197 875.573 570.615C867.641 566.034 861.59 559.402 857.419 550.718C853.248 541.966 851.162 531.538 851.162 519.436C851.162 507.88 853.248 497.761 857.419 489.077C861.658 480.325 867.743 473.556 875.675 468.769C883.675 463.915 893.145 461.487 904.085 461.487ZM904.085 485.385C897.453 485.385 892.53 488.12 889.316 493.59C886.171 499.06 884.598 507.675 884.598 519.436C884.598 531.402 886.171 540.12 889.316 545.59C892.461 550.991 897.384 553.692 904.085 553.692C910.786 553.692 915.709 550.957 918.855 545.487C922 540.017 923.573 531.265 923.573 519.231C923.573 507.538 921.966 498.991 918.752 493.59C915.607 488.12 910.718 485.385 904.085 485.385ZM1037.7 551.949C1041.87 551.949 1045.87 551.162 1049.7 549.59C1053.59 547.949 1057.7 545.624 1062 542.615L1076.47 563.128C1071.34 567.504 1065.32 570.991 1058.41 573.59C1051.51 576.188 1044.02 577.487 1035.95 577.487C1024.4 577.487 1014.38 575.094 1005.9 570.308C997.423 565.521 990.927 558.821 986.414 550.205C981.901 541.59 979.645 531.607 979.645 520.256C979.645 508.906 981.97 498.786 986.619 489.897C991.269 481.009 997.867 474.068 1006.41 469.077C1015.03 464.017 1025.08 461.487 1036.57 461.487C1044.7 461.487 1051.99 462.615 1058.41 464.872C1064.91 467.128 1070.93 470.547 1076.47 475.128L1062.41 494.615C1054.55 489.145 1046.38 486.41 1037.9 486.41C1030.17 486.41 1024.16 489.111 1019.85 494.513C1015.61 499.915 1013.49 508.496 1013.49 520.256C1013.49 531.607 1015.65 539.744 1019.95 544.667C1024.26 549.521 1030.17 551.949 1037.7 551.949ZM1142.08 502.205C1142.08 513.692 1143.27 523.949 1145.67 532.974C1148.06 542 1152.06 550.923 1157.67 559.744C1163.27 568.564 1171.07 578.41 1181.05 589.282L1162.18 606.308C1150.83 596.53 1141.26 586.479 1133.46 576.154C1125.73 565.829 1119.75 554.581 1115.51 542.41C1111.34 530.171 1109.26 516.769 1109.26 502.205C1109.26 487.641 1111.34 474.274 1115.51 462.103C1119.75 449.863 1125.73 438.581 1133.46 428.256C1141.26 417.932 1150.83 407.88 1162.18 398.103L1181.05 415.128C1171.61 425.385 1164.06 434.991 1158.38 443.949C1152.78 452.838 1148.64 461.966 1145.97 471.333C1143.38 480.632 1142.08 490.923 1142.08 502.205ZM1281.33 502.205C1281.33 490.923 1280 480.632 1277.33 471.333C1274.73 461.966 1270.59 452.838 1264.92 443.949C1259.31 434.991 1251.79 425.385 1242.35 415.128L1261.23 398.103C1272.58 407.88 1282.11 417.932 1289.84 428.256C1297.64 438.581 1303.62 449.863 1307.79 462.103C1312.03 474.274 1314.15 487.641 1314.15 502.205C1314.15 516.769 1312.03 530.171 1307.79 542.41C1303.62 554.581 1297.64 565.829 1289.84 576.154C1282.11 586.479 1272.58 596.53 1261.23 606.308L1242.35 589.282C1252.34 578.41 1260.13 568.564 1265.74 559.744C1271.35 550.923 1275.35 542 1277.74 532.974C1280.13 523.949 1281.33 513.692 1281.33 502.205Z" />
</svg>
