<svg viewBox="0 0 1440 1024" fill="none" xmlns="http://www.w3.org/2000/svg">
<path d="M606.507 574L597.173 500.769L587.43 574H552.25L536.148 465.077H565.789L572.866 553.795L584.353 478.821H611.635L621.891 553.795L629.173 465.077H657.789L642.301 574H606.507ZM770.887 567.641C766.306 570.65 760.972 573.043 754.887 574.821C748.87 576.598 742.306 577.487 735.195 577.487C721.246 577.487 710.75 573.932 703.707 566.821C696.665 559.709 693.143 549.726 693.143 536.872V487.436H670.271V465.077H693.143V441.487L725.553 437.59V465.077H760.63L757.451 487.436H725.553V536.872C725.553 542.274 726.75 546.137 729.143 548.462C731.605 550.786 735.571 551.949 741.041 551.949C747.878 551.949 754.237 550.308 760.118 547.026L770.887 567.641ZM865.216 418.41C879.37 418.41 891.814 420.701 902.549 425.282L893.626 446.41C886.378 443.675 878.583 442.308 870.241 442.308C863.814 442.308 859.199 443.47 856.395 445.795C853.66 448.12 852.293 451.983 852.293 457.385V471.949H887.78L884.19 494.41H852.293V574H820.088V494.41H797.216V471.949H820.088V456.154C820.088 448.906 821.797 442.444 825.216 436.769C828.703 431.026 833.831 426.547 840.6 423.333C847.438 420.051 855.643 418.41 865.216 418.41Z" />
</svg>
