<svg width="313" height="312" viewBox="0 0 313 312" fill="none" xmlns="http://www.w3.org/2000/svg">
<path d="M305.2 177.507C302 176.707 298.8 177.507 296 179.507C285.6 188.307 273.6 195.507 260.4 200.307C248 205.107 234.4 207.507 220 207.507C187.6 207.507 158 194.307 136.8 173.107C115.6 151.907 102.4 122.307 102.4 89.9066C102.4 76.3066 104.8 63.1066 108.8 51.1066C113.2 38.3066 119.6 26.7066 128 16.7066C131.6 12.3066 130.8 5.90656 126.4 2.30656C123.6 0.306563 120.4 -0.493437 117.2 0.306563C83.2 9.50656 53.6 29.9066 32.4 57.1066C12 83.9066 0 117.107 0 153.107C0 196.707 17.6 236.307 46.4 265.107C75.2 293.907 114.4 311.507 158.4 311.507C195.2 311.507 229.2 298.707 256.4 277.507C284 255.907 304 225.107 312.4 189.907C314 184.307 310.8 178.707 305.2 177.507Z" fill="#F5F6FA"/>
</svg>
