<?xml version="1.0" standalone="no"?>
<!DOCTYPE svg PUBLIC "-//W3C//DTD SVG 20010904//EN"
 "http://www.w3.org/TR/2001/REC-SVG-20010904/DTD/svg10.dtd">
<svg version="1.0" xmlns="http://www.w3.org/2000/svg"
 viewBox="0 0 1024.000000 1024.000000"
 preserveAspectRatio="xMidYMid meet" className='interest-svg'>

<g transform="translate(0.000000,1024.000000) scale(0.100000,-0.100000)"
>
<path d="M4760 10229 c-1719 -129 -3246 -1091 -4092 -2579 -793 -1395 -884
-3089 -246 -4565 630 -1457 1908 -2544 3445 -2929 829 -208 1677 -208 2506 0
1537 385 2815 1472 3445 2929 451 1042 543 2195 263 3301 -283 1122 -957 2132
-1886 2828 -797 598 -1726 942 -2740 1016 -163 12 -529 11 -695 -1z m80 -357
c0 -5 -42 -96 -94 -203 -103 -213 -229 -521 -337 -827 -38 -108 -73 -206 -78
-218 -6 -15 -25 -24 -67 -33 -89 -20 -299 -93 -436 -152 -400 -170 -784 -410
-1169 -729 -161 -134 -525 -499 -663 -665 -282 -339 -551 -735 -700 -1032
-243 -486 -397 -1056 -467 -1733 -26 -251 -22 -925 6 -1200 5 -44 4 -43 -40
45 -81 163 -188 448 -254 675 -179 621 -231 1279 -150 1915 184 1449 1017
2732 2264 3485 649 393 1373 619 2163 678 12 1 22 -2 22 -6z m825 -17 c1046
-123 2018 -584 2768 -1315 262 -255 444 -474 642 -770 146 -219 231 -368 336
-585 399 -830 549 -1769 428 -2690 -63 -476 -207 -970 -406 -1388 -31 -65 -60
-116 -64 -115 -4 2 -46 61 -94 133 -185 275 -418 571 -668 848 l-80 88 37 147
c37 152 66 317 88 507 20 174 17 773 -5 955 -126 1020 -531 1944 -1213 2765
-138 166 -462 490 -629 629 -388 323 -787 573 -1200 751 -60 26 -112 49 -114
51 -8 7 44 4 174 -11z m-1467 -1722 c-177 -611 -302 -1200 -403 -1898 -19
-137 -38 -259 -40 -271 -3 -12 -81 -81 -192 -170 -496 -393 -836 -690 -1204
-1051 -91 -90 -168 -163 -171 -163 -10 0 -57 208 -78 345 -106 701 15 1399
345 1981 389 684 975 1187 1660 1424 172 60 163 79 83 -197z m2049 -227 c910
-312 1656 -995 1982 -1814 84 -210 152 -483 183 -732 20 -157 16 -603 -6 -760
-17 -121 -53 -307 -63 -323 -3 -5 -127 112 -277 260 -535 529 -1002 946 -1419
1266 -92 71 -159 130 -162 142 -2 11 -20 128 -40 260 -105 700 -207 1210 -320
1603 -19 68 -35 128 -35 133 0 16 23 10 157 -35z m-872 -1816 c349 -94 610
-354 722 -716 25 -83 27 -102 27 -269 1 -166 -1 -188 -26 -277 -82 -294 -250
-500 -510 -623 -133 -63 -233 -85 -409 -92 -175 -7 -275 6 -411 51 -250 84
-475 294 -577 541 -64 154 -84 252 -84 425 0 135 3 167 25 250 101 377 371
634 758 721 119 26 368 21 485 -11z m91 -2699 c659 -244 1040 -373 1436 -486
146 -42 166 -50 155 -63 -25 -31 -225 -198 -331 -277 -435 -322 -909 -525
-1406 -602 -162 -25 -705 -25 -895 0 -672 90 -1222 334 -1589 706 -44 44 -78
82 -75 84 2 2 100 27 218 56 512 125 1120 325 1931 635 107 41 198 75 201 76
4 0 164 -58 355 -129z m-2931 -732 c118 -122 374 -324 600 -471 1368 -893
3136 -1067 4675 -461 405 159 821 392 1138 636 60 46 99 70 92 57 -6 -12 -58
-83 -115 -158 -587 -780 -1392 -1358 -2315 -1662 -732 -242 -1521 -302 -2285
-174 -1261 210 -2385 926 -3129 1992 -32 46 -57 85 -55 86 2 2 110 11 239 21
384 27 673 69 968 140 76 18 139 33 142 34 3 0 24 -18 45 -40z"/>
</g>
</svg>
