<svg viewBox="0 0 162 146" xmlns="http://www.w3.org/2000/svg">
<path d="M59 2C57.9 3.1 57 4.9 57 6C57 8.7 61.3 13 64 13C66.9 13 70 9.5 70 6.2C70 0.500001 63.1 -2.1 59 2Z" />
<path d="M106.6 6.59994C102.9 10.3999 103 15.1999 107 19.1999C109.7 21.7999 110.6 22.1999 113.7 21.6999C115.7 21.2999 118.2 20.1999 119.2 19.1999C120.2 18.1999 121.3 15.6999 121.7 13.6999C122.2 10.5999 121.8 9.69994 119.2 6.99994C115.2 2.99994 110.4 2.89994 106.6 6.59994Z" />
<path d="M29.4001 26.7C26.3001 30 26.2001 30.1 28.4001 31.2C29.5001 31.8 31.0001 33 31.6001 33.9C32.6001 35.2 33.2001 35 36.0001 32C38.1001 29.7 38.8001 28.4 37.9001 28.1C37.2001 27.9 35.7001 26.7 34.6001 25.5L32.5001 23.3L29.4001 26.7Z" />
<path d="M68.7 26.5C47.9 32.2 32.6 50.3 30.4 71.5L29.8 77.7L22.3 82.6C11.1 89.9 8.40005 96 14.2 100.3C16.4 101.9 18.9 102.4 27.3 102.8L37.6 103.2L40 106.7C50 121.3 71.6 130.1 89.9001 127C113.5 123 132.9 100.8 133 77.6C133 74.9 133.7 74.1 138.8 71.3C147.5 66.5 153 60.8 153 56.5C153 51.4 149.2 49.7 136 49.2L125.5 48.8L119.2 41.9C108.6 30.5 95.9001 24.9 80.9 25.1C76.8 25.1 71.3 25.8 68.7 26.5ZM69 46.9C71 50.8 70.2 52.9 66.5 53.6C61.2 54.6 58.7 51.6 60.6 46.6C61.5 44.2 67.7 44.5 69 46.9ZM121.9 49.8C123.6 52.5 125 54.9 125 55.1C125 55.4 121.9 55.4 118 55.2C108.3 54.6 106.5 55.3 103.5 60.5C100.6 65.4 98.1001 66.7 94.9001 65C92.3001 63.6 89.6 64 80.6 67.3C73.4 70 71 69.9 71 67C71 64.1 74.3 62.1 82.5 60.1C86.8 59 90.8001 57.6 91.3001 57.1C93.0001 55.4 91.0001 54.2 86.1 53.8C80.4 53.4 78.4 50.8 81.8 48C83.8 46.4 85.3 46.2 92.3001 46.6C96.8001 46.9 103.2 46.7 106.5 46.2C118.1 44.4 118.4 44.5 121.9 49.8ZM146 53.3C155.9 56.7 145.1 66.4 118.6 77.9C77.1 96 16.2 106.3 14.2 95.6C13.7 93.4 19 87.7 24.7 84.3C30.4 81 32.2 82.4 27 86.1C22 89.8 21 91.8 23.6 93.7C29.3 98.1 75.4 88.1 110.7 74.9C132.7 66.7 141.4 61.7 140.8 57.7C140.5 55.8 139.8 55.5 134.3 55.2C130.1 55 128 54.5 127.6 53.5C127.2 52.3 128.4 52 134.8 52.1C139 52.1 144.1 52.6 146 53.3ZM137 58.8C137 59.2 135.7 60.4 134 61.3C132.4 62.3 131 62.7 131 62.1C131 61.6 130.7 60.5 130.4 59.6C129.9 58.3 130.5 58 133.4 58C135.4 58 137 58.4 137 58.8ZM56 61.5C57 62.7 57 63.3 55.9 64.6C54.9 65.8 39.6 74.2 33.6 76.9C32.8 77.2 33.6 67.1 34.7 64.3C36 60.9 53.5 58.5 56 61.5ZM32 90.1C32 91.5 31.3 92 29 92C25.4 92 25.2 90.8 28.3 88.7C30.9 87 32 87.4 32 90.1ZM128 89.7C128 90 126.6 93.4 124.9 97.2C121.8 103.8 120.8 104.6 117.6 103.4C115.3 102.5 115.6 100.6 118.5 97.2C119.9 95.5 121 93.7 121 93.2C121 91.5 124 89 126.1 89C127.1 89 128 89.3 128 89.7ZM100.1 103.6C101.7 105.5 100.4 108 96.9001 109.7C68.6 123.5 67.8 123.6 59.3 119.1C56.1 117.3 52.4 115 51.1 114C49.1 112.3 49 111.8 50.1 110.4C51.1 109.1 52.3 109 55.5 109.6C57.7 110 62.4 110.4 66 110.4C71.8 110.5 73.2 110.1 77.7 107.2C84 103.1 87 102.2 93.6001 102.1C97.2001 102 99.2001 102.5 100.1 103.6Z" />
<path d="M148.5 34.4L145.4 37.5L148.5 40.5L151.5 43.5L154.8 40.3C157.8 37.3 157.9 37.1 156 36.5C154.9 36.2 154 35.5 154 35.1C154 34.7 153.4 33.7 152.8 32.8C151.6 31.4 151.2 31.6 148.5 34.4Z" />
<path d="M8.40003 53.4C7.40003 55.3 5.30002 57.4 3.40002 58.4C-0.899975 60.4 -0.899975 61.6 3.30002 63.6C5.20002 64.5 7.50003 66.7 8.50003 68.6C9.50003 70.5 10.7 72 11.1 72C11.5 72 12.8 70.5 14 68.6C15.1 66.7 17.7 64.2 19.7 63L23.4 60.8L19.6 58.5C17.5 57.2 15 54.8 13.9 53.1C11.5 49.1 10.4 49.2 8.40003 53.4Z" />
<path d="M150.2 95.7C149.5 96 148.3 97.5 147.5 99.1C144.6 104.6 148.1 110 154.6 110C160 110 163.2 104.2 160.6 99.2C158.6 95.3 154.5 93.9 150.2 95.7Z" />
<path d="M34.5 128.5C31.6 131.3 31.4 132.7 33.6 135.8C35.2 138.2 38.9 138.7 42.1 137C44.9 135.5 44.7 129.6 41.8 127.6C38.7 125.4 37.3 125.6 34.5 128.5Z" />
<path d="M113.5 136C112.4 136.4 110.3 136.6 108.9 136.3C106.4 135.8 106.4 136 106.4 140.8L106.5 145.7L111.7 145.6C116.6 145.6 116.9 145.4 116.3 143.5C116 142.4 115.8 140 115.9 138.2C116 136.5 115.9 135 115.8 135.1C115.6 135.1 114.6 135.5 113.5 136Z" />
</svg>
