<?xml version="1.0" standalone="no"?>
<!DOCTYPE svg PUBLIC "-//W3C//DTD SVG 20010904//EN"
 "http://www.w3.org/TR/2001/REC-SVG-20010904/DTD/svg10.dtd">
<svg version="1.0" xmlns="http://www.w3.org/2000/svg"
 width="512.000000pt" height="512.000000pt" viewBox="0 0 512.000000 512.000000"
 preserveAspectRatio="xMidYMid meet">

<g transform="translate(0.000000,512.000000) scale(0.100000,-0.100000)"
fill="#000000" stroke="none">
<path d="M853 4942 c-63 -22 -115 -61 -154 -115 -49 -68 -59 -120 -59 -323 l0
-183 -202 -3 c-199 -3 -204 -4 -260 -31 -65 -32 -121 -89 -152 -156 l-21 -46
0 -1845 0 -1845 21 -46 c31 -67 87 -124 152 -156 l57 -28 565 0 565 0 57 28
c65 32 121 89 152 156 20 44 21 61 24 488 l3 443 1642 2 1642 3 46 21 c67 31
124 87 156 152 l28 57 0 1605 0 1605 -28 57 c-32 65 -89 121 -156 152 l-46 21
-1990 2 c-1890 2 -1993 2 -2042 -15z m3757 -333 c70 -33 126 -89 159 -159 l26
-55 0 -1195 0 -1195 -26 -55 c-33 -70 -89 -126 -159 -159 l-55 -26 -1477 -3
-1478 -2 -2 1162 -3 1163 -21 46 c-31 67 -87 124 -152 156 -56 27 -61 28 -261
31 l-203 4 6 41 c15 93 85 195 161 235 81 42 34 41 1770 39 l1660 -2 55 -26z
m-3330 -769 l0 -160 -480 0 -480 0 0 160 0 160 480 0 480 0 0 -160z m0 -640
l0 -160 -480 0 -480 0 0 160 0 160 480 0 480 0 0 -160z m-730 -1782 c48 -25
90 -89 90 -138 0 -49 -42 -113 -90 -137 -24 -13 -56 -23 -70 -23 -49 0 -113
42 -137 90 -29 56 -29 84 0 140 24 48 88 90 137 90 14 0 46 -10 70 -22z"/>
<path d="M2500 1109 c-29 -12 -67 -46 -83 -74 -6 -11 -14 -83 -17 -160 -5
-125 -9 -146 -33 -200 -16 -33 -40 -73 -55 -89 -15 -16 -125 -102 -244 -192
-127 -96 -219 -172 -223 -185 -16 -50 -45 -49 1035 -49 1080 0 1051 -1 1035
49 -4 13 -96 89 -223 185 -119 90 -229 176 -244 192 -15 16 -39 56 -55 89 -24
54 -28 74 -33 202 -5 153 -11 171 -74 217 -26 20 -41 21 -394 23 -230 1 -376
-2 -392 -8z"/>
</g>
</svg>
