<?xml version="1.0" standalone="no"?>
<!DOCTYPE svg PUBLIC "-//W3C//DTD SVG 20010904//EN"
 "http://www.w3.org/TR/2001/REC-SVG-20010904/DTD/svg10.dtd">
<svg
    version="1.0"
    xmlns="http://www.w3.org/2000/svg"
    viewBox="0 0 1764.000000 1871.000000"
    preserveAspectRatio="xMidYMid meet"
  >
    <g
      transform="translate(0.000000,1871.000000) scale(0.100000,-0.100000)"
      stroke="none"
    >
      <path
        d="M9225 18684 c-44 -7 -204 -32 -355 -54 -337 -50 -520 -87 -722 -144
 -285 -82 -496 -176 -694 -307 -231 -153 -332 -303 -359 -532 l-7 -58 -72 -46
 c-39 -25 -101 -70 -139 -99 -95 -75 -145 -80 -248 -29 l-47 24 -22 -53 c-37
 -91 -107 -202 -172 -271 -36 -39 -115 -102 -192 -155 -211 -144 -351 -254
 -350 -276 1 -10 9 -48 19 -84 64 -237 -112 -740 -289 -824 -43 -20 -106 -21
 -153 -1 -20 8 -38 13 -41 10 -9 -9 16 -202 29 -223 15 -25 7 -37 -62 -92 l-47
 -37 46 -34 c25 -19 55 -49 66 -67 17 -31 41 -121 33 -129 -2 -2 -20 4 -40 12
 -52 22 -94 19 -108 -6 -6 -11 -15 -67 -20 -122 -18 -194 -42 -232 -160 -251
 l-36 -6 -6 -99 c-13 -193 -71 -455 -142 -642 -107 -280 -305 -610 -529 -884
 -51 -62 -66 -89 -70 -120 -18 -167 -41 -302 -76 -437 -42 -165 -152 -528 -193
 -637 l-24 -64 -12 36 c-24 71 -75 99 -322 171 -61 18 -109 54 -109 84 0 10 16
 44 35 76 l35 59 -47 -7 c-287 -39 -380 -31 -550 50 -51 24 -104 44 -117 44
 -19 0 -27 8 -37 38 -24 76 -68 149 -123 202 -73 71 -96 127 -103 247 -6 91 -7
 94 -32 99 -70 16 -170 48 -218 71 -91 43 -94 78 -12 167 l51 56 -38 16 c-48
 20 -94 8 -157 -40 -61 -47 -83 -52 -98 -25 -15 29 -5 97 19 121 11 12 43 22
 83 28 50 7 69 15 86 35 27 31 32 95 8 95 -33 0 -206 -62 -277 -100 -51 -26
 -89 -40 -115 -40 -42 0 -107 34 -101 53 6 18 93 63 177 91 83 29 134 63 156
 107 19 36 13 49 -23 49 -57 0 -221 53 -327 104 -194 95 -343 224 -405 350 -58
 118 -50 286 20 434 34 72 30 78 -46 69 -31 -3 -55 -13 -73 -31 -15 -14 -32
 -26 -37 -26 -14 0 -44 33 -44 47 0 17 78 59 151 83 69 22 110 55 128 103 19
 50 16 55 -32 46 -101 -18 -133 6 -383 288 -196 219 -221 233 -445 240 -125 5
 -157 2 -230 -16 -129 -32 -203 -73 -290 -160 -125 -125 -173 -252 -172 -456 1
 -270 111 -550 321 -817 l45 -58 67 0 c51 0 78 -6 118 -26 139 -69 208 -255
 140 -376 l-26 -47 51 -32 c28 -17 104 -55 168 -84 165 -74 206 -99 240 -153
 35 -55 38 -117 10 -191 l-18 -49 76 0 c79 -1 123 -12 155 -40 27 -25 65 -106
 76 -162 25 -130 54 -153 156 -122 52 16 70 18 76 9 20 -30 27 -88 21 -164 -8
 -105 4 -135 64 -164 30 -14 50 -19 58 -13 62 46 62 46 93 30 17 -9 51 -34 76
 -56 60 -51 116 -67 167 -47 l37 14 -29 -55 c-33 -62 -33 -75 8 -209 14 -47 23
 -93 19 -106 -3 -14 -24 -43 -46 -66 -22 -22 -40 -42 -40 -44 0 -1 42 -2 93 -3
 142 -2 278 -35 408 -100 90 -45 129 -90 129 -152 0 -29 -8 -59 -20 -79 l-20
 -33 145 0 c80 0 145 -2 145 -4 0 -2 -7 -17 -15 -32 -28 -55 -18 -71 87 -137
 94 -59 109 -115 58 -213 -19 -35 -27 -61 -21 -67 18 -18 125 -20 189 -3 116
 29 162 17 162 -45 0 -32 -60 -201 -135 -378 -58 -137 -101 -188 -188 -220 -32
 -11 -68 -21 -81 -21 -41 0 -36 -13 14 -36 36 -17 54 -33 67 -58 20 -44 11
 -106 -42 -270 -72 -226 -70 -329 10 -413 l42 -43 -174 0 c-146 0 -173 -2 -173
 -15 0 -23 49 -251 76 -350 42 -157 32 -225 -53 -352 -22 -32 -56 -86 -77 -121
 l-38 -62 27 -32 c14 -17 41 -58 58 -92 30 -57 32 -67 32 -166 0 -92 -6 -128
 -48 -290 -45 -178 -67 -312 -67 -412 0 -27 -4 -48 -10 -48 -5 0 -32 20 -60 45
 -50 45 -76 53 -127 39 -16 -5 -28 -24 -47 -77 -37 -106 -38 -119 -17 -189 17
 -54 29 -117 45 -225 3 -19 -10 -31 -71 -69 -133 -83 -235 -192 -269 -286 -8
 -24 -33 -130 -55 -236 -22 -106 -43 -200 -46 -208 -3 -8 8 -1 25 16 39 39 78
 39 157 1 66 -31 115 -80 115 -114 0 -20 -4 -22 -45 -19 -112 9 -246 -149 -177
 -211 29 -26 72 -39 88 -26 26 21 24 4 -3 -37 -100 -149 -323 -358 -430 -403
 -29 -12 -30 -14 -31 -84 0 -50 -10 -101 -31 -169 -59 -190 -80 -356 -62 -491
 15 -114 39 -165 108 -239 l58 -61 -55 5 c-45 4 -93 20 -162 56 -13 6 -9 -135
 6 -248 29 -213 76 -353 161 -481 29 -43 50 -79 46 -79 -37 1 -142 25 -173 41
 -21 11 -44 17 -49 13 -19 -12 -3 -78 31 -126 18 -25 30 -51 26 -56 -3 -6 -31
 -14 -61 -17 -30 -4 -55 -9 -55 -11 0 -2 9 -26 20 -53 22 -57 35 -141 23 -156
 -6 -8 -107 -93 -193 -163 -3 -2 4 -8 14 -14 10 -6 36 -26 57 -45 34 -31 39
 -41 39 -79 0 -24 -14 -86 -30 -136 -36 -108 -48 -218 -31 -271 7 -19 30 -56
 51 -80 44 -50 47 -64 24 -113 -20 -42 -70 -74 -115 -74 -92 0 -148 -40 -156
 -113 -5 -40 -3 -45 18 -50 13 -4 56 -7 95 -7 68 0 94 -10 94 -36 0 -7 -28 -28
 -61 -46 -34 -18 -82 -51 -107 -74 l-46 -41 72 -42 c40 -23 88 -56 107 -72 l34
 -30 -36 -50 c-49 -69 -54 -121 -19 -188 14 -28 26 -60 26 -72 0 -32 -36 -84
 -80 -117 l-40 -29 40 -12 c59 -17 100 -56 100 -94 0 -19 -30 -98 -71 -188
 l-71 -157 37 -58 c46 -72 126 -150 208 -205 132 -89 172 -147 164 -238 -3 -31
 -8 -65 -12 -76 -5 -18 1 -22 60 -33 85 -16 175 -61 226 -115 43 -43 98 -142
 119 -212 l12 -41 216 4 c251 5 273 10 303 76 11 24 19 64 19 96 l0 55 -98 0
 c-86 1 -103 4 -150 28 -125 65 -224 224 -266 430 -23 112 -21 323 4 450 31
 155 100 279 187 338 l21 15 -39 79 c-21 44 -46 107 -54 140 -25 95 -30 367
 -12 585 30 341 40 534 35 678 -5 134 -4 142 14 142 10 0 29 7 42 15 28 19 93
 110 129 182 37 72 229 634 277 809 58 214 62 245 50 373 -8 81 -8 141 0 222
 20 202 67 361 347 1174 62 179 87 276 108 412 6 36 13 46 55 73 129 83 215
 213 350 532 108 252 182 379 283 485 l58 61 -43 7 c-76 13 -129 48 -172 116
 -16 25 -15 27 69 150 46 68 124 176 174 239 148 189 180 278 188 528 4 100 10
 155 17 157 149 38 182 67 280 242 l68 121 66 -18 c120 -34 265 -103 381 -184
 137 -94 291 -264 408 -451 90 -142 183 -392 183 -491 0 -32 21 -64 42 -64 26
 0 167 -65 230 -105 88 -58 148 -118 222 -225 77 -111 220 -257 315 -322 42
 -28 79 -54 83 -57 4 -4 -6 -33 -22 -65 -37 -73 -39 -126 -5 -206 31 -73 31
 -116 1 -203 l-23 -67 55 -31 c181 -102 244 -249 245 -571 l1 -148 148 0 c112
 0 148 -3 148 -12 0 -7 7 -60 15 -118 18 -132 18 -227 1 -310 -15 -70 -11 -80
 31 -80 35 0 77 19 99 47 16 20 32 27 72 31 54 5 65 -4 36 -29 -8 -7 -22 -25
 -30 -41 -17 -32 -7 -60 26 -78 28 -15 26 -63 -5 -108 -14 -20 -25 -39 -25 -43
 0 -3 33 -14 73 -24 39 -9 96 -26 124 -37 67 -25 75 -49 44 -133 -12 -33 -24
 -67 -27 -75 -4 -11 12 -24 53 -44 106 -51 221 -135 340 -249 117 -112 186
 -165 295 -226 l56 -32 9 58 c4 32 8 148 8 258 -1 228 -14 337 -117 960 -65
 396 -80 585 -61 743 l10 74 -97 96 c-120 120 -179 207 -292 433 -127 255 -238
 395 -421 530 -67 49 -75 58 -58 64 34 10 80 55 101 96 11 21 20 40 20 43 0 2
 -17 10 -37 16 -74 24 -173 83 -216 129 -62 66 -97 130 -139 256 l-36 110 -109
 5 c-82 4 -115 10 -135 23 -34 23 -38 36 -43 134 -5 86 -33 184 -73 253 -66
 116 -253 357 -577 747 -424 509 -650 824 -781 1088 -134 273 -147 412 -49 554
 l35 51 -43 0 c-92 0 -119 57 -73 156 30 65 72 112 142 160 50 34 54 39 34 42
 -33 5 -141 -17 -167 -34 -37 -23 -53 -17 -72 29 -41 92 -46 86 74 89 l107 3
 48 160 c114 374 263 787 405 1120 96 224 367 813 660 1431 l237 499 -7 69 c-5
 57 -28 151 -51 211 -4 9 11 14 48 17 76 6 124 33 168 93 41 56 89 85 173 106
 45 11 47 13 47 48 0 34 -13 66 -61 151 -10 19 -19 51 -19 71 0 35 2 37 46 48
 69 18 115 44 160 93 112 122 180 313 278 782 25 119 59 270 77 336 l31 120 64
 35 c134 75 226 164 346 335 60 86 175 194 265 250 49 30 71 50 68 60 -30 102
 -30 100 -10 138 25 44 71 68 326 167 210 81 295 125 365 189 l49 44 0 73 c0
 59 -5 85 -27 132 -20 42 -23 57 -13 57 26 0 63 -19 88 -44 21 -21 36 -26 78
 -26 48 0 51 1 45 23 -14 52 -18 164 -6 207 14 51 52 91 156 163 38 26 89 66
 114 87 51 45 50 46 -75 24z"
      />
      <path
        d="M12720 18024 c-282 -38 -540 -127 -731 -252 -42 -27 -252 -196 -467
 -376 -216 -179 -392 -324 -392 -322 0 2 7 21 16 42 11 26 14 54 11 86 -7 53
 -40 126 -62 135 -30 11 -66 -9 -98 -53 -30 -43 -32 -44 -41 -22 -5 13 -10 83
 -11 156 -2 122 -4 135 -23 155 -12 11 -23 19 -25 16 -2 -2 -18 -27 -35 -55
 -18 -28 -48 -68 -68 -88 -33 -34 -78 -55 -91 -43 -12 13 10 59 58 122 28 37
 49 69 46 72 -11 10 -147 18 -217 11 -41 -4 -199 -34 -350 -67 -359 -78 -507
 -99 -578 -82 -38 8 -56 17 -108 56 -18 13 -75 -43 -177 -175 -169 -218 -273
 -300 -385 -300 -60 0 -96 16 -153 67 l-39 35 0 -41 c0 -57 12 -75 73 -114 79
 -51 82 -57 56 -109 -45 -88 -109 -166 -183 -223 -19 -14 -84 -48 -145 -75
 -117 -51 -198 -103 -226 -146 -22 -34 -16 -38 34 -23 31 9 47 9 66 1 22 -10
 25 -18 25 -65 0 -76 -21 -147 -106 -361 -77 -192 -88 -247 -52 -254 9 -2 19 5
 23 18 9 28 59 52 102 48 34 -3 36 -6 58 -66 38 -105 93 -175 168 -213 47 -25
 200 -65 297 -78 360 -50 467 -74 542 -122 52 -34 112 -95 146 -151 l23 -37 36
 16 c105 43 273 20 438 -61 151 -75 263 -181 331 -316 34 -68 44 -190 21 -257
 l-14 -42 28 -6 c43 -10 86 3 126 38 30 26 44 31 86 32 l51 0 1 -70 c1 -73 16
 -114 75 -200 48 -70 70 -123 76 -182 l6 -58 -35 -13 c-45 -16 -83 -61 -97
 -114 -10 -34 -7 -65 14 -182 14 -77 31 -190 38 -251 6 -60 15 -114 18 -118 13
 -15 107 91 143 161 39 74 58 134 146 460 73 268 107 358 170 454 57 86 102
 131 153 152 53 22 160 20 243 -5 106 -31 108 -31 117 19 4 27 3 57 -5 80 -10
 30 -19 38 -53 48 -66 19 -82 32 -93 71 -12 44 -6 54 53 82 61 30 139 28 191
 -4 66 -40 127 -30 177 30 16 19 15 21 -28 58 -39 34 -44 44 -44 79 0 36 6 47
 53 93 65 65 140 95 252 102 59 4 90 1 116 -10 41 -17 88 -70 106 -119 9 -27
 12 4 12 181 1 199 2 213 19 206 77 -33 100 -37 197 -32 55 3 130 13 167 22
 l68 17 -49 44 c-57 51 -89 117 -97 203 l-7 59 39 11 c22 6 48 11 59 11 37 0
 99 -41 157 -102 31 -33 62 -58 70 -56 31 10 39 54 27 145 -13 96 -7 245 16
 427 41 323 51 748 22 962 -22 161 -69 344 -109 423 -58 114 -192 222 -324 261
 -35 11 -41 16 -36 34 3 11 20 39 37 61 51 64 51 65 3 64 -24 -1 -90 -7 -148
 -15z"
      />
      <path
        d="M14872 16021 c-43 -77 -96 -141 -108 -129 -3 4 -9 30 -13 60 -8 60
 -16 78 -35 78 -8 0 -13 -15 -13 -43 0 -50 -14 -81 -49 -103 -31 -21 -63 -9
 -83 30 -14 24 -13 28 7 42 28 19 28 50 1 65 -25 13 -31 8 -53 -51 -21 -56 -98
 -200 -139 -260 -133 -199 -278 -314 -496 -396 l-84 -32 71 -41 c72 -42 132
 -87 132 -100 0 -3 -15 -15 -34 -25 -56 -30 -104 -84 -197 -222 -153 -227 -233
 -276 -373 -228 -26 9 -49 14 -51 12 -10 -9 18 -135 36 -167 11 -18 19 -34 17
 -36 -2 -1 -25 -8 -53 -15 -122 -32 -198 -93 -374 -303 -119 -143 -203 -200
 -314 -213 -55 -7 -56 -6 -50 17 3 13 32 81 65 151 66 140 70 178 22 200 -30
 14 -35 8 -59 -57 -33 -92 -92 -199 -192 -350 -312 -470 -404 -714 -373 -986
 l10 -92 -48 -51 c-134 -143 -249 -332 -335 -551 -173 -443 -253 -620 -380
 -845 l-65 -115 23 -25 c44 -48 55 -84 55 -178 0 -111 -26 -216 -80 -324 -79
 -158 -195 -288 -307 -345 -57 -29 -58 -30 -61 -77 -3 -41 0 -50 27 -75 16 -15
 62 -45 100 -65 69 -36 91 -58 91 -90 0 -13 -5 -14 -26 -6 -38 15 -107 12 -131
 -5 -34 -24 -43 -73 -53 -288 -10 -216 -33 -341 -75 -412 -38 -66 -152 -115
 -265 -115 -22 0 -40 -4 -40 -9 0 -5 9 -28 20 -52 26 -58 25 -92 -6 -164 -82
 -191 -89 -237 -49 -322 28 -62 17 -69 -40 -23 -21 16 -48 30 -61 30 -24 0 -24
 -1 -24 -112 0 -222 -30 -533 -71 -733 -37 -181 -124 -427 -238 -669 l-51 -108
 31 -69 c55 -127 72 -209 72 -359 -1 -116 -4 -148 -27 -225 -42 -146 -122 -474
 -142 -583 -22 -122 -33 -128 -102 -52 -85 93 -148 115 -177 60 -22 -42 -19
 -57 13 -63 46 -10 93 -46 108 -84 9 -20 20 -93 25 -162 23 -303 32 -330 127
 -377 31 -16 59 -30 61 -31 8 -5 -32 -53 -136 -164 -60 -64 -125 -138 -145
 -165 -33 -46 -68 -106 -68 -119 0 -9 77 -6 104 5 38 14 110 84 160 155 66 92
 106 113 141 75 17 -19 17 -21 -9 -61 -116 -175 -151 -602 -69 -851 33 -99 64
 -138 120 -145 l42 -6 -24 -18 c-29 -23 -65 -80 -65 -103 0 -9 16 -57 35 -106
 41 -104 43 -147 14 -231 -24 -69 -22 -73 42 -84 50 -9 112 19 150 66 45 57 79
 50 79 -16 0 -18 -8 -26 -37 -35 -51 -17 -90 -55 -97 -96 -4 -20 1 -66 15 -121
 30 -121 30 -165 1 -196 -26 -27 -25 -29 33 -47 98 -31 282 -139 344 -200 71
 -72 77 -150 16 -240 -18 -27 -33 -50 -31 -50 1 0 28 9 59 20 94 33 164 36 216
 8 66 -34 86 -67 86 -141 -1 -50 -7 -75 -33 -125 -18 -34 -32 -64 -32 -66 0 -2
 37 -11 83 -21 82 -17 128 -17 284 1 44 5 59 2 101 -21 28 -15 67 -44 87 -65
 45 -46 43 -70 -10 -121 -37 -37 -50 -72 -39 -113 7 -28 16 -29 138 -5 27 5 50
 8 52 7 1 -2 -7 -41 -17 -87 -11 -46 -18 -86 -15 -89 11 -11 141 18 190 42 28
 14 98 66 155 115 58 51 122 97 147 107 62 23 170 15 251 -20 34 -14 64 -26 66
 -26 3 0 7 26 11 58 7 59 35 118 61 128 9 4 39 -4 68 -16 55 -24 229 -41 240
 -24 2 5 0 32 -6 59 -27 132 30 188 282 280 57 21 119 51 136 67 l32 28 5 -110
 c4 -91 8 -115 25 -138 32 -42 46 -38 75 22 43 86 134 230 198 311 l59 73 68 6
 c220 20 333 49 473 122 134 69 223 154 372 351 183 241 239 340 553 957 247
 485 307 584 399 662 72 60 164 113 238 135 42 13 69 27 72 37 126 439 168 542
 254 634 52 56 187 149 279 192 111 52 111 108 -3 215 -41 38 -74 74 -74 79 0
 13 47 32 80 32 32 0 80 -19 80 -31 0 -5 14 -16 31 -25 41 -20 103 -12 95 14
 -13 45 -29 229 -29 337 0 193 42 315 142 416 61 60 115 90 205 113 32 9 61 17
 63 19 2 2 -8 28 -21 58 -41 88 -59 176 -50 234 10 64 11 245 1 310 l-7 50 51
 12 c94 23 148 82 210 232 17 41 42 120 55 176 62 258 104 372 148 401 20 12
 39 15 75 11 l49 -6 -29 57 c-57 112 -34 233 80 419 231 378 232 379 212 468
 -7 30 -20 64 -30 76 -17 21 -17 21 -29 -18 -14 -46 -66 -123 -105 -153 l-28
 -22 5 23 c59 262 91 651 83 1004 -13 533 -84 918 -243 1302 l-55 132 71 135
 c38 75 70 143 70 152 0 9 -16 35 -36 57 -19 23 -53 78 -74 122 -209 437 -275
 558 -342 622 -18 18 -57 45 -86 61 l-52 29 21 19 c34 31 76 96 87 138 14 48 1
 112 -39 208 -16 37 -32 94 -35 127 -7 67 11 117 73 199 25 32 30 43 17 37 -79
 -33 -104 -39 -131 -30 -36 13 -69 63 -82 126 -16 72 -13 235 4 302 8 32 15 60
 15 62 0 3 -24 5 -52 5 -69 1 -125 27 -170 79 -55 64 -73 134 -73 277 0 116 1
 123 32 182 l32 62 -25 6 c-30 8 -71 -9 -136 -54 -69 -47 -97 -47 -123 0 l-20
 38 76 153 77 152 -72 97 c-39 54 -104 150 -145 215 -293 464 -388 587 -557
 719 -173 135 -343 201 -589 228 l-50 5 -43 -78z m-8 -1732 c31 -36 34 -50 38
 -151 4 -101 23 -123 103 -123 50 0 54 -2 49 -20 -14 -43 -48 -102 -86 -147
 -51 -62 -68 -106 -67 -170 2 -87 10 -103 50 -101 46 2 70 32 104 132 46 133
 104 183 191 167 l34 -7 0 -60 c0 -76 -17 -114 -73 -166 -50 -46 -77 -112 -77
 -188 0 -46 28 -85 59 -85 21 0 76 57 86 89 9 29 31 16 60 -34 19 -32 25 -56
 25 -102 0 -52 -6 -74 -44 -149 -48 -96 -123 -213 -164 -256 -24 -26 -24 -29
 -11 -64 26 -67 47 -66 169 11 53 34 93 44 104 26 3 -5 -5 -33 -19 -63 -14 -30
 -26 -77 -27 -104 l-3 -49 49 1 c42 0 53 5 77 32 31 35 73 43 83 16 3 -9 6 -53
 6 -98 0 -124 21 -142 127 -110 22 6 22 5 17 -77 -3 -46 -12 -120 -20 -163 -15
 -77 -15 -80 6 -100 18 -19 32 -21 134 -21 l112 0 -17 -30 c-30 -52 -58 -163
 -68 -263 -10 -108 -5 -199 33 -562 51 -487 67 -679 75 -890 10 -250 -1 -606
 -23 -741 -37 -230 -126 -440 -252 -595 l-42 -51 70 -6 c123 -10 125 -27 23
 -220 -41 -78 -82 -163 -91 -187 -16 -46 -22 -178 -10 -218 10 -31 -4 -28 -70
 18 l-59 39 -77 -82 c-42 -45 -77 -85 -78 -89 0 -3 20 -18 44 -32 103 -60 134
 -128 110 -245 -17 -83 -30 -117 -128 -331 -36 -80 -66 -156 -66 -170 0 -32 24
 -66 61 -89 l28 -17 -79 -66 c-159 -135 -371 -409 -466 -603 -78 -159 -105
 -273 -111 -462 l-5 -153 -54 0 c-50 0 -54 2 -91 46 -21 25 -49 59 -63 75 -16
 19 -36 31 -55 32 l-30 2 0 -95 1 -95 68 -130 c59 -113 67 -134 62 -167 -7 -41
 -37 -110 -45 -105 -62 34 -153 71 -187 75 l-45 5 57 -107 c54 -104 56 -108 55
 -184 -1 -94 -24 -232 -40 -242 -7 -4 -49 -15 -93 -25 -79 -18 -83 -18 -167 0
 -103 22 -137 23 -158 3 -23 -24 -8 -54 52 -98 86 -64 117 -132 93 -204 -12
 -36 -18 -41 -60 -52 -106 -27 -200 -111 -239 -213 -52 -139 -62 -313 -24 -412
 5 -13 -8 -18 -73 -27 -166 -23 -282 -92 -446 -263 -113 -117 -303 -349 -399
 -487 -48 -68 -62 -81 -80 -77 -44 9 -145 10 -289 1 -166 -10 -230 0 -274 41
 -26 24 -27 27 -21 104 l5 80 -21 -14 c-31 -20 -85 -102 -98 -150 -7 -23 -12
 -81 -11 -129 l0 -86 -26 8 c-97 27 -183 99 -224 187 -40 85 -139 161 -235 179
 l-31 6 23 35 c13 19 27 55 30 81 3 26 8 57 10 68 7 31 55 48 112 39 l46 -7
 -45 46 c-31 31 -69 90 -118 187 -89 172 -153 247 -236 279 -30 11 -70 20 -89
 20 -43 0 -44 9 -15 128 26 107 69 207 125 292 61 91 75 129 75 197 0 60 -39
 163 -72 191 -23 19 -112 -2 -161 -38 -23 -16 -50 -30 -61 -30 -18 0 -18 1 -3
 18 10 10 33 76 52 145 32 118 58 187 71 187 11 0 50 -23 72 -43 12 -11 22 -18
 22 -14 0 3 -11 52 -25 109 -65 268 -90 520 -75 747 26 366 73 645 224 1311 59
 260 91 485 111 791 l7 97 36 16 c21 9 69 27 107 39 54 18 71 29 73 45 2 15 -5
 23 -32 33 -42 15 -43 22 -16 67 24 39 38 38 115 -12 80 -53 112 -66 153 -66
 21 0 46 6 56 13 17 13 17 16 -8 65 -34 67 -76 114 -137 154 -27 17 -49 32 -49
 34 0 1 3 9 6 18 9 24 29 19 64 -15 28 -29 35 -31 81 -27 27 3 52 7 55 10 2 3
 -9 28 -26 55 -41 66 -45 101 -30 269 12 131 12 149 -4 208 -22 81 -75 157
 -157 225 l-61 51 89 0 c72 0 97 4 133 23 40 20 47 29 68 87 17 47 27 111 37
 230 19 219 31 260 86 279 40 14 100 14 169 1 29 -6 55 -8 57 -6 2 2 -6 37 -18
 77 -30 106 -38 304 -14 384 24 85 125 281 218 425 137 211 207 370 207 470 0
 57 -23 148 -55 219 -14 29 -25 54 -25 55 0 1 30 2 68 2 85 -1 151 29 241 108
 74 64 134 96 194 103 23 2 52 6 64 9 l21 4 -25 72 c-35 101 -29 189 27 358 59
 180 61 243 13 358 -3 8 8 5 29 -8 42 -26 47 -25 129 7 l69 27 0 55 c0 55 -27
 121 -49 121 -27 0 -51 45 -51 96 0 92 6 106 68 146 117 75 115 75 256 50 203
 -36 209 -33 171 78 -33 97 -33 128 1 136 14 4 45 4 70 1 39 -4 44 -2 38 12
 -75 173 -99 273 -83 350 11 53 76 221 86 221 3 0 30 -20 61 -44 32 -25 69 -48
 83 -51 40 -10 83 17 139 89 53 68 136 137 185 154 17 6 69 11 117 11 84 1 87
 0 112 -30z"
      />
    </g>
  </svg>