<svg viewBox="0 0 512 325"  xmlns="http://www.w3.org/2000/svg">
<path d="M342.6 7C336.4 13.7 329.1 27.6 326.9 37C325.2 44.1 325.2 61 326.9 68C329 76.7 336.2 90.9 341.9 97.7C344.7 101.2 347.5 104 348 104C348.5 104 350.1 102.4 351.6 100.5L354.2 97L349.5 91.8C344 85.7 338.8 75.8 336.6 67.3C334.7 60.2 334.5 47.4 336.1 39.8C337.7 32.1 344.2 19.3 349.6 13.2L354.2 7.9L351.9 5.2C350.6 3.7 349.3 2.1 348.9 1.7C348.6 1.3 345.8 3.7 342.6 7Z" />
<path d="M447.7 4.4L444.9 8L449.5 13.3C458.5 23.6 464 38.3 464 52.5C464 67.4 458.7 81.6 449.3 92C444.6 97.3 444.5 98.4 448.9 102.4C451.4 104.7 452.2 104.2 458.7 95.6C470 80.7 475.3 62 473.1 45.1C471.1 29.6 465.6 17.2 456.1 6.8L450.5 0.700005L447.7 4.4Z" />
<path d="M355 19.7C342.1 34.3 339.4 58 348.4 75.8C351 80.9 358.5 91 359.8 91C360.2 91 361.8 89.4 363.4 87.4L366.2 83.8L363.3 80.7C349.1 65.4 349.3 39.3 363.8 23.7L366.4 21L363.5 18C361.9 16.3 360.3 15 359.9 15C359.5 15 357.3 17.1 355 19.7Z" />
<path d="M435.6 17.9L432.8 20.9L436.3 25.2C443.1 33.7 446.1 41.7 446.2 52.2C446.2 63.3 442.5 73.3 435.7 80.7L432.8 83.8L435.6 87.4C437.2 89.4 438.8 91 439.2 91C440.6 91 448.2 80.4 450.9 74.6C459.7 56.1 456.6 33.6 443.2 18.7C441.3 16.7 439.5 15 439.1 15C438.7 15 437.1 16.3 435.6 17.9Z" />
<path d="M369.2 32C361.3 42.8 359.9 56.3 365.5 67.4C367 70.4 369.3 73.8 370.5 75L372.6 77L375.8 73.7L379.1 70.3L377 67.7C370.3 59.2 370.3 44.6 377.1 37.4C379 35.4 379 35.3 375.7 31.5L372.4 27.7L369.2 32Z" />
<path d="M423 31.5L419.6 35L421.8 37.3C428.8 44.7 428.7 60.3 421.7 67.8L419.6 70.1L423.2 73.7L426.8 77.3L429.9 73C434.9 66 437.3 58.5 436.7 50.9C436.3 43.9 433 35.7 428.8 30.7L426.4 28L423 31.5Z" />
<path d="M394.6 48.3C391.7 51.2 391.8 49.3 388.5 128.5C387.1 160.9 385.8 191.9 385.4 197.2L384.8 207H197.4C-7.89995 207 4.80005 206.6 1.60005 212.9C-0.799951 217.4 -0.799951 299.6 1.60005 304.1C4.10005 309.1 8.00005 310 25.5 310H41V317.5V325H71.5H102V317.5V310H256H410V317.5V325H441H472V317.5V310H487C504 310 507.9 309 510.4 304.1C512.8 299.6 512.8 217.4 510.4 212.9C507.5 207.1 506.4 207 458.1 207H414.2L413.6 198.7C413.3 194.2 411.9 163.5 410.5 130.5C407.1 49.6 407.2 51.2 404.4 48.3C401.4 45.3 397.5 45.4 394.6 48.3ZM345.5 246C356 251.1 356 265.9 345.5 271C340.4 273.5 338.6 273.5 333.3 271.1C322.5 266.1 322.6 250.8 333.5 245.9C338.6 243.5 340.4 243.5 345.5 246ZM383.6 246.1C387.9 248.1 392 254.2 392 258.5C392 262.8 387.9 268.9 383.6 270.9C378.3 273.5 376.7 273.5 371.2 270.9C367.9 269.3 366.3 267.7 364.9 264.6C362.6 259.4 362.6 257.5 365 252.2C366.5 248.9 367.9 247.5 371.2 246C376.7 243.5 378.4 243.5 383.6 246.1ZM421.6 246.1C425.9 248.1 430 254.2 430 258.5C430 262.8 425.9 268.9 421.6 270.9C419.3 272.1 416.5 273 415.5 273C411.2 273 405.1 268.9 403.1 264.6C400.5 259.4 400.5 257.7 402.9 252.4C404.3 249.4 405.9 247.8 409.1 246.2C414.6 243.5 416.3 243.5 421.6 246.1ZM459.8 246C463.1 247.5 464.5 248.9 466 252.2C467.1 254.6 468 257.4 468 258.5C468 259.6 467.1 262.4 466 264.8C464.5 268.1 463.1 269.5 459.8 271C454.3 273.5 452.6 273.5 447.4 270.9C443.1 268.9 439 262.8 439 258.5C439 254.3 443.1 248.2 447.3 246.1C452.5 243.5 454.3 243.5 459.8 246Z" />
</svg>
