<svg viewBox="0 0 801 279" xmlns="http://www.w3.org/2000/svg">
<path d="M10.6864 5.36272C77.3936 33.8126 113.787 69.9625 120.676 114.785C122.216 124.917 121.649 141.533 119.379 152.151C118.569 156.123 118.001 159.608 118.164 159.77C118.245 159.851 124.729 159.608 132.591 159.041C150.747 157.825 193.868 157.825 210.078 159.041C296.644 165.282 352.328 191.867 382.723 241.31C387.019 248.281 394.719 264.329 397.799 272.678C399.096 276.163 400.312 279 400.555 279C400.798 279 402.014 276.163 403.311 272.678C406.391 264.329 414.091 248.281 418.386 241.31C448.782 191.867 504.466 165.282 591.031 159.041C607.242 157.825 650.362 157.825 668.518 159.041C676.38 159.608 682.865 159.851 682.946 159.77C683.108 159.608 682.54 156.123 681.73 152.151C680.838 148.098 679.947 139.912 679.704 133.914C677.353 80.5806 714.232 37.8653 790.423 5.36272L800.555 0.985821H667.14H533.726L532.753 6.33536C531.375 13.8734 528.133 23.924 524.81 30.6515C518.812 43.1337 509.086 51.8875 496.522 56.1834C482.824 60.8034 461.588 64.2077 445.945 64.2077C430.626 64.2077 429.41 62.5056 428.518 40.7021C427.951 26.923 426.573 15.4134 425.114 12.8197C424.628 11.9281 423.25 15.9808 420.737 25.9504L417.009 40.2969L411.821 39.8916C408.984 39.6484 403.878 39.4863 400.555 39.4863C397.231 39.4863 392.125 39.6484 389.288 39.8916L384.101 40.2969L380.372 25.9504C377.86 15.9808 376.482 11.9281 375.995 12.8197C374.536 15.4134 373.159 26.923 372.591 40.7021C371.7 62.5056 370.484 64.2077 355.165 64.2077C339.521 64.2077 318.285 60.8034 304.587 56.1834C292.024 51.8875 282.297 43.1337 276.299 30.6515C272.976 23.924 269.734 13.8734 268.356 6.33536L267.383 0.985821H133.969H0.554688L10.6864 5.36272Z" />
</svg>
