<svg viewBox="0 0 255 253" xmlns="http://www.w3.org/2000/svg">
<path d="M239.425 1.92159C226.88 6.45085 212.338 17.9156 173.134 54.5744L157.737 69.0115L106.414 53.5836C39.5522 33.6265 28.5749 31.928 19.1658 40.4204L15.174 43.9589L18.5955 46.3651C20.5914 47.639 42.5461 62.6422 67.6371 79.7685L113.115 110.624L106.129 117.984C93.1559 131.289 71.914 157.899 64.5007 170.071C62.79 173.043 60.7941 175.45 60.0813 175.45C59.511 175.45 48.2486 172.902 35.1328 169.646C12.0376 164.126 0.917725 163.136 0.917725 166.532C0.917725 167.382 8.90124 173.751 18.7381 180.545C28.5749 187.339 38.6969 194.416 41.263 196.256L45.825 199.653L43.4014 203.899C41.1204 207.721 41.1204 208.145 43.4014 210.41C45.6824 212.674 46.1101 212.674 49.9593 210.41L54.2362 208.004L57.6577 212.533C59.511 215.081 66.6392 225.13 73.4822 234.896C80.3252 244.663 86.7405 252.589 87.5959 252.589C90.7323 252.589 89.1641 237.586 83.7467 216.071C80.8955 204.465 78.6144 194.557 78.6144 193.991C78.6144 193.425 83.8893 189.32 90.4472 184.933C104.703 175.166 118.532 164.409 133.073 151.246L144.051 141.48L167.146 175.025C179.977 193.567 194.803 215.081 200.221 222.865C205.495 230.65 210.628 237.019 211.626 237.019C212.481 237.019 214.762 234.896 216.473 232.207C222.888 222.865 221.32 214.231 201.931 149.972C193.805 123.08 186.962 100.15 186.677 98.7349C186.392 97.3195 195.373 86.8455 210.342 70.8515C241.706 37.5896 252.113 23.7187 254.679 11.6878C255.392 7.86626 254.965 6.45085 251.971 3.47852C247.979 -0.484604 246.839 -0.626144 239.425 1.92159Z"/>
</svg>
