<?xml version="1.0" standalone="no"?>
<!DOCTYPE svg PUBLIC "-//W3C//DTD SVG 20010904//EN"
 "http://www.w3.org/TR/2001/REC-SVG-20010904/DTD/svg10.dtd">
<svg version="1.0" xmlns="http://www.w3.org/2000/svg"
 width="980.000000pt" height="906.000000pt" viewBox="0 0 980.000000 906.000000"
 preserveAspectRatio="xMidYMid meet">

<g transform="translate(0.000000,906.000000) scale(0.100000,-0.100000)"
fill="#000000" stroke="none">
<path d="M325 9008 c-126 -65 -225 -159 -275 -260 l-33 -68 -9 -402 c-13 -565
-4 -6987 10 -7095 21 -166 137 -314 313 -400 l85 -41 3068 -8 3068 -7 -7 24
c-41 126 -28 307 29 403 l25 43 -56 54 c-31 30 -69 75 -85 102 l-30 47 -2884
0 -2884 0 0 2851 0 2851 3918 -7 c2154 -4 3918 -8 3918 -9 1 0 5 -701 8 -1556
3 -855 9 -1691 12 -1857 l6 -302 52 -15 c28 -8 73 -29 99 -46 50 -32 149 -125
182 -174 l20 -28 55 16 c30 10 95 20 144 23 l89 6 -8 2756 -7 2756 -41 75
c-60 108 -170 216 -272 266 l-79 39 -2305 7 c-1269 3 -3143 6 -4166 7 l-1860
0 -100 -51z m6133 -683 c64 -19 117 -64 134 -113 14 -41 18 -328 5 -374 -13
-46 -64 -96 -123 -118 -43 -16 -78 -20 -167 -20 -143 0 -178 10 -239 68 -44
43 -50 53 -59 112 -12 70 -5 261 11 321 18 66 69 111 145 130 57 14 239 10
293 -6z m942 4 c49 -11 110 -62 138 -114 25 -47 30 -274 7 -351 -34 -117 -119
-164 -295 -164 -158 0 -252 42 -282 128 -17 50 -18 334 0 383 16 46 69 97 118
114 47 17 248 19 314 4z m995 -20 c63 -32 90 -78 106 -179 13 -86 5 -231 -17
-293 -36 -103 -102 -132 -299 -132 -152 0 -178 7 -230 63 -50 53 -74 207 -56
349 23 183 83 224 316 220 118 -2 135 -5 180 -28z"/>
<path d="M4960 6394 c-70 -32 -116 -68 -134 -102 -44 -88 -441 -1295 -775
-2358 -164 -525 -241 -791 -241 -838 0 -53 40 -136 83 -172 114 -96 284 -104
386 -18 18 14 39 40 47 56 67 130 968 2930 1019 3165 18 88 -58 208 -167 262
-79 40 -141 41 -218 5z"/>
<path d="M3495 5585 c-80 -22 -206 -77 -785 -345 -826 -382 -848 -394 -891
-508 -39 -105 -11 -251 63 -319 58 -55 1321 -645 1558 -729 161 -57 238 -42
329 61 74 85 90 174 51 279 -44 117 -78 138 -565 366 -423 197 -476 223 -472
234 4 11 64 40 619 300 178 83 313 152 337 173 55 47 103 146 103 213 0 97
-86 230 -176 271 -48 22 -101 23 -171 4z"/>
<path d="M5490 5582 c-50 -24 -128 -105 -150 -155 -45 -103 -31 -210 37 -286
50 -54 114 -88 587 -315 220 -105 401 -196 403 -202 2 -6 -124 -71 -279 -144
-358 -168 -622 -300 -673 -338 -98 -70 -129 -217 -72 -334 48 -97 141 -158
243 -158 24 0 75 12 114 26 76 27 422 179 665 291 314 146 387 181 636 304
207 103 262 135 287 165 89 107 86 291 -6 387 -40 42 -225 134 -987 487 -482
223 -654 290 -740 290 -16 0 -46 -8 -65 -18z"/>
<path d="M8085 3015 c-68 -24 -71 -35 -83 -250 l-7 -139 -115 -43 c-138 -51
-126 -55 -254 89 -48 54 -95 102 -106 108 -37 20 -72 10 -136 -36 -89 -63
-243 -211 -250 -241 -9 -33 7 -61 105 -182 76 -95 83 -106 78 -138 -7 -39 -82
-166 -121 -202 l-26 -24 -132 22 c-171 28 -192 27 -216 -3 -30 -39 -90 -369
-77 -426 9 -42 39 -55 199 -86 75 -15 143 -32 151 -38 15 -11 55 -184 55 -240
0 -30 -7 -36 -112 -99 -131 -77 -139 -83 -162 -119 -24 -36 -16 -71 40 -177
77 -146 154 -251 184 -251 21 0 137 56 233 114 43 25 83 46 89 46 10 0 45 -29
156 -133 l53 -49 -45 -137 c-56 -170 -61 -197 -45 -217 35 -42 328 -154 404
-154 42 0 43 0 77 68 20 37 50 110 68 162 18 52 36 98 39 102 3 4 69 4 145 0
l140 -7 52 -136 c67 -176 76 -189 123 -189 71 0 382 110 403 143 17 26 6 102
-28 199 -66 191 -66 162 0 221 81 72 135 107 163 107 14 0 84 -32 157 -70 73
-39 142 -70 154 -70 29 0 76 59 160 204 75 128 94 185 73 224 -6 11 -69 57
-141 102 l-130 82 0 40 c0 22 7 86 16 142 l16 103 137 23 c214 35 239 53 227
163 -11 105 -64 349 -78 358 -21 14 -141 10 -254 -6 -70 -11 -110 -13 -122 -6
-18 9 -119 182 -128 218 -3 12 23 52 72 113 82 103 124 168 124 193 0 24 -101
128 -198 205 -113 88 -139 104 -161 97 -18 -5 -189 -177 -229 -228 -24 -32
-10 -34 -178 25 l-111 39 -5 164 c-5 177 -13 206 -64 225 -41 16 -332 12 -379
-5z m385 -1082 c152 -75 245 -208 264 -379 35 -295 -242 -556 -536 -506 -258
45 -420 268 -387 533 12 95 43 161 113 236 114 123 187 154 361 150 113 -2
125 -4 185 -34z"/>
</g>
</svg>
