<?xml version="1.0" standalone="no"?>
<!DOCTYPE svg PUBLIC "-//W3C//DTD SVG 20010904//EN"
 "http://www.w3.org/TR/2001/REC-SVG-20010904/DTD/svg10.dtd">
<svg version="1.0" xmlns="http://www.w3.org/2000/svg"
 width="377.000000pt" height="377.000000pt" viewBox="0 0 377.000000 377.000000"
 preserveAspectRatio="xMidYMid meet">
<metadata>
Created by potrace 1.14, written by Peter Selinger 2001-2017
</metadata>
<g transform="translate(0.000000,377.000000) scale(0.100000,-0.100000)"
fill="#000000" stroke="none">
<path d="M3380 2735 c-160 -73 -316 -103 -560 -110 -205 -6 -259 -14 -370 -57
-259 -101 -399 -347 -350 -618 23 -128 83 -218 196 -294 l62 -42 -51 -45 c-72
-63 -109 -134 -115 -219 -8 -115 36 -200 134 -260 92 -55 133 -62 419 -69 281
-8 323 -15 394 -68 68 -52 87 -164 39 -237 -26 -39 -104 -89 -163 -105 -87
-23 -291 -32 -410 -18 -172 19 -250 79 -260 199 -2 16 -5 31 -8 35 -7 6 -289
4 -296 -3 -4 -4 12 -134 23 -182 8 -37 53 -109 93 -149 20 -20 73 -53 117 -73
137 -63 251 -80 496 -76 184 4 212 7 325 32 327 73 491 279 440 553 -19 101
-125 225 -241 281 -125 60 -192 71 -459 74 -258 3 -295 9 -329 57 -25 36 -20
95 12 146 l27 44 50 -8 c28 -4 115 -8 195 -8 124 0 156 3 220 23 205 64 332
192 381 382 24 97 13 231 -26 315 -26 53 -117 145 -185 183 l-55 32 50 1 c156
2 359 27 392 47 9 5 0 45 -31 142 -23 73 -47 135 -52 136 -5 1 -52 -18 -104
-41z m-512 -359 c87 -23 128 -58 170 -139 35 -71 41 -227 11 -316 -40 -117
-122 -179 -252 -188 -221 -16 -354 99 -362 312 -6 175 79 300 229 336 52 12
148 10 204 -5z"/>
<path d="M1350 2613 c-44 -7 -144 -45 -185 -71 -66 -41 -151 -138 -206 -233
-46 -80 -63 -104 -57 -81 2 6 -8 82 -17 137 -2 11 -12 64 -21 118 l-17 97
-246 0 -247 0 1 -117 1 -118 69 -2 c39 0 91 -2 118 -2 l47 -1 0 -554 0 -555
-112 0 c-61 0 -114 -3 -117 -7 -3 -3 -6 -57 -6 -120 l0 -114 446 0 446 0 1
120 1 120 -132 1 c-73 1 -144 0 -159 -1 -17 -1 -28 4 -29 12 0 7 0 144 -1 303
l0 290 32 79 c93 234 239 379 403 400 l47 7 0 -161 c0 -88 3 -161 8 -161 45
-7 232 -3 233 6 0 5 2 17 4 25 1 8 5 47 9 85 9 91 15 160 21 210 8 79 18 201
19 230 1 29 -2 31 -64 47 -60 15 -225 22 -290 11z"/>
</g>
</svg>
