<?xml version="1.0" standalone="no"?>
<!DOCTYPE svg PUBLIC "-//W3C//DTD SVG 20010904//EN"
 "http://www.w3.org/TR/2001/REC-SVG-20010904/DTD/svg10.dtd">
<svg version="1.0" xmlns="http://www.w3.org/2000/svg"
 width="500.000000pt" height="500.000000pt" viewBox="0 0 500.000000 500.000000"
 preserveAspectRatio="xMidYMid meet">

<g transform="translate(0.000000,500.000000) scale(0.100000,-0.100000)"
fill="#000000" stroke="none">
<path d="M1323 4678 c-48 -46 -92 -87 -98 -93 -160 -144 -519 -483 -526 -496
-5 -11 -9 -281 -9 -678 0 -625 1 -662 18 -678 23 -23 242 -227 442 -413 85
-79 181 -168 212 -197 l57 -53 78 0 c131 0 123 -10 123 146 l0 134 704 0 704
0 108 -51 c60 -28 146 -66 192 -86 l82 -35 0 -275 0 -274 -27 -10 c-16 -5 -71
-29 -123 -53 l-95 -43 -3 -79 c-1 -43 -4 -88 -7 -100 -2 -12 -61 -71 -129
-132 l-125 -112 -358 -2 -358 -3 -5 -95 -5 -95 -275 0 -275 0 -5 390 -5 390
-460 0 -460 0 -3 -376 -2 -376 72 -70 c91 -87 541 -502 615 -566 l55 -47 1073
0 1074 0 48 41 c26 23 80 71 119 108 38 36 119 111 180 166 60 55 171 158 246
229 l138 128 0 668 0 667 -102 94 c-234 214 -417 383 -565 522 l-41 39 -121 0
c-67 0 -127 -5 -134 -10 -7 -6 -99 -49 -205 -96 l-194 -86 -496 0 -497 0 -190
86 c-105 47 -196 91 -202 96 -10 8 -13 53 -13 163 0 85 3 160 6 169 5 14 28
16 150 16 l144 0 0 218 0 217 121 115 122 115 346 5 346 5 3 123 3 122 279 0
280 0 2 -432 3 -433 478 -3 477 -2 0 398 0 399 -52 49 c-29 28 -114 106 -188
174 -74 69 -210 196 -301 282 l-167 158 -1096 0 -1096 0 -87 -82z"/>
<path d="M2867 4094 c-4 -4 -7 -256 -7 -560 l0 -552 -393 -1 c-217 -1 -401 1
-410 5 -14 5 -17 21 -17 95 l0 89 -205 0 -206 0 3 -112 3 -111 160 -74 159
-73 496 0 496 0 114 51 c63 28 136 60 162 71 38 17 47 26 51 52 2 17 3 276 3
576 l-1 545 -201 3 c-110 1 -203 -1 -207 -4z"/>
<path d="M1705 2271 c-3 -6 -7 -297 -8 -648 l-2 -638 205 0 205 0 5 273 5 272
455 3 455 2 85 41 c47 23 118 56 158 74 l72 33 0 222 0 222 -169 76 -170 77
-645 0 c-395 0 -647 -4 -651 -9z m1220 -366 l0 -180 -407 -3 -408 -2 0 185 0
185 408 -2 407 -3 0 -180z"/>
</g>
</svg>
