<?xml version="1.0" standalone="no"?>
<!DOCTYPE svg PUBLIC "-//W3C//DTD SVG 20010904//EN"
 "http://www.w3.org/TR/2001/REC-SVG-20010904/DTD/svg10.dtd">
<svg version="1.0" xmlns="http://www.w3.org/2000/svg"
 width="1200.000000pt" height="497.000000pt" viewBox="0 0 1200.000000 497.000000"
 preserveAspectRatio="xMidYMid meet">

<g transform="translate(0.000000,497.000000) scale(0.100000,-0.100000)"
fill="#000000" stroke="none">
<path d="M820 3594 l0 -1205 -330 -1090 c-181 -599 -330 -1092 -330 -1094 0
-3 130 -5 289 -5 267 0 290 1 295 18 12 41 230 766 257 855 l30 97 42 0 42 0
243 -485 242 -485 350 0 350 0 -19 37 c-68 135 -441 915 -441 923 0 7 178 10
525 10 444 0 525 -2 525 -14 0 -8 -65 -226 -143 -485 l-144 -471 317 0 317 0
145 483 145 482 777 3 c629 2 776 0 776 -11 0 -7 -61 -221 -135 -477 -74 -255
-135 -467 -135 -472 0 -4 143 -8 318 -8 l317 0 136 483 136 482 146 3 147 3 0
-403 c0 -222 3 -440 7 -486 l6 -82 266 2 266 3 308 483 309 482 199 0 c183 0
199 -1 199 -18 0 -9 -45 -224 -100 -477 -55 -253 -100 -463 -100 -467 0 -5
141 -8 313 -8 l314 0 103 485 104 485 181 0 182 0 6 -132 c7 -161 32 -268 92
-393 190 -397 647 -549 1445 -480 268 24 751 103 783 129 8 6 61 199 122 444
l107 432 359 0 359 0 0 1815 0 1815 -1295 0 -1295 0 0 -1165 c0 -680 -4 -1165
-9 -1165 -5 0 -53 -43 -106 -95 -54 -52 -99 -95 -101 -95 -2 0 -4 567 -4 1260
l0 1260 -1295 0 -1295 0 -2 -1057 -3 -1058 -105 0 -105 0 -3 1058 -2 1057
-1295 0 -1295 0 0 -1060 0 -1060 -110 0 -110 0 0 1060 0 1060 -1295 0 -1295 0
0 -1206z m2500 39 l0 -1078 -195 -642 c-107 -353 -195 -645 -195 -648 0 -3
-258 -5 -573 -5 l-572 0 -43 92 -42 92 242 246 c134 135 409 413 613 618 l370
372 -395 0 -395 0 -445 -475 c-245 -262 -458 -489 -473 -506 -16 -17 -30 -29
-31 -27 -2 1 66 228 149 503 l152 500 -288 3 -289 2 0 1015 0 1015 1205 0
1205 0 0 -1077z m2808 65 l-3 -1013 -300 -5 -300 -5 -205 -707 -205 -708 -315
0 -315 1 84 39 c111 53 193 113 277 203 146 157 234 405 234 664 0 269 -109
416 -358 486 -72 19 -108 21 -537 26 l-460 6 -3 1013 -2 1012 1205 0 1205 0
-2 -1012z m2812 -266 l0 -1278 -55 -84 c-146 -222 -252 -490 -296 -742 l-11
-68 -174 0 c-139 0 -174 3 -174 13 0 8 65 321 145 697 80 376 145 689 145 697
0 11 -90 13 -507 13 l-508 -1 -451 -707 -452 -707 -36 -3 -36 -3 0 1725 0
1726 1205 0 1205 0 0 -1278z m2810 -447 l0 -1725 -300 0 c-201 0 -300 3 -300
10 0 6 20 91 45 190 25 99 45 182 45 185 0 3 -273 4 -607 3 l-607 -3 -41 -165
c-23 -91 -45 -177 -48 -192 l-7 -28 -295 0 -295 0 0 39 c0 109 68 348 140 492
180 356 439 540 765 541 236 1 355 -85 372 -268 l6 -64 358 0 357 0 11 52 c91
420 -146 689 -662 753 -235 29 -551 15 -784 -36 -151 -33 -266 -73 -413 -147
-74 -37 -138 -68 -142 -70 -5 -2 -8 483 -8 1077 l0 1081 1205 0 1205 0 0
-1725z m-7437 -705 c126 -20 173 -65 171 -163 -2 -117 -79 -314 -152 -390 -95
-98 -202 -128 -467 -130 -122 -1 -189 2 -188 8 2 13 172 656 178 673 5 15 368
17 458 2z m1691 -582 l6 -438 -130 0 c-71 0 -130 3 -130 8 -1 9 243 872 245
869 1 -1 5 -199 9 -439z m1751 300 c-12 -57 -53 -246 -91 -420 l-69 -318 -177
0 c-98 0 -178 3 -178 6 0 3 95 155 212 337 298 467 318 497 322 497 2 0 -7
-46 -19 -102z m2695 -840 c-1 -16 -117 -478 -121 -483 -9 -8 -224 -35 -326
-41 -291 -18 -502 68 -607 249 -31 52 -66 183 -66 244 l0 43 560 0 c441 0 560
-3 560 -12z"/>
</g>
</svg>
