<?xml version="1.0" standalone="no"?>
<!DOCTYPE svg PUBLIC "-//W3C//DTD SVG 20010904//EN"
 "http://www.w3.org/TR/2001/REC-SVG-20010904/DTD/svg10.dtd">
<svg version="1.0" xmlns="http://www.w3.org/2000/svg"
 width="691.000000pt" height="691.000000pt" viewBox="0 0 691.000000 691.000000"
 preserveAspectRatio="xMidYMid meet">

<g transform="translate(0.000000,691.000000) scale(0.100000,-0.100000)"
fill="#000000" stroke="none">
<path d="M10 5825 l0 -715 220 0 220 0 0 -1652 0 -1651 -220 6 -220 6 0 -719
0 -720 1600 0 1600 0 0 719 0 720 -225 -6 -225 -6 0 532 0 531 222 -2 221 -3
129 -205 c71 -113 177 -281 235 -375 59 -93 149 -236 200 -317 51 -81 93 -150
93 -154 0 -3 -82 -4 -182 -3 l-183 2 -3 -716 -2 -717 1709 0 1709 0 -5 708
c-2 389 -6 712 -7 717 -2 6 -116 10 -317 10 l-313 0 -413 625 c-227 344 -431
653 -452 687 l-40 62 107 57 c207 109 344 207 501 359 293 284 447 622 468
1030 23 461 -134 881 -454 1215 -119 125 -199 192 -336 283 -334 224 -748 355
-1252 397 -75 6 -916 10 -2252 10 l-2133 0 0 -715z m4575 528 c515 -85 866
-235 1173 -503 255 -223 426 -507 492 -818 27 -124 37 -381 21 -505 -43 -325
-186 -599 -429 -828 -155 -146 -365 -283 -581 -380 -64 -28 -120 -55 -124 -59
-5 -4 100 -171 232 -371 132 -200 369 -561 527 -802 l287 -438 279 3 278 3 0
-130 c0 -71 3 -322 7 -558 l6 -427 -1552 0 -1551 0 0 555 0 555 250 0 c138 0
250 3 250 6 0 3 -8 18 -19 32 -15 22 -505 799 -785 1245 l-61 97 -342 0 -343
0 0 -691 0 -690 225 3 225 3 0 -557 0 -558 -1440 0 -1440 0 0 558 0 557 220
-3 220 -3 0 1810 0 1811 -220 0 -220 0 0 555 0 555 2143 -3 c2137 -2 2142 -3
2272 -24z"/>
<path d="M330 5825 l0 -395 218 -2 217 -3 3 -1973 2 -1972 -220 7 -220 6 0
-396 0 -397 1280 0 1280 0 0 396 0 397 -222 -4 -223 -4 -3 852 -2 853 468 0
467 0 154 -242 c84 -134 236 -376 338 -538 102 -162 273 -433 379 -602 107
-169 194 -312 194 -319 0 -10 -69 -11 -315 -5 l-315 7 0 -396 0 -395 1392 0
1391 0 -6 122 c-4 66 -7 245 -7 396 l0 275 -240 -6 -241 -5 -33 51 c-39 62
-820 1247 -1029 1564 -81 122 -147 228 -147 235 0 7 30 24 68 37 485 170 864
458 1031 786 92 181 125 327 126 555 0 183 -12 266 -57 410 -74 233 -208 433
-406 606 -289 254 -608 388 -1122 471 -96 16 -279 17 -2152 20 l-2048 4 0
-396z m3426 -422 c196 -44 349 -128 472 -258 190 -199 233 -488 111 -735 -34
-69 -60 -102 -133 -175 -75 -74 -109 -99 -191 -142 -117 -60 -228 -96 -380
-125 -100 -18 -160 -21 -637 -25 l-528 -5 0 747 0 747 598 -5 c557 -4 603 -5
688 -24z"/>
<path d="M2630 4684 l0 -586 423 5 c540 6 660 24 867 124 121 59 228 161 281
268 34 69 34 71 34 205 l0 136 -37 76 c-53 107 -154 202 -280 261 -179 86
-277 96 -875 97 l-413 0 0 -586z m1092 398 c161 -44 281 -130 335 -240 23 -47
27 -68 27 -141 0 -73 -4 -94 -27 -142 -50 -104 -161 -187 -317 -237 -138 -45
-227 -54 -597 -59 l-353 -6 0 428 0 427 428 -4 c397 -4 432 -6 504 -26z"/>
</g>
</svg>
