<?xml version="1.0" standalone="no"?>
<!DOCTYPE svg PUBLIC "-//W3C//DTD SVG 20010904//EN"
 "http://www.w3.org/TR/2001/REC-SVG-20010904/DTD/svg10.dtd">
<svg version="1.0" xmlns="http://www.w3.org/2000/svg"
 width="768.000000pt" height="208.000000pt" viewBox="0 0 768.000000 208.000000"
 preserveAspectRatio="xMidYMid meet">

<g transform="translate(0.000000,208.000000) scale(0.100000,-0.100000)"
fill="#000000" stroke="none">
<path d="M2 1403 c4 -763 1 -728 83 -898 113 -235 345 -407 655 -486 86 -22
123 -18 267 31 289 98 506 298 587 540 44 131 46 173 46 848 l0 642 -821 0
-820 0 3 -677z m1595 -25 c-3 -721 -2 -697 -62 -834 -93 -211 -302 -381 -575
-469 -112 -36 -171 -35 -287 3 -314 105 -522 302 -604 572 -23 74 -23 82 -27
733 l-3 657 781 0 781 0 -4 -662z"/>
<path d="M166 1927 c33 -34 124 -133 203 -220 80 -86 147 -155 149 -152 3 2
-40 101 -94 220 l-99 215 -109 0 -108 0 58 -63z"/>
<path d="M467 1833 c131 -215 144 -235 148 -231 2 1 -17 90 -43 196 l-46 192
-78 0 -78 0 97 -157z"/>
<path d="M585 1973 c4 -10 34 -91 67 -181 33 -90 62 -161 65 -159 2 2 1 84 -3
181 l-7 176 -65 0 c-57 0 -63 -2 -57 -17z"/>
<path d="M764 1973 c2 -10 15 -85 27 -168 12 -82 25 -153 29 -158 3 -4 17 59
29 140 13 82 25 160 28 176 l6 27 -62 0 c-55 0 -62 -2 -57 -17z"/>
<path d="M936 1948 c-10 -79 -15 -321 -6 -312 7 8 130 337 130 349 0 3 -27 5
-59 5 l-60 0 -5 -42z"/>
<path d="M1115 1978 c-13 -37 -85 -354 -83 -365 2 -10 168 250 226 354 l13 23
-76 0 c-51 0 -77 -4 -80 -12z"/>
<path d="M1317 1983 c-17 -27 -197 -427 -194 -430 3 -3 253 262 371 395 l38
42 -105 0 c-58 0 -108 -3 -110 -7z"/>
<path d="M90 1852 l0 -121 138 -100 c81 -60 147 -101 161 -101 17 0 21 3 13
13 -5 6 -78 106 -161 221 l-151 209 0 -121z"/>
<path d="M1393 1751 c-84 -115 -153 -212 -153 -215 0 -3 8 -6 18 -6 20 0 281
185 288 204 3 7 3 61 2 120 l-3 107 -152 -210z"/>
<path d="M90 1595 l0 -65 72 0 72 0 -54 56 c-86 87 -90 87 -90 9z"/>
<path d="M1475 1595 l-70 -64 73 -1 72 0 0 65 c0 36 -1 65 -2 65 -2 0 -34 -29
-73 -65z"/>
<path d="M92 1108 c5 -418 9 -444 86 -593 50 -96 189 -234 296 -294 83 -47
226 -105 289 -116 l37 -7 0 691 0 691 -356 0 -356 0 4 -372z m382 170 c8 -14
7 -21 -6 -34 -30 -30 -75 9 -48 42 16 18 39 15 54 -8z m-7 -74 c11 -11 26 -14
47 -10 101 19 101 19 134 -9 42 -35 43 -76 1 -139 -27 -40 -30 -53 -25 -86 l6
-40 -184 0 -184 0 1 43 c1 33 -5 53 -26 83 -36 54 -37 106 -1 139 30 28 53 30
119 13 39 -11 47 -10 62 5 21 21 30 21 50 1z m76 -311 c-51 -2 -136 -2 -190 0
-54 1 -12 3 92 3 105 0 149 -2 98 -3z m87 -23 c0 -6 -68 -10 -185 -10 -117 0
-185 4 -185 10 0 6 68 10 185 10 117 0 185 -4 185 -10z m-340 -109 c0 -38 4
-61 13 -64 6 -3 -1 -6 -18 -6 l-30 -1 3 55 c3 41 0 55 -10 56 -12 0 18 17 35
18 4 1 7 -26 7 -58z m140 49 c0 -8 -46 -112 -58 -129 -1 -3 -7 0 -14 7 -8 8
-3 22 20 53 17 23 29 46 26 51 -8 12 -38 10 -52 -4 -9 -9 -12 -9 -12 3 0 9 3
19 7 22 10 11 83 8 83 -3z m80 -3 c-20 -10 -26 -21 -28 -56 -4 -48 12 -76 28
-51 13 21 12 26 -6 45 -20 20 -10 33 14 19 23 -15 27 -48 7 -68 -53 -53 -105
46 -53 101 12 13 31 23 42 23 19 0 19 -1 -4 -13z m125 6 c-11 -3 -26 -12 -32
-21 -18 -22 -17 -88 1 -95 30 -12 37 36 9 52 -23 12 -11 25 16 16 32 -10 29
-62 -4 -77 -21 -9 -28 -8 -45 7 -42 38 -7 126 48 124 21 -1 22 -2 7 -6z"/>
<path d="M263 1159 c-19 -19 -16 -64 7 -84 11 -10 22 -26 25 -36 5 -16 17 -19
66 -19 l59 0 0 64 0 63 -42 7 c-24 3 -56 8 -73 12 -18 3 -35 0 -42 -7z"/>
<path d="M555 1160 c-11 -5 -37 -9 -57 -9 l-38 -1 0 -65 0 -65 63 0 62 1 28
43 c31 50 33 68 11 90 -17 17 -38 19 -69 6z"/>
<path d="M310 965 c0 -20 4 -26 18 -23 9 2 17 12 17 23 0 11 -8 21 -17 23 -14
3 -18 -3 -18 -23z"/>
<path d="M384 975 c-7 -18 3 -35 22 -35 8 0 14 10 14 25 0 27 -27 35 -36 10z"/>
<path d="M464 975 c-7 -18 3 -35 22 -35 8 0 14 10 14 25 0 27 -27 35 -36 10z"/>
<path d="M540 965 c0 -18 5 -25 20 -25 15 0 20 7 20 25 0 18 -5 25 -20 25 -15
0 -20 -7 -20 -25z"/>
<path d="M850 790 c0 -496 3 -690 11 -690 23 0 191 61 251 91 184 93 319 229
383 387 48 119 55 185 55 557 l0 345 -350 0 -350 0 0 -690z m314 410 l26 -10
0 -178 0 -179 -98 3 c-55 2 -111 8 -125 13 l-27 11 0 170 c0 111 4 169 10 165
5 -3 18 -1 27 4 23 13 154 14 187 1z m257 -2 l39 -11 0 -164 0 -163 -27 -11
c-14 -5 -70 -11 -125 -13 l-98 -3 0 178 c0 159 2 179 18 188 23 14 146 14 193
-1z m-341 -408 c0 -5 7 -10 16 -10 13 0 14 -3 4 -15 -6 -8 -9 -19 -5 -25 4 -6
-6 -10 -24 -10 -17 0 -31 4 -31 9 0 5 -3 16 -6 25 -4 11 -1 16 10 16 9 0 16 5
16 10 0 6 5 10 10 10 6 0 10 -4 10 -10z m260 0 c0 -5 7 -10 16 -10 11 0 14 -5
10 -16 -3 -9 -6 -20 -6 -25 0 -5 -14 -9 -31 -9 -16 0 -28 4 -24 9 3 5 1 12 -5
16 -15 9 -12 25 5 25 8 0 15 5 15 10 0 6 5 10 10 10 6 0 10 -4 10 -10z m-130
-40 c0 -5 7 -10 16 -10 13 0 14 -3 4 -15 -6 -8 -9 -18 -6 -23 3 -5 -8 -9 -25
-9 -20 0 -28 4 -25 13 3 8 1 16 -5 20 -6 3 -3 11 8 20 22 16 33 18 33 4z"/>
<path d="M982 1038 c-2 -171 -14 -155 120 -160 49 -2 71 0 61 6 -8 4 -45 8
-82 7 -36 0 -71 3 -78 7 -9 5 -13 51 -16 147 l-3 140 -2 -147z"/>
<path d="M962 1023 c-1 -113 1 -154 11 -160 6 -4 51 -8 99 -9 48 -1 93 -5 100
-10 10 -5 11 -4 1 7 -9 9 -40 13 -98 14 -46 0 -89 5 -94 10 -6 6 -12 76 -14
155 l-3 145 -2 -152z"/>
<path d="M1075 1160 c-38 -7 -36 -7 20 -8 42 -1 56 1 45 8 -8 5 -17 9 -20 8
-3 0 -23 -4 -45 -8z"/>
<path d="M1068 1113 c18 -2 45 -2 60 0 15 2 0 4 -33 4 -33 0 -45 -2 -27 -4z"/>
<path d="M1040 1070 c0 -5 24 -8 55 -7 71 3 71 17 0 17 -30 0 -55 -4 -55 -10z"/>
<path d="M1060 1030 c-18 -6 -9 -8 32 -7 32 1 58 5 58 10 0 9 -58 7 -90 -3z"/>
<path d="M1065 990 c-24 -6 -18 -8 27 -8 32 1 55 5 52 9 -6 10 -36 10 -79 -1z"/>
<path d="M1070 950 c-30 -6 -27 -8 25 -9 42 0 56 2 45 9 -17 11 -19 11 -70 0z"/>
<path d="M1400 1040 l-5 -145 -80 -3 c-44 -2 -83 -6 -87 -10 -9 -9 165 -2 175
7 4 4 6 72 5 152 l-3 144 -5 -145z"/>
<path d="M1259 1159 c-9 -6 8 -9 45 -9 33 0 57 2 55 4 -10 9 -88 13 -100 5z"/>
<path d="M1432 1028 c-1 -105 -6 -149 -14 -155 -7 -4 -50 -8 -96 -8 -55 -1
-86 -5 -95 -14 -10 -11 -9 -12 1 -7 7 5 53 9 102 10 49 1 94 6 100 12 7 7 9
64 7 160 l-3 149 -2 -147z"/>
<path d="M1278 1113 c18 -2 45 -2 60 0 15 2 0 4 -33 4 -33 0 -45 -2 -27 -4z"/>
<path d="M1250 1073 c0 -5 25 -9 55 -10 31 -1 55 2 55 7 0 6 -25 10 -55 10
-30 0 -55 -3 -55 -7z"/>
<path d="M1250 1033 c0 -5 26 -9 58 -10 41 -1 50 1 32 7 -32 10 -90 12 -90 3z"/>
<path d="M1256 992 c-2 -4 21 -8 52 -9 45 -1 51 1 27 7 -41 11 -73 11 -79 2z"/>
<path d="M1260 950 c-10 -7 3 -10 44 -10 33 0 57 2 55 4 -11 9 -86 14 -99 6z"/>
<path d="M2040 1771 c0 -10 34 -21 67 -21 52 0 53 -7 53 -502 0 -445 -1 -459
-20 -478 -13 -13 -33 -20 -60 -20 -29 0 -40 -4 -40 -15 0 -13 27 -15 185 -15
158 0 185 2 185 15 0 11 -11 15 -37 15 -21 0 -44 4 -51 8 -24 16 -32 78 -32
255 l0 179 89 -4 c72 -2 93 -7 111 -23 12 -11 58 -91 102 -179 95 -190 164
-303 252 -413 117 -145 242 -244 360 -285 51 -17 176 -25 176 -10 0 4 -26 13
-57 20 -137 28 -310 202 -482 485 -67 110 -177 329 -198 393 -17 55 -17 57 1
68 94 55 160 137 172 213 10 65 -10 160 -43 208 -34 49 -114 91 -198 105 -75
12 -535 13 -535 1z m456 -46 c99 -29 158 -107 170 -222 9 -82 -9 -151 -52
-201 -47 -55 -99 -74 -222 -80 l-102 -5 2 254 3 254 30 6 c53 12 120 9 171 -6z"/>
<path d="M5004 1596 c-148 -34 -251 -111 -311 -234 l-38 -76 0 -130 c0 -148
16 -205 80 -289 114 -150 377 -204 637 -131 l58 17 0 124 c0 135 8 163 45 163
16 0 25 6 25 15 0 13 -25 15 -165 15 -140 0 -165 -2 -165 -15 0 -10 10 -15 28
-15 52 0 99 -19 106 -43 3 -12 6 -70 6 -129 l0 -106 -32 -8 c-18 -4 -71 -7
-118 -7 -183 1 -300 91 -357 275 -24 76 -23 236 2 312 32 101 118 191 208 218
68 21 204 16 252 -9 62 -32 102 -85 119 -155 4 -17 13 -28 23 -28 14 0 15 11
9 93 -4 50 -12 97 -19 104 -42 41 -281 64 -393 39z"/>
<path d="M7321 1592 c-68 -20 -134 -80 -150 -137 -37 -133 24 -234 197 -326
100 -54 163 -104 188 -151 22 -42 18 -119 -8 -158 -39 -56 -70 -73 -136 -73
-114 0 -190 62 -229 187 -12 41 -22 56 -35 56 -21 0 -21 1 -8 -76 31 -173 25
-161 88 -185 73 -28 193 -30 276 -5 152 45 221 216 141 351 -31 54 -51 70
-196 156 -158 92 -188 131 -176 221 13 98 129 147 227 95 46 -24 89 -89 90
-134 0 -15 6 -23 18 -23 15 0 16 9 12 86 -6 98 -12 106 -92 123 -67 15 -143
12 -207 -7z"/>
<path d="M2932 1578 c3 -7 21 -14 41 -16 22 -2 41 -10 46 -20 5 -10 11 -159
14 -332 4 -354 7 -370 72 -436 51 -51 111 -69 225 -68 92 1 173 20 253 61 l50
25 41 -40 c24 -23 48 -37 59 -35 16 4 17 32 17 407 0 306 3 406 13 419 6 9 27
17 46 19 19 2 36 9 39 16 3 9 -33 12 -157 12 -133 0 -161 -2 -161 -14 0 -10
13 -16 37 -18 62 -5 63 -11 63 -380 l0 -326 -41 -36 c-84 -71 -231 -92 -326
-45 -40 20 -53 34 -78 84 l-30 60 0 313 c0 344 -2 332 63 332 22 0 32 5 32 15
0 13 -25 15 -161 15 -124 0 -160 -3 -157 -12z"/>
<path d="M3876 1559 c-3 -17 -6 -65 -6 -105 0 -93 20 -102 38 -16 20 95 64
120 215 121 l57 1 0 -389 c0 -435 5 -410 -75 -419 -29 -3 -45 -9 -45 -19 0
-19 361 -15 368 5 2 8 -9 12 -36 12 -24 0 -49 7 -63 19 l-24 19 0 383 c0 443
-15 396 123 384 106 -9 133 -30 152 -118 17 -75 40 -78 40 -4 0 28 -3 76 -6
105 l-7 52 -362 0 -362 0 -7 -31z"/>
<path d="M5590 1575 c0 -10 10 -15 34 -15 62 0 61 5 61 -407 0 -359 -1 -375
-19 -389 -11 -8 -32 -14 -48 -14 -18 0 -28 -5 -28 -15 0 -13 40 -15 300 -15
165 0 300 2 300 4 0 2 9 48 20 101 24 115 24 115 6 115 -7 0 -23 -26 -35 -58
-24 -67 -43 -88 -98 -108 -40 -14 -171 -18 -235 -8 l-38 7 0 194 0 195 111 -4
c122 -4 139 -12 139 -70 0 -21 5 -28 20 -28 19 0 20 7 20 115 0 108 -1 115
-20 115 -15 0 -20 -7 -20 -28 0 -58 -17 -67 -139 -70 l-111 -4 0 188 0 187
114 -6 c156 -7 183 -24 201 -121 4 -21 13 -36 21 -36 11 0 14 17 14 73 0 39
-3 82 -6 95 l-6 22 -279 0 c-241 0 -279 -2 -279 -15z"/>
<path d="M6340 1576 c0 -11 10 -16 34 -16 62 0 61 5 61 -407 0 -359 -1 -375
-19 -389 -11 -8 -32 -14 -48 -14 -18 0 -28 -5 -28 -15 0 -13 24 -15 155 -15
131 0 155 2 155 15 0 9 -10 15 -26 15 -14 0 -34 5 -45 10 -18 10 -19 23 -19
175 l0 165 55 0 c71 0 81 -10 165 -167 95 -176 142 -213 273 -213 44 0 57 3
57 15 0 9 -9 15 -25 15 -34 0 -95 57 -145 136 -48 77 -144 254 -139 258 2 1
20 12 39 24 50 30 106 91 125 134 43 105 -15 235 -120 269 -26 8 -123 14 -272
16 -208 4 -233 3 -233 -11z m383 -40 c78 -28 117 -91 117 -188 -1 -139 -72
-208 -215 -208 l-65 0 0 199 c0 224 -6 208 80 209 25 1 62 -5 83 -12z"/>
</g>
</svg>
