<?xml version="1.0" standalone="no"?>
<!DOCTYPE svg PUBLIC "-//W3C//DTD SVG 20010904//EN"
 "http://www.w3.org/TR/2001/REC-SVG-20010904/DTD/svg10.dtd">
<svg version="1.0" xmlns="http://www.w3.org/2000/svg"
 width="800.000000pt" height="800.000000pt" viewBox="0 0 800.000000 800.000000"
 preserveAspectRatio="xMidYMid meet">

<g transform="translate(0.000000,800.000000) scale(0.100000,-0.100000)"
fill="#000000" stroke="none">
<path d="M2345 7992 c-60 -3 -59 -3 130 -52 739 -187 1371 -509 1934 -984 98
-82 361 -335 361 -346 0 -4 -28 7 -62 25 -152 81 -409 171 -613 215 -693 149
-1464 79 -2010 -184 -240 -116 -394 -224 -561 -398 -196 -204 -316 -426 -375
-692 -30 -135 -37 -433 -14 -581 47 -304 156 -519 369 -730 186 -185 420 -324
707 -419 135 -46 731 -199 1224 -316 469 -111 840 -221 966 -286 89 -47 219
-152 268 -217 121 -159 156 -451 82 -677 -41 -125 -77 -185 -168 -281 -121
-127 -268 -210 -491 -278 -260 -80 -596 -100 -942 -55 -461 59 -821 251 -1011
539 -113 170 -160 326 -185 608 l-6 67 -530 0 -531 0 6 -132 c21 -440 165
-815 440 -1145 438 -525 1225 -804 2202 -780 254 7 454 28 672 72 146 30 145
30 113 5 -547 -436 -1150 -734 -1839 -909 l-190 -48 82 -7 c45 -3 159 -6 254
-6 1303 0 2535 502 3388 1381 618 636 978 1386 1077 2244 16 143 16 607 0 750
-68 587 -251 1105 -565 1600 -143 225 -312 439 -512 644 -860 887 -2110 1392
-3413 1379 -108 -1 -224 -3 -257 -6z m1325 -1916 c396 -75 658 -228 803 -470
56 -93 111 -261 132 -400 l18 -116 517 0 518 0 16 -47 c24 -74 73 -284 96
-407 78 -432 72 -943 -16 -1354 -3 -17 -15 -2 -54 75 -119 232 -302 433 -535
586 -239 157 -301 178 -1356 442 -497 125 -944 241 -992 257 -127 42 -228 90
-326 155 -216 144 -302 303 -302 558 0 197 46 310 181 445 47 47 111 100 142
118 137 81 307 136 508 167 129 19 530 14 650 -9z"/>
</g>
</svg>
