<?xml version="1.0" standalone="no"?>
<!DOCTYPE svg PUBLIC "-//W3C//DTD SVG 20010904//EN"
 "http://www.w3.org/TR/2001/REC-SVG-20010904/DTD/svg10.dtd">
<svg version="1.0" xmlns="http://www.w3.org/2000/svg"
 width="915.000000pt" height="173.000000pt" viewBox="0 0 915.000000 173.000000"
 preserveAspectRatio="xMidYMid meet">

<g transform="translate(0.000000,173.000000) scale(0.100000,-0.100000)"
fill="#000000" stroke="none">
<path d="M375 1700 c143 -43 295 -128 400 -223 l50 -45 -75 26 c-57 19 -102
26 -187 30 -232 10 -404 -66 -481 -213 -24 -44 -27 -62 -27 -145 0 -109 15
-148 82 -211 59 -57 126 -85 324 -134 312 -78 350 -96 369 -181 21 -94 -38
-178 -146 -210 -81 -23 -230 -16 -301 15 -88 39 -153 127 -153 209 0 22 -2 22
-115 22 l-115 0 0 -28 c0 -45 29 -144 57 -190 82 -141 264 -223 491 -222 48 1
107 5 132 10 25 4 46 7 48 5 7 -7 -122 -88 -194 -122 -41 -20 -110 -46 -152
-60 l-77 -23 120 4 c367 14 674 204 829 514 95 189 101 451 15 647 -35 82
-123 206 -191 271 -175 168 -398 261 -648 270 l-125 4 70 -20z m278 -406 c79
-28 124 -79 142 -161 l7 -33 108 0 108 0 11 -32 c28 -86 37 -303 14 -341 -3
-4 -18 12 -34 37 -62 92 -106 114 -391 186 -126 33 -245 69 -265 81 -96 60
-97 195 -1 245 79 42 210 50 301 18z"/>
<path d="M6740 1175 c-11 -13 -57 -15 -306 -15 -162 0 -294 -3 -294 -8 0 -4 9
-13 20 -20 19 -12 20 -23 20 -281 0 -148 -3 -276 -6 -285 -3 -9 -12 -16 -20
-16 -8 0 -14 -4 -14 -10 0 -6 42 -10 105 -10 63 0 105 4 105 10 0 6 -6 10 -14
10 -22 0 -26 23 -26 141 l0 109 139 0 c131 0 140 -1 146 -20 14 -44 25 -15 25
65 0 77 -8 102 -25 75 -4 -6 -64 -10 -146 -10 l-140 0 3 73 3 72 199 3 c164 2
203 0 222 -13 13 -8 26 -15 29 -15 3 0 5 36 5 80 0 80 -6 93 -30 65z"/>
<path d="M7490 1175 c-11 -13 -56 -15 -296 -15 -226 0 -284 -3 -284 -13 0 -7
5 -18 10 -23 13 -13 9 -550 -3 -576 -8 -16 12 -17 289 -20 227 -2 298 -6 302
-15 2 -7 8 -13 13 -13 5 0 9 38 9 85 0 84 -6 99 -30 70 -10 -12 -48 -15 -221
-15 l-209 0 0 80 0 80 136 0 c127 0 136 -1 141 -20 12 -47 23 -13 23 75 0 88
-11 122 -23 75 -5 -19 -14 -20 -141 -20 l-136 0 0 75 0 75 198 0 c159 0 202
-3 218 -15 10 -8 22 -15 27 -15 4 0 7 36 7 80 0 80 -6 93 -30 65z"/>
<path d="M1853 1160 c-154 -31 -236 -165 -172 -280 39 -69 77 -81 342 -108
103 -11 135 -31 123 -77 -23 -92 -328 -91 -403 2 -12 15 -24 25 -26 23 -6 -7
-66 -140 -64 -141 1 -1 13 -3 27 -4 14 -2 52 -12 84 -24 117 -44 316 -37 416
14 112 57 144 184 69 269 -42 48 -92 65 -232 76 -137 12 -189 23 -207 45 -18
22 -8 56 23 79 24 18 43 21 125 21 84 0 104 -4 155 -27 38 -18 60 -35 67 -52
5 -15 11 -26 14 -26 5 0 86 146 86 155 0 3 -13 5 -29 5 -16 0 -46 7 -66 16
-89 37 -238 52 -332 34z"/>
<path d="M2720 1160 c-123 -26 -233 -114 -266 -212 -22 -68 -16 -187 14 -245
90 -175 351 -233 582 -129 41 19 83 37 93 40 16 5 14 12 -19 63 -49 78 -50 79
-65 47 -17 -35 -57 -59 -134 -78 -75 -20 -128 -20 -193 -1 -160 48 -211 221
-101 340 69 75 182 95 311 55 62 -19 90 -39 100 -70 5 -15 98 114 98 136 0 6
-12 11 -27 11 -16 1 -59 10 -98 22 -80 25 -228 35 -295 21z"/>
<path d="M4550 1156 c-66 -15 -146 -55 -194 -97 -120 -105 -120 -319 1 -430
190 -175 560 -127 659 86 29 61 33 184 9 242 -28 67 -81 120 -158 158 -111 54
-204 66 -317 41z m211 -121 c119 -42 178 -157 134 -263 -21 -50 -51 -79 -109
-109 -168 -86 -386 16 -386 180 0 154 187 253 361 192z"/>
<path d="M3360 1151 c0 -6 5 -13 10 -16 6 -4 10 -113 10 -296 0 -186 -4 -289
-10 -289 -5 0 -10 -4 -10 -10 0 -6 37 -10 90 -10 87 0 101 5 80 26 -7 7 -10
56 -8 125 l3 114 190 0 190 0 3 -118 c2 -98 0 -118 -13 -123 -38 -15 -7 -24
80 -24 86 0 113 8 85 25 -6 4 -10 112 -10 290 0 178 4 286 10 290 28 17 1 25
-85 25 -87 0 -118 -9 -80 -24 12 -4 15 -27 15 -116 l0 -110 -195 0 -195 0 0
104 c0 59 4 108 10 111 6 3 10 13 10 21 0 11 -18 14 -90 14 -50 0 -90 -4 -90
-9z"/>
<path d="M5230 1154 c0 -3 7 -12 15 -20 13 -13 15 -60 15 -295 0 -239 -2 -280
-15 -285 -37 -15 -8 -24 75 -24 50 0 90 4 90 9 0 5 -5 11 -10 13 -7 2 -9 74
-8 205 l3 202 185 -195 c127 -133 184 -201 183 -214 -3 -19 4 -20 92 -20 86 0
113 8 85 25 -6 4 -10 112 -10 290 0 178 4 286 10 290 27 17 2 25 -80 25 -91 0
-102 -4 -75 -24 13 -9 15 -40 13 -202 l-3 -192 -180 188 c-135 141 -179 193
-177 209 3 20 0 21 -102 21 -58 0 -106 -3 -106 -6z"/>
<path d="M7690 1150 c0 -6 7 -13 15 -16 13 -5 15 -47 15 -290 0 -244 -2 -285
-15 -290 -46 -18 15 -23 287 -26 230 -2 302 -6 306 -15 2 -7 8 -13 13 -13 5 0
9 38 9 85 0 52 -4 85 -10 85 -6 0 -13 -7 -16 -15 -5 -13 -39 -15 -220 -15
l-214 0 0 244 c0 208 2 245 15 250 8 3 15 10 15 16 0 6 -38 10 -100 10 -62 0
-100 -4 -100 -10z"/>
<path d="M8440 1151 c0 -6 5 -13 10 -16 6 -4 10 -113 10 -296 0 -186 -4 -289
-10 -289 -5 0 -10 -5 -10 -11 0 -7 81 -9 258 -7 241 3 259 4 297 25 51 27 96
75 126 133 20 39 24 60 24 151 0 98 -2 110 -30 164 -19 37 -46 72 -73 92 -73
55 -118 63 -374 63 -136 0 -228 -4 -228 -9z m421 -101 c68 -13 98 -34 127 -91
20 -38 23 -55 20 -130 -3 -66 -9 -93 -26 -121 -37 -60 -76 -72 -239 -76 l-143
-4 0 209 c0 115 3 213 7 216 10 11 194 8 254 -3z"/>
</g>
</svg>
